font.ufo
<glyph name="anusvara" format="1">
  <advance width="364"/>
  <unicode hex="0D82"/>
  <outline>
    <contour>
      <point x="73" y="183" type="curve" smooth="yes"/>
      <point x="73" y="130"/>
      <point x="118" y="87"/>
      <point x="173" y="87" type="curve" smooth="yes"/>
      <point x="228" y="87"/>
      <point x="273" y="130"/>
      <point x="273" y="183" type="curve" smooth="yes"/>
      <point x="273" y="235"/>
      <point x="228" y="278"/>
      <point x="173" y="278" type="curve" smooth="yes"/>
      <point x="118" y="278"/>
      <point x="73" y="235"/>
    </contour>
    <contour>
      <point x="29" y="165" type="curve" smooth="yes"/>
      <point x="29" y="242"/>
      <point x="94" y="306"/>
      <point x="173" y="306" type="curve" smooth="yes"/>
      <point x="252" y="306"/>
      <point x="317" y="242"/>
      <point x="317" y="165" type="curve" smooth="yes"/>
      <point x="317" y="88"/>
      <point x="252" y="24"/>
      <point x="173" y="24" type="curve" smooth="yes"/>
      <point x="94" y="24"/>
      <point x="29" y="88"/>
    </contour>
  </outline>
</glyph>
<glyph name="uni0D83" format="1">
  <advance width="248"/>
  <unicode hex="0D83"/>
  <outline>
    <contour>
      <point x="61" y="111" type="curve" smooth="yes"/>
      <point x="61" y="81"/>
      <point x="85" y="57"/>
      <point x="115" y="57" type="curve" smooth="yes"/>
      <point x="145" y="57"/>
      <point x="169" y="81"/>
      <point x="169" y="111" type="curve" smooth="yes"/>
      <point x="169" y="141"/>
      <point x="145" y="165"/>
      <point x="115" y="165" type="curve" smooth="yes"/>
      <point x="85" y="165"/>
      <point x="61" y="141"/>
    </contour>
    <contour>
      <point x="31" y="110" type="curve" smooth="yes"/>
      <point x="31" y="156"/>
      <point x="69" y="194"/>
      <point x="115" y="194" type="curve" smooth="yes"/>
      <point x="161" y="194"/>
      <point x="199" y="156"/>
      <point x="199" y="110" type="curve" smooth="yes"/>
      <point x="199" y="64"/>
      <point x="161" y="26"/>
      <point x="115" y="26" type="curve" smooth="yes"/>
      <point x="69" y="26"/>
      <point x="31" y="64"/>
    </contour>
    <contour>
      <point x="61" y="313" type="curve" smooth="yes"/>
      <point x="61" y="283"/>
      <point x="85" y="259"/>
      <point x="115" y="259" type="curve" smooth="yes"/>
      <point x="145" y="259"/>
      <point x="169" y="283"/>
      <point x="169" y="313" type="curve" smooth="yes"/>
      <point x="169" y="343"/>
      <point x="145" y="367"/>
      <point x="115" y="367" type="curve" smooth="yes"/>
      <point x="85" y="367"/>
      <point x="61" y="343"/>
    </contour>
    <contour>
      <point x="31" y="312" type="curve" smooth="yes"/>
      <point x="31" y="358"/>
      <point x="69" y="396"/>
      <point x="115" y="396" type="curve" smooth="yes"/>
      <point x="161" y="396"/>
      <point x="199" y="358"/>
      <point x="199" y="312" type="curve" smooth="yes"/>
      <point x="199" y="266"/>
      <point x="161" y="228"/>
      <point x="115" y="228" type="curve" smooth="yes"/>
      <point x="69" y="228"/>
      <point x="31" y="266"/>
    </contour>
  </outline>
</glyph>
<glyph name="si_A" format="1">
  <advance width="573"/>
  <unicode hex="0D85"/>
  <outline>
    <contour>
      <point x="384" y="205" type="curve"/>
      <point x="384" y="235" type="line"/>
      <point x="392" y="231"/>
      <point x="401" y="230"/>
      <point x="409" y="230" type="curve" smooth="yes"/>
      <point x="438" y="230"/>
      <point x="459" y="252"/>
      <point x="459" y="289" type="curve" smooth="yes"/>
      <point x="459" y="312"/>
      <point x="455" y="327"/>
      <point x="443" y="345" type="curve" smooth="yes"/>
      <point x="432" y="362"/>
      <point x="420" y="373"/>
      <point x="420" y="396" type="curve" smooth="yes"/>
      <point x="420" y="398"/>
      <point x="421" y="402"/>
      <point x="421" y="404" type="curve"/>
      <point x="438" y="418" type="line" smooth="yes"/>
      <point x="457" y="422" type="line"/>
      <point x="450" y="418"/>
      <point x="445" y="414"/>
      <point x="445" y="403" type="curve" smooth="yes"/>
      <point x="445" y="369"/>
      <point x="527" y="356"/>
      <point x="527" y="281" type="curve" smooth="yes"/>
      <point x="527" y="227"/>
      <point x="480" y="199"/>
      <point x="429" y="199" type="curve" smooth="yes"/>
      <point x="413" y="199"/>
      <point x="399" y="201"/>
    </contour>
    <contour>
      <point x="358" y="-215" type="line"/>
      <point x="358" y="-39"/>
      <point x="358" y="137"/>
      <point x="358" y="313" type="curve" smooth="yes"/>
      <point x="358" y="350"/>
      <point x="366" y="379"/>
      <point x="385" y="401" type="curve" smooth="yes"/>
      <point x="400" y="418"/>
      <point x="419" y="430"/>
      <point x="439" y="435" type="curve"/>
      <point x="463" y="424" type="line"/>
      <point x="392" y="393"/>
      <point x="388" y="351"/>
      <point x="388" y="313" type="curve" smooth="yes"/>
      <point x="388" y="-215" type="line"/>
    </contour>
    <contour>
      <point x="33" y="160" type="curve" smooth="yes"/>
      <point x="33" y="248"/>
      <point x="94" y="309"/>
      <point x="202" y="309" type="curve" smooth="yes"/>
      <point x="314" y="309" type="line"/>
      <point x="313" y="351"/>
      <point x="286" y="391"/>
      <point x="242" y="391" type="curve" smooth="yes"/>
      <point x="207" y="391"/>
      <point x="199" y="374"/>
      <point x="192" y="358" type="curve" smooth="yes"/>
      <point x="186" y="346"/>
      <point x="174" y="330"/>
      <point x="147" y="330" type="curve" smooth="yes"/>
      <point x="125" y="330"/>
      <point x="106" y="345"/>
      <point x="106" y="369" type="curve" smooth="yes"/>
      <point x="106" y="410"/>
      <point x="154" y="433"/>
      <point x="211" y="433" type="curve" smooth="yes"/>
      <point x="295" y="433"/>
      <point x="346" y="382"/>
      <point x="346" y="290" type="curve" smooth="yes"/>
      <point x="346" y="289"/>
      <point x="346" y="287"/>
      <point x="346" y="286" type="curve"/>
      <point x="276" y="286" type="line" smooth="yes"/>
      <point x="159" y="286"/>
      <point x="144" y="200"/>
      <point x="144" y="164" type="curve" smooth="yes"/>
      <point x="144" y="88"/>
      <point x="194" y="28"/>
      <point x="313" y="28" type="curve" smooth="yes"/>
      <point x="413" y="28"/>
      <point x="480" y="51"/>
      <point x="523" y="84" type="curve"/>
      <point x="523" y="51" type="line"/>
      <point x="472" y="17"/>
      <point x="386" y="-4"/>
      <point x="282" y="-4" type="curve" smooth="yes"/>
      <point x="118" y="-4"/>
      <point x="33" y="62"/>
    </contour>
  </outline>
</glyph>
<glyph name="si_I" format="1">
  <advance width="593"/>
  <unicode hex="0D89"/>
  <outline>
    <contour>
      <point x="33" y="221" type="curve" smooth="yes"/>
      <point x="33" y="357"/>
      <point x="148" y="432"/>
      <point x="284" y="432" type="curve" smooth="yes"/>
      <point x="436" y="432"/>
      <point x="544" y="353"/>
      <point x="544" y="198" type="curve" smooth="yes"/>
      <point x="544" y="92"/>
      <point x="473" y="10"/>
      <point x="384" y="-6" type="curve"/>
      <point x="417" y="-12"/>
      <point x="439" y="-36"/>
      <point x="439" y="-75" type="curve" smooth="yes"/>
      <point x="439" y="-134"/>
      <point x="364" y="-160"/>
      <point x="298" y="-160" type="curve" smooth="yes"/>
      <point x="236" y="-160"/>
      <point x="173" y="-139"/>
      <point x="173" y="-76" type="curve" smooth="yes"/>
      <point x="173" y="-50"/>
      <point x="190" y="-38"/>
      <point x="207" y="-38" type="curve" smooth="yes"/>
      <point x="222" y="-38"/>
      <point x="237" y="-48"/>
      <point x="237" y="-65" type="curve" smooth="yes"/>
      <point x="237" y="-71"/>
      <point x="233" y="-82"/>
      <point x="233" y="-94" type="curve" smooth="yes"/>
      <point x="233" y="-114"/>
      <point x="244" y="-136"/>
      <point x="300" y="-136" type="curve" smooth="yes"/>
      <point x="339" y="-136"/>
      <point x="370" y="-119"/>
      <point x="370" y="-83" type="curve" smooth="yes"/>
      <point x="370" y="-42"/>
      <point x="334" y="-15"/>
      <point x="267" y="-15" type="curve" smooth="yes"/>
      <point x="259" y="-15"/>
      <point x="259" y="-15"/>
      <point x="249" y="-16" type="curve"/>
      <point x="249" y="13" type="line"/>
      <point x="261" y="14"/>
      <point x="262" y="14"/>
      <point x="273" y="14" type="curve" smooth="yes"/>
      <point x="290" y="14"/>
      <point x="306" y="12"/>
      <point x="323" y="12" type="curve" smooth="yes"/>
      <point x="422" y="12"/>
      <point x="492" y="78"/>
      <point x="492" y="172" type="curve" smooth="yes"/>
      <point x="492" y="274"/>
      <point x="406" y="343"/>
      <point x="285" y="343" type="curve" smooth="yes"/>
      <point x="175" y="343"/>
      <point x="87" y="294"/>
      <point x="87" y="198" type="curve" smooth="yes"/>
      <point x="87" y="138"/>
      <point x="142" y="82"/>
      <point x="228" y="82" type="curve" smooth="yes"/>
      <point x="276" y="82"/>
      <point x="314" y="94"/>
      <point x="330" y="116" type="curve"/>
      <point x="317" y="106"/>
      <point x="299" y="102"/>
      <point x="285" y="102" type="curve" smooth="yes"/>
      <point x="243" y="102"/>
      <point x="207" y="137"/>
      <point x="207" y="177" type="curve" smooth="yes"/>
      <point x="207" y="223"/>
      <point x="241" y="258"/>
      <point x="286" y="258" type="curve" smooth="yes"/>
      <point x="344" y="258"/>
      <point x="377" y="220"/>
      <point x="377" y="168" type="curve" smooth="yes"/>
      <point x="377" y="88"/>
      <point x="310" y="54"/>
      <point x="220" y="54" type="curve" smooth="yes"/>
      <point x="113" y="54"/>
      <point x="33" y="117"/>
    </contour>
    <contour>
      <point x="237" y="180" type="curve" smooth="yes"/>
      <point x="237" y="152"/>
      <point x="261" y="130"/>
      <point x="288" y="130" type="curve" smooth="yes"/>
      <point x="316" y="130"/>
      <point x="339" y="153"/>
      <point x="339" y="180" type="curve" smooth="yes"/>
      <point x="339" y="208"/>
      <point x="315" y="229"/>
      <point x="288" y="229" type="curve" smooth="yes"/>
      <point x="260" y="229"/>
      <point x="237" y="207"/>
    </contour>
  </outline>
</glyph>
<glyph name="si_Ii" format="1">
  <advance width="528"/>
  <unicode hex="0D8A"/>
  <outline>
    <contour>
      <point x="410" y="468" type="curve" smooth="yes"/>
      <point x="410" y="447"/>
      <point x="427" y="430"/>
      <point x="448" y="430" type="curve" smooth="yes"/>
      <point x="469" y="430"/>
      <point x="486" y="447"/>
      <point x="486" y="468" type="curve" smooth="yes"/>
      <point x="486" y="489"/>
      <point x="469" y="506"/>
      <point x="448" y="506" type="curve" smooth="yes"/>
      <point x="427" y="506"/>
      <point x="410" y="489"/>
    </contour>
    <contour>
      <point x="383" y="468" type="curve" smooth="yes"/>
      <point x="383" y="504"/>
      <point x="412" y="533"/>
      <point x="448" y="533" type="curve" smooth="yes"/>
      <point x="483" y="533"/>
      <point x="512" y="504"/>
      <point x="512" y="468" type="curve" smooth="yes"/>
      <point x="512" y="432"/>
      <point x="483" y="403"/>
      <point x="448" y="403" type="curve" smooth="yes"/>
      <point x="412" y="403"/>
      <point x="383" y="432"/>
    </contour>
    <contour>
      <point x="145" y="538" type="curve" smooth="yes"/>
      <point x="145" y="517"/>
      <point x="162" y="500"/>
      <point x="183" y="500" type="curve" smooth="yes"/>
      <point x="204" y="500"/>
      <point x="221" y="517"/>
      <point x="221" y="538" type="curve" smooth="yes"/>
      <point x="221" y="559"/>
      <point x="204" y="576"/>
      <point x="183" y="576" type="curve" smooth="yes"/>
      <point x="162" y="576"/>
      <point x="145" y="559"/>
    </contour>
    <contour>
      <point x="118" y="538" type="curve" smooth="yes"/>
      <point x="118" y="574"/>
      <point x="147" y="603"/>
      <point x="183" y="603" type="curve" smooth="yes"/>
      <point x="218" y="603"/>
      <point x="247" y="574"/>
      <point x="247" y="538" type="curve" smooth="yes"/>
      <point x="247" y="502"/>
      <point x="218" y="473"/>
      <point x="183" y="473" type="curve" smooth="yes"/>
      <point x="147" y="473"/>
      <point x="118" y="502"/>
    </contour>
    <contour>
      <point x="31" y="213" type="curve" smooth="yes"/>
      <point x="31" y="323"/>
      <point x="95" y="381"/>
      <point x="170" y="422" type="curve" smooth="yes"/>
      <point x="223" y="450"/>
      <point x="252" y="472"/>
      <point x="299" y="517" type="curve" smooth="yes"/>
      <point x="339" y="558"/>
      <point x="359" y="625"/>
      <point x="400" y="625" type="curve" smooth="yes"/>
      <point x="420" y="625"/>
      <point x="431" y="614"/>
      <point x="431" y="600" type="curve" smooth="yes"/>
      <point x="431" y="580"/>
      <point x="409" y="554"/>
      <point x="360" y="513" type="curve" smooth="yes"/>
      <point x="327" y="486"/>
      <point x="292" y="461"/>
      <point x="247" y="436" type="curve"/>
      <point x="252" y="437"/>
      <point x="253" y="437"/>
      <point x="262" y="437" type="curve" smooth="yes"/>
      <point x="333" y="437"/>
      <point x="388" y="413"/>
      <point x="430" y="366" type="curve" smooth="yes"/>
      <point x="465" y="326"/>
      <point x="482" y="281"/>
      <point x="482" y="225" type="curve" smooth="yes"/>
      <point x="482" y="102"/>
      <point x="384" y="0"/>
      <point x="248" y="0" type="curve" smooth="yes"/>
      <point x="124" y="0"/>
      <point x="31" y="89"/>
    </contour>
    <contour>
      <point x="71" y="245" type="curve" smooth="yes"/>
      <point x="71" y="166"/>
      <point x="127" y="100"/>
      <point x="235" y="100" type="curve" smooth="yes"/>
      <point x="340" y="100"/>
      <point x="420" y="166"/>
      <point x="420" y="269" type="curve" smooth="yes"/>
      <point x="420" y="358"/>
      <point x="354" y="413"/>
      <point x="262" y="413" type="curve" smooth="yes"/>
      <point x="173" y="413"/>
      <point x="71" y="344"/>
    </contour>
  </outline>
</glyph>
<glyph name="uni0D8B" format="1">
  <advance width="651"/>
  <unicode hex="0D8B"/>
  <outline>
    <contour>
      <point x="32" y="99" type="curve" smooth="yes"/>
      <point x="32" y="210"/>
      <point x="121" y="296"/>
      <point x="264" y="296" type="curve" smooth="yes"/>
      <point x="506" y="296" type="line"/>
      <point x="503" y="346"/>
      <point x="459" y="387"/>
      <point x="411" y="387" type="curve" smooth="yes"/>
      <point x="387" y="387"/>
      <point x="367" y="377"/>
      <point x="353" y="354" type="curve" smooth="yes"/>
      <point x="345" y="342"/>
      <point x="334" y="326"/>
      <point x="308" y="326" type="curve" smooth="yes"/>
      <point x="282" y="326"/>
      <point x="267" y="345"/>
      <point x="267" y="365" type="curve" smooth="yes"/>
      <point x="267" y="410"/>
      <point x="313" y="432"/>
      <point x="376" y="432" type="curve" smooth="yes"/>
      <point x="469" y="432"/>
      <point x="539" y="370"/>
      <point x="539" y="276" type="curve" smooth="yes"/>
      <point x="539" y="274"/>
      <point x="539" y="272"/>
      <point x="539" y="270" type="curve"/>
      <point x="322" y="270" type="line" smooth="yes"/>
      <point x="198" y="270"/>
      <point x="141" y="207"/>
      <point x="141" y="113" type="curve" smooth="yes"/>
      <point x="141" y="-27"/>
      <point x="242" y="-116"/>
      <point x="363" y="-116" type="curve" smooth="yes"/>
      <point x="471" y="-116"/>
      <point x="573" y="-38"/>
      <point x="573" y="69" type="curve"/>
      <point x="603" y="69" type="line"/>
      <point x="603" y="-64"/>
      <point x="480" y="-161"/>
      <point x="328" y="-161" type="curve" smooth="yes"/>
      <point x="177" y="-161"/>
      <point x="32" y="-62"/>
    </contour>
  </outline>
</glyph>
<glyph name="si_vocalicRr" format="1">
  <advance width="1140"/>
  <unicode hex="0D8E"/>
  <outline>
    <contour>
      <point x="31" y="154" type="curve" smooth="yes"/>
      <point x="31" y="248"/>
      <point x="98" y="316"/>
      <point x="207" y="316" type="curve" smooth="yes"/>
      <point x="221" y="316"/>
      <point x="248" y="314"/>
      <point x="262" y="310" type="curve"/>
      <point x="262" y="312"/>
      <point x="262" y="311"/>
      <point x="262" y="313" type="curve" smooth="yes"/>
      <point x="262" y="357"/>
      <point x="229" y="393"/>
      <point x="195" y="393" type="curve" smooth="yes"/>
      <point x="155" y="393"/>
      <point x="145" y="370"/>
      <point x="140" y="354" type="curve" smooth="yes"/>
      <point x="133" y="335"/>
      <point x="122" y="322"/>
      <point x="99" y="322" type="curve" smooth="yes"/>
      <point x="81" y="322"/>
      <point x="62" y="333"/>
      <point x="62" y="359" type="curve" smooth="yes"/>
      <point x="62" y="405"/>
      <point x="112" y="432"/>
      <point x="167" y="432" type="curve" smooth="yes"/>
      <point x="255" y="432"/>
      <point x="293" y="369"/>
      <point x="293" y="296" type="curve" smooth="yes"/>
      <point x="293" y="293"/>
      <point x="293" y="287"/>
      <point x="293" y="281" type="curve"/>
      <point x="270" y="285"/>
      <point x="237" y="290"/>
      <point x="208" y="290" type="curve" smooth="yes"/>
      <point x="144" y="290"/>
      <point x="81" y="260"/>
      <point x="81" y="191" type="curve" smooth="yes"/>
      <point x="81" y="141"/>
      <point x="126" y="99"/>
      <point x="197" y="99" type="curve" smooth="yes"/>
      <point x="253" y="99"/>
      <point x="301" y="125"/>
      <point x="301" y="171" type="curve" smooth="yes"/>
      <point x="301" y="195" type="line"/>
      <point x="328" y="195" type="line"/>
      <point x="328" y="171" type="line" smooth="yes"/>
      <point x="328" y="121"/>
      <point x="378" y="99"/>
      <point x="440" y="99" type="curve" smooth="yes"/>
      <point x="510" y="99"/>
      <point x="559" y="137"/>
      <point x="559" y="192" type="curve" smooth="yes"/>
      <point x="559" y="253"/>
      <point x="513" y="290"/>
      <point x="431" y="290" type="curve" smooth="yes"/>
      <point x="399" y="290"/>
      <point x="371" y="288"/>
      <point x="333" y="281" type="curve"/>
      <point x="333" y="285"/>
      <point x="333" y="287"/>
      <point x="333" y="291" type="curve" smooth="yes"/>
      <point x="333" y="375"/>
      <point x="381" y="432"/>
      <point x="456" y="432" type="curve" smooth="yes"/>
      <point x="510" y="432"/>
      <point x="559" y="408"/>
      <point x="559" y="350" type="curve" smooth="yes"/>
      <point x="559" y="329"/>
      <point x="544" y="306"/>
      <point x="530" y="297" type="curve"/>
      <point x="578" y="275"/>
      <point x="608" y="221"/>
      <point x="608" y="166" type="curve" smooth="yes"/>
      <point x="608" y="58"/>
      <point x="538" y="0"/>
      <point x="440" y="0" type="curve" smooth="yes"/>
      <point x="375" y="0"/>
      <point x="332" y="31"/>
      <point x="313" y="82" type="curve"/>
      <point x="292" y="30"/>
      <point x="251" y="-1"/>
      <point x="183" y="-1" type="curve" smooth="yes"/>
      <point x="88" y="-1"/>
      <point x="31" y="76"/>
    </contour>
    <contour>
      <point x="363" y="310" type="curve"/>
      <point x="374" y="313"/>
      <point x="401" y="316"/>
      <point x="425" y="316" type="curve" smooth="yes"/>
      <point x="459" y="316"/>
      <point x="482" y="313"/>
      <point x="504" y="306" type="curve"/>
      <point x="515" y="318"/>
      <point x="518" y="332"/>
      <point x="518" y="344" type="curve" smooth="yes"/>
      <point x="518" y="376"/>
      <point x="486" y="390"/>
      <point x="450" y="390" type="curve" smooth="yes"/>
      <point x="398" y="390"/>
      <point x="368" y="361"/>
    </contour>
    <component base="si_MatraR" xOffset="832"/>
    <component base="si_MatraR" xOffset="584"/>
  </outline>
</glyph>
<glyph name="uni0D8F" format="1">
  <advance width="820"/>
  <unicode hex="0D8F"/>
  <outline>
    <contour>
      <point x="640" y="53" type="curve" smooth="yes"/>
      <point x="640" y="39"/>
      <point x="651" y="28"/>
      <point x="665" y="28" type="curve" smooth="yes"/>
      <point x="679" y="28"/>
      <point x="690" y="39"/>
      <point x="690" y="53" type="curve" smooth="yes"/>
      <point x="690" y="67"/>
      <point x="679" y="78"/>
      <point x="665" y="78" type="curve" smooth="yes"/>
      <point x="651" y="78"/>
      <point x="640" y="67"/>
    </contour>
    <contour>
      <point x="582" y="445" type="curve" smooth="yes"/>
      <point x="582" y="467"/>
      <point x="598" y="481"/>
      <point x="630" y="481" type="curve" smooth="yes"/>
      <point x="717" y="481"/>
      <point x="773" y="378"/>
      <point x="773" y="240" type="curve" smooth="yes"/>
      <point x="773" y="147"/>
      <point x="742" y="1"/>
      <point x="666" y="1" type="curve" smooth="yes"/>
      <point x="636" y="1"/>
      <point x="614" y="23"/>
      <point x="614" y="53" type="curve" smooth="yes"/>
      <point x="614" y="79"/>
      <point x="633" y="105"/>
      <point x="666" y="105" type="curve" smooth="yes"/>
      <point x="683" y="105"/>
      <point x="700" y="98"/>
      <point x="710" y="79" type="curve"/>
      <point x="731" y="114"/>
      <point x="742" y="188"/>
      <point x="742" y="240" type="curve" smooth="yes"/>
      <point x="742" y="349"/>
      <point x="702" y="451"/>
      <point x="634" y="451" type="curve" smooth="yes"/>
      <point x="625" y="451"/>
      <point x="613" y="449"/>
      <point x="613" y="434" type="curve" smooth="yes"/>
      <point x="613" y="422"/>
      <point x="618" y="409"/>
      <point x="630" y="392" type="curve"/>
      <point x="617" y="401"/>
      <point x="597" y="420"/>
      <point x="589" y="423" type="curve"/>
      <point x="584" y="430"/>
      <point x="582" y="440"/>
    </contour>
    <contour>
      <point x="114" y="53" type="curve" smooth="yes"/>
      <point x="114" y="39"/>
      <point x="125" y="28"/>
      <point x="139" y="28" type="curve" smooth="yes"/>
      <point x="153" y="28"/>
      <point x="164" y="39"/>
      <point x="164" y="53" type="curve" smooth="yes"/>
      <point x="164" y="67"/>
      <point x="153" y="78"/>
      <point x="139" y="78" type="curve" smooth="yes"/>
      <point x="125" y="78"/>
      <point x="114" y="67"/>
    </contour>
    <contour>
      <point x="31" y="240" type="curve" smooth="yes"/>
      <point x="31" y="378"/>
      <point x="87" y="481"/>
      <point x="174" y="481" type="curve" smooth="yes"/>
      <point x="206" y="481"/>
      <point x="222" y="467"/>
      <point x="222" y="445" type="curve" smooth="yes"/>
      <point x="222" y="440"/>
      <point x="221" y="433"/>
      <point x="216" y="426" type="curve"/>
      <point x="208" y="423"/>
      <point x="186" y="413"/>
      <point x="173" y="404" type="curve"/>
      <point x="182" y="414"/>
      <point x="191" y="424"/>
      <point x="191" y="436" type="curve" smooth="yes"/>
      <point x="191" y="448"/>
      <point x="179" y="451"/>
      <point x="170" y="451" type="curve" smooth="yes"/>
      <point x="102" y="451"/>
      <point x="62" y="349"/>
      <point x="62" y="240" type="curve" smooth="yes"/>
      <point x="62" y="188"/>
      <point x="73" y="114"/>
      <point x="94" y="79" type="curve"/>
      <point x="104" y="98"/>
      <point x="121" y="105"/>
      <point x="138" y="105" type="curve" smooth="yes"/>
      <point x="171" y="105"/>
      <point x="190" y="79"/>
      <point x="190" y="53" type="curve" smooth="yes"/>
      <point x="190" y="23"/>
      <point x="168" y="1"/>
      <point x="138" y="1" type="curve" smooth="yes"/>
      <point x="62" y="1"/>
      <point x="31" y="147"/>
    </contour>
    <contour>
      <point x="133" y="184" type="curve" smooth="yes"/>
      <point x="133" y="275"/>
      <point x="201" y="327"/>
      <point x="308" y="327" type="curve" smooth="yes"/>
      <point x="321" y="327"/>
      <point x="332" y="326"/>
      <point x="344" y="325" type="curve"/>
      <point x="345" y="329"/>
      <point x="345" y="332"/>
      <point x="345" y="336" type="curve" smooth="yes"/>
      <point x="345" y="375"/>
      <point x="320" y="393"/>
      <point x="291" y="393" type="curve" smooth="yes"/>
      <point x="261" y="393"/>
      <point x="248" y="378"/>
      <point x="243" y="359" type="curve" smooth="yes"/>
      <point x="238" y="343"/>
      <point x="224" y="327"/>
      <point x="196" y="327" type="curve" smooth="yes"/>
      <point x="176" y="327"/>
      <point x="157" y="339"/>
      <point x="157" y="366" type="curve" smooth="yes"/>
      <point x="157" y="409"/>
      <point x="204" y="434"/>
      <point x="260" y="434" type="curve" smooth="yes"/>
      <point x="332" y="434"/>
      <point x="376" y="401"/>
      <point x="376" y="334" type="curve" smooth="yes"/>
      <point x="376" y="323"/>
      <point x="375" y="310"/>
      <point x="372" y="297" type="curve"/>
      <point x="355" y="299"/>
      <point x="320" y="301"/>
      <point x="318" y="301" type="curve" smooth="yes"/>
      <point x="243" y="301"/>
      <point x="181" y="275"/>
      <point x="181" y="213" type="curve" smooth="yes"/>
      <point x="181" y="128"/>
      <point x="299" y="99"/>
      <point x="408" y="99" type="curve" smooth="yes"/>
      <point x="511" y="99"/>
      <point x="627" y="133"/>
      <point x="627" y="219" type="curve" smooth="yes"/>
      <point x="627" y="277"/>
      <point x="571" y="303"/>
      <point x="495" y="303" type="curve" smooth="yes"/>
      <point x="472" y="303"/>
      <point x="448" y="300"/>
      <point x="425" y="296" type="curve"/>
      <point x="424" y="307"/>
      <point x="423" y="318"/>
      <point x="423" y="328" type="curve" smooth="yes"/>
      <point x="423" y="397"/>
      <point x="467" y="433"/>
      <point x="540" y="433" type="curve" smooth="yes"/>
      <point x="606" y="433"/>
      <point x="643" y="393"/>
      <point x="643" y="354" type="curve" smooth="yes"/>
      <point x="643" y="334"/>
      <point x="634" y="317"/>
      <point x="615" y="303" type="curve"/>
      <point x="656" y="279"/>
      <point x="676" y="241"/>
      <point x="676" y="186" type="curve" smooth="yes"/>
      <point x="676" y="56"/>
      <point x="549" y="0"/>
      <point x="408" y="0" type="curve" smooth="yes"/>
      <point x="260" y="0"/>
      <point x="133" y="46"/>
    </contour>
    <contour>
      <point x="456" y="336" type="curve" smooth="yes"/>
      <point x="456" y="332"/>
      <point x="456" y="329"/>
      <point x="456" y="325" type="curve"/>
      <point x="473" y="327"/>
      <point x="489" y="328"/>
      <point x="504" y="328" type="curve" smooth="yes"/>
      <point x="537" y="328"/>
      <point x="565" y="324"/>
      <point x="589" y="315" type="curve"/>
      <point x="601" y="326"/>
      <point x="606" y="338"/>
      <point x="606" y="351" type="curve" smooth="yes"/>
      <point x="606" y="380"/>
      <point x="580" y="404"/>
      <point x="533" y="404" type="curve" smooth="yes"/>
      <point x="490" y="404"/>
      <point x="456" y="381"/>
    </contour>
  </outline>
</glyph>
<glyph name="uni0D91" format="1">
  <advance width="595"/>
  <unicode hex="0D91"/>
  <outline>
    <contour>
      <point x="45" y="165" type="curve" smooth="yes"/>
      <point x="45" y="196"/>
      <point x="55" y="228"/>
      <point x="78" y="248" type="curve" smooth="yes"/>
      <point x="94" y="262"/>
      <point x="113" y="273"/>
      <point x="139" y="278" type="curve"/>
      <point x="173" y="290"/>
      <point x="214" y="302"/>
      <point x="251" y="302" type="curve" smooth="yes"/>
      <point x="262" y="302" type="line"/>
      <point x="262" y="304"/>
      <point x="262" y="306"/>
      <point x="262" y="308" type="curve" smooth="yes"/>
      <point x="262" y="356"/>
      <point x="229" y="393"/>
      <point x="192" y="393" type="curve" smooth="yes"/>
      <point x="159" y="393"/>
      <point x="147" y="373"/>
      <point x="142" y="356" type="curve" smooth="yes"/>
      <point x="136" y="334"/>
      <point x="125" y="322"/>
      <point x="101" y="322" type="curve" smooth="yes"/>
      <point x="85" y="322"/>
      <point x="64" y="333"/>
      <point x="64" y="360" type="curve" smooth="yes"/>
      <point x="64" y="404"/>
      <point x="110" y="432"/>
      <point x="167" y="432" type="curve" smooth="yes"/>
      <point x="255" y="432"/>
      <point x="295" y="363"/>
      <point x="295" y="290" type="curve" smooth="yes"/>
      <point x="295" y="287"/>
      <point x="295" y="279"/>
      <point x="295" y="276" type="curve"/>
      <point x="232" y="276" type="line" smooth="yes"/>
      <point x="188" y="276"/>
      <point x="152" y="266"/>
      <point x="127" y="251" type="curve" smooth="yes"/>
      <point x="105" y="237"/>
      <point x="93" y="215"/>
      <point x="93" y="191" type="curve" smooth="yes"/>
      <point x="93" y="117"/>
      <point x="193" y="99"/>
      <point x="279" y="99" type="curve" smooth="yes"/>
      <point x="432" y="99"/>
      <point x="506" y="174"/>
      <point x="506" y="281" type="curve" smooth="yes"/>
      <point x="506" y="335"/>
      <point x="491" y="381"/>
      <point x="471" y="411" type="curve"/>
      <point x="456" y="379"/>
      <point x="426" y="359"/>
      <point x="383" y="359" type="curve" smooth="yes"/>
      <point x="320" y="359"/>
      <point x="283" y="414"/>
      <point x="283" y="480" type="curve" smooth="yes"/>
      <point x="283" y="530"/>
      <point x="298" y="566"/>
      <point x="325" y="597" type="curve"/>
      <point x="386" y="564"/>
      <point x="457" y="492"/>
      <point x="493" y="430" type="curve" smooth="yes"/>
      <point x="532" y="363"/>
      <point x="545" y="315"/>
      <point x="545" y="245" type="curve" smooth="yes"/>
      <point x="545" y="117"/>
      <point x="459" y="0"/>
      <point x="276" y="0" type="curve" smooth="yes"/>
      <point x="155" y="0"/>
      <point x="45" y="46"/>
    </contour>
    <contour>
      <point x="16" y="269" type="curve"/>
      <point x="16" y="302" type="line"/>
      <point x="260" y="302" type="line"/>
      <point x="291" y="276" type="line"/>
      <point x="129" y="276" type="line" smooth="yes"/>
      <point x="58" y="275"/>
      <point x="32" y="272"/>
    </contour>
    <contour>
      <point x="315" y="486" type="curve" smooth="yes"/>
      <point x="315" y="437"/>
      <point x="340" y="400"/>
      <point x="392" y="400" type="curve" smooth="yes"/>
      <point x="414" y="400"/>
      <point x="441" y="410"/>
      <point x="451" y="440" type="curve"/>
      <point x="421" y="486"/>
      <point x="372" y="531"/>
      <point x="334" y="559" type="curve"/>
      <point x="324" y="541"/>
      <point x="315" y="519"/>
    </contour>
  </outline>
</glyph>
<glyph name="si_Ee" format="1">
  <advance width="595"/>
  <unicode hex="0D92"/>
  <outline>
    <contour>
      <point x="440" y="444" type="line"/>
      <point x="440" y="694" type="line"/>
      <point x="495" y="650"/>
      <point x="594" y="649"/>
      <point x="594" y="555" type="curve" smooth="yes"/>
      <point x="594" y="512"/>
      <point x="561" y="483"/>
      <point x="514" y="483" type="curve" smooth="yes"/>
      <point x="499" y="483"/>
      <point x="484" y="486"/>
      <point x="469" y="492" type="curve"/>
      <point x="469" y="427" type="line"/>
    </contour>
    <contour>
      <point x="469" y="516" type="line"/>
      <point x="478" y="512"/>
      <point x="488" y="509"/>
      <point x="501" y="509" type="curve" smooth="yes"/>
      <point x="540" y="509"/>
      <point x="552" y="534"/>
      <point x="552" y="557" type="curve" smooth="yes"/>
      <point x="552" y="599"/>
      <point x="521" y="618"/>
      <point x="469" y="649" type="curve"/>
    </contour>
    <contour>
      <point x="45" y="165" type="curve" smooth="yes"/>
      <point x="45" y="196"/>
      <point x="55" y="228"/>
      <point x="78" y="248" type="curve" smooth="yes"/>
      <point x="94" y="262"/>
      <point x="113" y="273"/>
      <point x="139" y="278" type="curve"/>
      <point x="173" y="290"/>
      <point x="208" y="302"/>
      <point x="245" y="302" type="curve" smooth="yes"/>
      <point x="256" y="302" type="line"/>
      <point x="256" y="304"/>
      <point x="256" y="306"/>
      <point x="256" y="308" type="curve" smooth="yes"/>
      <point x="256" y="348"/>
      <point x="231" y="387"/>
      <point x="194" y="387" type="curve" smooth="yes"/>
      <point x="161" y="387"/>
      <point x="148" y="365"/>
      <point x="142" y="349" type="curve" smooth="yes"/>
      <point x="135" y="328"/>
      <point x="125" y="316"/>
      <point x="101" y="316" type="curve" smooth="yes"/>
      <point x="84" y="316"/>
      <point x="64" y="327"/>
      <point x="64" y="353" type="curve" smooth="yes"/>
      <point x="64" y="400"/>
      <point x="112" y="426"/>
      <point x="167" y="426" type="curve" smooth="yes"/>
      <point x="255" y="426"/>
      <point x="289" y="357"/>
      <point x="289" y="290" type="curve" smooth="yes"/>
      <point x="289" y="287"/>
      <point x="289" y="279"/>
      <point x="289" y="276" type="curve"/>
      <point x="232" y="276" type="line" smooth="yes"/>
      <point x="188" y="276"/>
      <point x="152" y="266"/>
      <point x="127" y="251" type="curve" smooth="yes"/>
      <point x="105" y="237"/>
      <point x="93" y="215"/>
      <point x="93" y="191" type="curve" smooth="yes"/>
      <point x="93" y="117"/>
      <point x="193" y="99"/>
      <point x="279" y="99" type="curve" smooth="yes"/>
      <point x="432" y="99"/>
      <point x="506" y="176"/>
      <point x="506" y="278" type="curve" smooth="yes"/>
      <point x="506" y="332"/>
      <point x="491" y="363"/>
      <point x="471" y="393" type="curve"/>
      <point x="456" y="361"/>
      <point x="426" y="341"/>
      <point x="383" y="341" type="curve" smooth="yes"/>
      <point x="320" y="341"/>
      <point x="283" y="396"/>
      <point x="283" y="462" type="curve" smooth="yes"/>
      <point x="283" y="512"/>
      <point x="298" y="548"/>
      <point x="325" y="579" type="curve"/>
      <point x="386" y="546"/>
      <point x="455" y="473"/>
      <point x="493" y="412" type="curve" smooth="yes"/>
      <point x="530" y="351"/>
      <point x="545" y="311"/>
      <point x="545" y="241" type="curve" smooth="yes"/>
      <point x="545" y="118"/>
      <point x="459" y="0"/>
      <point x="276" y="0" type="curve" smooth="yes"/>
      <point x="155" y="0"/>
      <point x="45" y="46"/>
    </contour>
    <contour>
      <point x="16" y="269" type="curve"/>
      <point x="16" y="302" type="line"/>
      <point x="254" y="302" type="line"/>
      <point x="285" y="276" type="line"/>
      <point x="129" y="276" type="line" smooth="yes"/>
      <point x="58" y="275"/>
      <point x="32" y="272"/>
    </contour>
    <contour>
      <point x="315" y="468" type="curve" smooth="yes"/>
      <point x="315" y="419"/>
      <point x="340" y="382"/>
      <point x="392" y="382" type="curve" smooth="yes"/>
      <point x="414" y="382"/>
      <point x="441" y="392"/>
      <point x="451" y="422" type="curve"/>
      <point x="421" y="468"/>
      <point x="372" y="513"/>
      <point x="334" y="541" type="curve"/>
      <point x="324" y="523"/>
      <point x="315" y="501"/>
    </contour>
  </outline>
</glyph>
<glyph name="si_Os" format="1">
  <advance width="636"/>
  <unicode hex="0D94"/>
  <outline>
    <contour>
      <point x="274" y="362" type="curve" smooth="yes"/>
      <point x="274" y="337"/>
      <point x="295" y="316"/>
      <point x="321" y="316" type="curve" smooth="yes"/>
      <point x="347" y="316"/>
      <point x="368" y="337"/>
      <point x="368" y="362" type="curve" smooth="yes"/>
      <point x="368" y="388"/>
      <point x="347" y="409"/>
      <point x="321" y="409" type="curve" smooth="yes"/>
      <point x="295" y="409"/>
      <point x="274" y="388"/>
    </contour>
    <contour>
      <point x="30" y="224" type="curve" smooth="yes"/>
      <point x="30" y="332"/>
      <point x="74" y="432"/>
      <point x="148" y="432" type="curve" smooth="yes"/>
      <point x="167" y="432"/>
      <point x="174" y="428"/>
      <point x="181" y="423" type="curve" smooth="yes"/>
      <point x="192" y="415"/>
      <point x="200" y="401"/>
      <point x="200" y="371" type="curve" smooth="yes"/>
      <point x="200" y="357"/>
      <point x="200" y="340"/>
      <point x="200" y="337" type="curve" smooth="yes"/>
      <point x="200" y="284"/>
      <point x="240" y="254"/>
      <point x="295" y="254" type="curve" smooth="yes"/>
      <point x="348" y="254"/>
      <point x="389" y="281"/>
      <point x="389" y="326" type="curve" smooth="yes"/>
      <point x="389" y="327"/>
      <point x="389" y="329"/>
      <point x="388" y="331" type="curve"/>
      <point x="382" y="317"/>
      <point x="360" y="287"/>
      <point x="318" y="287" type="curve" smooth="yes"/>
      <point x="271" y="287"/>
      <point x="244" y="323"/>
      <point x="244" y="360" type="curve" smooth="yes"/>
      <point x="244" y="402"/>
      <point x="276" y="434"/>
      <point x="322" y="434" type="curve" smooth="yes"/>
      <point x="382" y="434"/>
      <point x="419" y="389"/>
      <point x="419" y="330" type="curve" smooth="yes"/>
      <point x="419" y="267"/>
      <point x="367" y="224"/>
      <point x="296" y="224" type="curve" smooth="yes"/>
      <point x="224" y="224"/>
      <point x="171" y="266"/>
      <point x="171" y="339" type="curve" smooth="yes"/>
      <point x="171" y="344"/>
      <point x="171" y="363"/>
      <point x="171" y="372" type="curve" smooth="yes"/>
      <point x="171" y="392"/>
      <point x="166" y="405"/>
      <point x="145" y="405" type="curve" smooth="yes"/>
      <point x="96" y="405"/>
      <point x="66" y="328"/>
      <point x="66" y="264" type="curve" smooth="yes"/>
      <point x="66" y="170"/>
      <point x="120" y="98"/>
      <point x="201" y="98" type="curve" smooth="yes"/>
      <point x="273" y="98"/>
      <point x="292" y="134"/>
      <point x="292" y="167" type="curve" smooth="yes"/>
      <point x="292" y="184" type="line"/>
      <point x="318" y="184" type="line"/>
      <point x="318" y="166" type="line" smooth="yes"/>
      <point x="318" y="127"/>
      <point x="350" y="99"/>
      <point x="407" y="99" type="curve" smooth="yes"/>
      <point x="503" y="99"/>
      <point x="545" y="202"/>
      <point x="545" y="301" type="curve" smooth="yes"/>
      <point x="545" y="435"/>
      <point x="458" y="554"/>
      <point x="298" y="554" type="curve" smooth="yes"/>
      <point x="199" y="554"/>
      <point x="140" y="524"/>
      <point x="94" y="466" type="curve"/>
      <point x="62" y="466" type="line"/>
      <point x="107" y="531"/>
      <point x="174" y="578"/>
      <point x="301" y="578" type="curve" smooth="yes"/>
      <point x="487" y="578"/>
      <point x="590" y="431"/>
      <point x="590" y="254" type="curve" smooth="yes"/>
      <point x="590" y="127"/>
      <point x="543" y="0"/>
      <point x="406" y="0" type="curve" smooth="yes"/>
      <point x="365" y="0"/>
      <point x="321" y="16"/>
      <point x="305" y="55" type="curve"/>
      <point x="283" y="15"/>
      <point x="246" y="0"/>
      <point x="196" y="0" type="curve" smooth="yes"/>
      <point x="78" y="0"/>
      <point x="30" y="127"/>
    </contour>
  </outline>
</glyph>
<glyph name="uni0D9A" format="1">
  <advance width="746"/>
  <unicode hex="0D9A"/>
  <outline>
    <contour>
      <point x="21" y="22" type="line"/>
      <point x="29" y="91"/>
      <point x="74" y="184"/>
      <point x="109" y="232" type="curve" smooth="yes"/>
      <point x="135" y="268"/>
      <point x="149" y="281"/>
      <point x="169" y="302" type="curve"/>
      <point x="180" y="314"/>
      <point x="193" y="330"/>
      <point x="193" y="352" type="curve" smooth="yes"/>
      <point x="193" y="373"/>
      <point x="183" y="390"/>
      <point x="158" y="390" type="curve" smooth="yes"/>
      <point x="144" y="390"/>
      <point x="124" y="382"/>
      <point x="119" y="363" type="curve" smooth="yes"/>
      <point x="113" y="341"/>
      <point x="117" y="341"/>
      <point x="109" y="323" type="curve" smooth="yes"/>
      <point x="101" y="305"/>
      <point x="85" y="297"/>
      <point x="70" y="297" type="curve" smooth="yes"/>
      <point x="35" y="297"/>
      <point x="29" y="328"/>
      <point x="29" y="340" type="curve" smooth="yes"/>
      <point x="29" y="394"/>
      <point x="79" y="433"/>
      <point x="136" y="433" type="curve" smooth="yes"/>
      <point x="187" y="433"/>
      <point x="220" y="401"/>
      <point x="220" y="357" type="curve" smooth="yes"/>
      <point x="220" y="351"/>
      <point x="220" y="347"/>
      <point x="219" y="341" type="curve"/>
      <point x="280" y="399"/>
      <point x="366" y="434"/>
      <point x="453" y="434" type="curve" smooth="yes"/>
      <point x="603" y="434"/>
      <point x="701" y="328"/>
      <point x="701" y="192" type="curve" smooth="yes"/>
      <point x="701" y="110"/>
      <point x="659" y="-1"/>
      <point x="555" y="-1" type="curve" smooth="yes"/>
      <point x="541" y="-1"/>
      <point x="519" y="2"/>
      <point x="505" y="11" type="curve"/>
      <point x="505" y="39" type="line"/>
      <point x="517" y="32"/>
      <point x="532" y="28"/>
      <point x="551" y="28" type="curve" smooth="yes"/>
      <point x="598" y="28"/>
      <point x="628" y="79"/>
      <point x="628" y="141" type="curve" smooth="yes"/>
      <point x="628" y="286"/>
      <point x="507" y="360"/>
      <point x="383" y="360" type="curve" smooth="yes"/>
      <point x="313" y="360"/>
      <point x="257" y="341"/>
      <point x="217" y="306" type="curve"/>
      <point x="243" y="313"/>
      <point x="276" y="315"/>
      <point x="303" y="315" type="curve" smooth="yes"/>
      <point x="423" y="315"/>
      <point x="515" y="251"/>
      <point x="515" y="126" type="curve" smooth="yes"/>
      <point x="515" y="68"/>
      <point x="482" y="-1"/>
      <point x="397" y="-1" type="curve" smooth="yes"/>
      <point x="351" y="-1"/>
      <point x="317" y="20"/>
      <point x="296" y="63" type="curve"/>
      <point x="279" y="22"/>
      <point x="246" y="-1"/>
      <point x="204" y="-1" type="curve" smooth="yes"/>
      <point x="117" y="-1"/>
      <point x="120" y="73"/>
      <point x="87" y="73" type="curve" smooth="yes"/>
      <point x="65" y="73"/>
      <point x="51" y="51"/>
      <point x="48" y="11" type="curve"/>
    </contour>
    <contour>
      <point x="79" y="115" type="curve"/>
      <point x="87" y="121"/>
      <point x="96" y="125"/>
      <point x="106" y="125" type="curve" smooth="yes"/>
      <point x="136" y="125"/>
      <point x="154" y="99"/>
      <point x="204" y="99" type="curve" smooth="yes"/>
      <point x="253" y="99"/>
      <point x="281" y="125"/>
      <point x="281" y="183" type="curve" smooth="yes"/>
      <point x="281" y="185"/>
      <point x="281" y="183"/>
      <point x="281" y="185" type="curve"/>
      <point x="307" y="185" type="line"/>
      <point x="307" y="184"/>
      <point x="307" y="185"/>
      <point x="307" y="184" type="curve" smooth="yes"/>
      <point x="307" y="121"/>
      <point x="333" y="99"/>
      <point x="386" y="99" type="curve" smooth="yes"/>
      <point x="439" y="99"/>
      <point x="461" y="142"/>
      <point x="461" y="178" type="curve" smooth="yes"/>
      <point x="461" y="244"/>
      <point x="401" y="289"/>
      <point x="299" y="289" type="curve" smooth="yes"/>
      <point x="242" y="289"/>
      <point x="204" y="281"/>
      <point x="181" y="271" type="curve"/>
      <point x="164" y="256"/>
      <point x="146" y="235"/>
      <point x="130" y="212" type="curve" smooth="yes"/>
      <point x="102" y="171"/>
      <point x="89" y="145"/>
    </contour>
  </outline>
</glyph>
<glyph name="uni0D9C" format="1">
  <advance width="636"/>
  <unicode hex="0D9C"/>
  <outline>
    <contour>
      <point x="34" y="207" type="curve" smooth="yes"/>
      <point x="34" y="330"/>
      <point x="109" y="432"/>
      <point x="220" y="432" type="curve" smooth="yes"/>
      <point x="224" y="432"/>
      <point x="229" y="431"/>
      <point x="233" y="431" type="curve"/>
      <point x="233" y="407" type="line"/>
      <point x="230" y="407"/>
      <point x="225" y="407"/>
      <point x="222" y="407" type="curve" smooth="yes"/>
      <point x="137" y="407"/>
      <point x="77" y="331"/>
      <point x="77" y="242" type="curve" smooth="yes"/>
      <point x="77" y="163"/>
      <point x="127" y="99"/>
      <point x="208" y="99" type="curve" smooth="yes"/>
      <point x="267" y="99"/>
      <point x="308" y="126"/>
      <point x="308" y="172" type="curve" smooth="yes"/>
      <point x="308" y="204"/>
      <point x="289" y="218"/>
      <point x="268" y="218" type="curve" smooth="yes"/>
      <point x="259" y="218"/>
      <point x="250" y="216"/>
      <point x="244" y="212" type="curve"/>
      <point x="243" y="206"/>
      <point x="242" y="196"/>
      <point x="242" y="193" type="curve"/>
      <point x="216" y="193" type="line"/>
      <point x="226" y="319"/>
      <point x="288" y="432"/>
      <point x="410" y="432" type="curve" smooth="yes"/>
      <point x="522" y="432"/>
      <point x="586" y="332"/>
      <point x="586" y="217" type="curve" smooth="yes"/>
      <point x="586" y="95"/>
      <point x="500" y="-1"/>
      <point x="369" y="-1" type="curve" smooth="yes"/>
      <point x="359" y="-1"/>
      <point x="349" y="0"/>
      <point x="338" y="1" type="curve"/>
      <point x="338" y="27" type="line"/>
      <point x="346" y="26"/>
      <point x="354" y="25"/>
      <point x="362" y="25" type="curve" smooth="yes"/>
      <point x="468" y="25"/>
      <point x="524" y="104"/>
      <point x="524" y="190" type="curve" smooth="yes"/>
      <point x="524" y="282"/>
      <point x="475" y="350"/>
      <point x="381" y="350" type="curve" smooth="yes"/>
      <point x="306" y="350"/>
      <point x="261" y="298"/>
      <point x="248" y="238" type="curve"/>
      <point x="255" y="242"/>
      <point x="263" y="243"/>
      <point x="270" y="243" type="curve" smooth="yes"/>
      <point x="319" y="243"/>
      <point x="352" y="202"/>
      <point x="352" y="136" type="curve" smooth="yes"/>
      <point x="352" y="56"/>
      <point x="295" y="-2"/>
      <point x="208" y="-2" type="curve" smooth="yes"/>
      <point x="97" y="-2"/>
      <point x="34" y="96"/>
    </contour>
  </outline>
</glyph>
<glyph name="uni0D9D" format="1">
  <advance width="677"/>
  <unicode hex="0D9D"/>
  <outline>
    <contour>
      <point x="51" y="154" type="curve" smooth="yes"/>
      <point x="51" y="226"/>
      <point x="92" y="268"/>
      <point x="144" y="284" type="curve"/>
      <point x="178" y="296"/>
      <point x="232" y="308"/>
      <point x="269" y="308" type="curve" smooth="yes"/>
      <point x="280" y="308" type="line"/>
      <point x="280" y="310"/>
      <point x="280" y="310"/>
      <point x="280" y="312" type="curve" smooth="yes"/>
      <point x="280" y="358"/>
      <point x="249" y="392"/>
      <point x="212" y="392" type="curve" smooth="yes"/>
      <point x="180" y="392"/>
      <point x="168" y="373"/>
      <point x="161" y="355" type="curve" smooth="yes"/>
      <point x="155" y="335"/>
      <point x="143" y="322"/>
      <point x="119" y="322" type="curve" smooth="yes"/>
      <point x="100" y="322"/>
      <point x="82" y="333"/>
      <point x="82" y="359" type="curve" smooth="yes"/>
      <point x="82" y="406"/>
      <point x="132" y="432"/>
      <point x="187" y="432" type="curve" smooth="yes"/>
      <point x="275" y="432"/>
      <point x="313" y="369"/>
      <point x="313" y="295" type="curve" smooth="yes"/>
      <point x="313" y="292"/>
      <point x="313" y="285"/>
      <point x="313" y="282" type="curve"/>
      <point x="219" y="282" type="line" smooth="yes"/>
      <point x="163" y="282"/>
      <point x="98" y="247"/>
      <point x="98" y="186" type="curve" smooth="yes"/>
      <point x="98" y="133"/>
      <point x="144" y="99"/>
      <point x="200" y="99" type="curve" smooth="yes"/>
      <point x="222" y="99"/>
      <point x="238" y="101"/>
      <point x="243" y="106" type="curve"/>
      <point x="242" y="115"/>
      <point x="242" y="125"/>
      <point x="243" y="134" type="curve" smooth="yes"/>
      <point x="248" y="193"/>
      <point x="293" y="213"/>
      <point x="332" y="213" type="curve" smooth="yes"/>
      <point x="371" y="213"/>
      <point x="416" y="193"/>
      <point x="421" y="134" type="curve" smooth="yes"/>
      <point x="422" y="125"/>
      <point x="422" y="115"/>
      <point x="421" y="106" type="curve"/>
      <point x="426" y="101"/>
      <point x="442" y="99"/>
      <point x="464" y="99" type="curve" smooth="yes"/>
      <point x="523" y="99"/>
      <point x="583" y="131"/>
      <point x="583" y="193" type="curve" smooth="yes"/>
      <point x="583" y="249"/>
      <point x="539" y="290"/>
      <point x="448" y="290" type="curve" smooth="yes"/>
      <point x="412" y="290"/>
      <point x="386" y="288"/>
      <point x="353" y="281" type="curve"/>
      <point x="353" y="285"/>
      <point x="353" y="287"/>
      <point x="353" y="291" type="curve" smooth="yes"/>
      <point x="353" y="375"/>
      <point x="401" y="432"/>
      <point x="477" y="432" type="curve" smooth="yes"/>
      <point x="531" y="432"/>
      <point x="579" y="407"/>
      <point x="579" y="350" type="curve" smooth="yes"/>
      <point x="579" y="329"/>
      <point x="567" y="307"/>
      <point x="550" y="297" type="curve"/>
      <point x="597" y="274"/>
      <point x="628" y="221"/>
      <point x="628" y="166" type="curve" smooth="yes"/>
      <point x="628" y="58"/>
      <point x="557" y="-1"/>
      <point x="465" y="-1" type="curve" smooth="yes"/>
      <point x="444" y="-1"/>
      <point x="416" y="3"/>
      <point x="385" y="11" type="curve"/>
      <point x="382" y="17"/>
      <point x="381" y="33"/>
      <point x="381" y="40" type="curve" smooth="yes"/>
      <point x="381" y="75"/>
      <point x="392" y="81"/>
      <point x="392" y="118" type="curve" smooth="yes"/>
      <point x="392" y="160"/>
      <point x="365" y="183"/>
      <point x="332" y="183" type="curve" smooth="yes"/>
      <point x="299" y="183"/>
      <point x="272" y="160"/>
      <point x="272" y="118" type="curve" smooth="yes"/>
      <point x="272" y="81"/>
      <point x="283" y="75"/>
      <point x="283" y="40" type="curve" smooth="yes"/>
      <point x="283" y="33"/>
      <point x="282" y="17"/>
      <point x="279" y="11" type="curve"/>
      <point x="248" y="3"/>
      <point x="220" y="-1"/>
      <point x="199" y="-1" type="curve" smooth="yes"/>
      <point x="108" y="-1"/>
      <point x="51" y="76"/>
    </contour>
    <contour>
      <point x="5" y="275" type="curve"/>
      <point x="5" y="308" type="line"/>
      <point x="278" y="308" type="line"/>
      <point x="309" y="282" type="line"/>
      <point x="147" y="282" type="line" smooth="yes"/>
      <point x="76" y="281"/>
      <point x="21" y="278"/>
    </contour>
    <contour>
      <point x="383" y="310" type="curve"/>
      <point x="396" y="314"/>
      <point x="419" y="316"/>
      <point x="445" y="316" type="curve" smooth="yes"/>
      <point x="479" y="316"/>
      <point x="510" y="311"/>
      <point x="523" y="306" type="curve"/>
      <point x="534" y="317"/>
      <point x="539" y="331"/>
      <point x="539" y="345" type="curve" smooth="yes"/>
      <point x="539" y="378"/>
      <point x="504" y="392"/>
      <point x="470" y="392" type="curve" smooth="yes"/>
      <point x="418" y="392"/>
      <point x="388" y="365"/>
    </contour>
  </outline>
</glyph>
<glyph name="si_Nga" format="1">
  <advance width="617"/>
  <unicode hex="0D9E"/>
  <outline>
    <contour>
      <point x="88" y="347" type="curve" smooth="yes"/>
      <point x="88" y="320"/>
      <point x="112" y="298"/>
      <point x="142" y="298" type="curve" smooth="yes"/>
      <point x="171" y="298"/>
      <point x="195" y="320"/>
      <point x="195" y="347" type="curve" smooth="yes"/>
      <point x="195" y="374"/>
      <point x="171" y="396"/>
      <point x="142" y="396" type="curve" smooth="yes"/>
      <point x="112" y="396"/>
      <point x="88" y="374"/>
    </contour>
    <contour>
      <point x="46" y="468" type="line"/>
      <point x="105" y="544"/>
      <point x="184" y="582"/>
      <point x="281" y="582" type="curve" smooth="yes"/>
      <point x="441" y="582"/>
      <point x="570" y="445"/>
      <point x="570" y="260" type="curve" smooth="yes"/>
      <point x="570" y="114"/>
      <point x="516" y="0"/>
      <point x="416" y="0" type="curve" smooth="yes"/>
      <point x="354" y="0"/>
      <point x="329" y="21"/>
      <point x="298" y="59" type="curve"/>
      <point x="267" y="20"/>
      <point x="233" y="0"/>
      <point x="188" y="0" type="curve" smooth="yes"/>
      <point x="107" y="0"/>
      <point x="51" y="60"/>
      <point x="51" y="140" type="curve" smooth="yes"/>
      <point x="51" y="212"/>
      <point x="109" y="259"/>
      <point x="179" y="259" type="curve" smooth="yes"/>
      <point x="215" y="259"/>
      <point x="244" y="252"/>
      <point x="280" y="252" type="curve" smooth="yes"/>
      <point x="326" y="252"/>
      <point x="342" y="275"/>
      <point x="342" y="310" type="curve" smooth="yes"/>
      <point x="342" y="381"/>
      <point x="265" y="410"/>
      <point x="214" y="410" type="curve" smooth="yes"/>
      <point x="199" y="410"/>
      <point x="191" y="409"/>
      <point x="183" y="408" type="curve"/>
      <point x="202" y="398"/>
      <point x="222" y="380"/>
      <point x="222" y="345" type="curve" smooth="yes"/>
      <point x="222" y="309"/>
      <point x="189" y="272"/>
      <point x="141" y="272" type="curve" smooth="yes"/>
      <point x="100" y="272"/>
      <point x="60" y="303"/>
      <point x="60" y="346" type="curve" smooth="yes"/>
      <point x="60" y="402"/>
      <point x="119" y="434"/>
      <point x="208" y="434" type="curve" smooth="yes"/>
      <point x="310" y="434"/>
      <point x="372" y="379"/>
      <point x="372" y="306" type="curve" smooth="yes"/>
      <point x="372" y="265"/>
      <point x="348" y="224"/>
      <point x="280" y="224" type="curve" smooth="yes"/>
      <point x="239" y="224"/>
      <point x="224" y="230"/>
      <point x="181" y="230" type="curve" smooth="yes"/>
      <point x="132" y="230"/>
      <point x="101" y="204"/>
      <point x="101" y="170" type="curve" smooth="yes"/>
      <point x="101" y="128"/>
      <point x="135" y="99"/>
      <point x="192" y="99" type="curve" smooth="yes"/>
      <point x="233" y="99"/>
      <point x="284" y="115"/>
      <point x="284" y="163" type="curve" smooth="yes"/>
      <point x="284" y="185" type="line"/>
      <point x="311" y="185" type="line"/>
      <point x="311" y="163" type="line" smooth="yes"/>
      <point x="311" y="117"/>
      <point x="359" y="99"/>
      <point x="401" y="99" type="curve" smooth="yes"/>
      <point x="479" y="99"/>
      <point x="519" y="180"/>
      <point x="519" y="296" type="curve" smooth="yes"/>
      <point x="519" y="434"/>
      <point x="425" y="557"/>
      <point x="278" y="557" type="curve" smooth="yes"/>
      <point x="199" y="557"/>
      <point x="132" y="527"/>
      <point x="79" y="468" type="curve"/>
    </contour>
  </outline>
</glyph>
<glyph name="uni0DA0" format="1">
  <advance width="597"/>
  <unicode hex="0DA0"/>
  <outline>
    <contour>
      <point x="64" y="165" type="curve" smooth="yes"/>
      <point x="64" y="196"/>
      <point x="74" y="228"/>
      <point x="97" y="248" type="curve" smooth="yes"/>
      <point x="113" y="262"/>
      <point x="132" y="273"/>
      <point x="158" y="278" type="curve"/>
      <point x="192" y="290"/>
      <point x="233" y="302"/>
      <point x="270" y="302" type="curve" smooth="yes"/>
      <point x="286" y="302" type="line"/>
      <point x="286" y="304"/>
      <point x="286" y="306"/>
      <point x="286" y="308" type="curve" smooth="yes"/>
      <point x="286" y="360"/>
      <point x="253" y="393"/>
      <point x="218" y="393" type="curve" smooth="yes"/>
      <point x="177" y="393"/>
      <point x="167" y="371"/>
      <point x="162" y="355" type="curve" smooth="yes"/>
      <point x="155" y="336"/>
      <point x="145" y="322"/>
      <point x="120" y="322" type="curve" smooth="yes"/>
      <point x="102" y="322"/>
      <point x="83" y="333"/>
      <point x="83" y="359" type="curve" smooth="yes"/>
      <point x="83" y="406"/>
      <point x="133" y="432"/>
      <point x="188" y="432" type="curve" smooth="yes"/>
      <point x="276" y="432"/>
      <point x="319" y="376"/>
      <point x="319" y="290" type="curve" smooth="yes"/>
      <point x="319" y="287"/>
      <point x="319" y="279"/>
      <point x="319" y="276" type="curve"/>
      <point x="259" y="276" type="line" smooth="yes"/>
      <point x="210" y="276"/>
      <point x="173" y="265"/>
      <point x="149" y="251" type="curve" smooth="yes"/>
      <point x="122" y="235"/>
      <point x="112" y="212"/>
      <point x="112" y="191" type="curve" smooth="yes"/>
      <point x="112" y="120"/>
      <point x="208" y="99"/>
      <point x="298" y="99" type="curve" smooth="yes"/>
      <point x="451" y="99"/>
      <point x="531" y="183"/>
      <point x="531" y="312" type="curve" smooth="yes"/>
      <point x="531" y="442"/>
      <point x="437" y="552"/>
      <point x="303" y="552" type="curve" smooth="yes"/>
      <point x="224" y="552"/>
      <point x="162" y="524"/>
      <point x="117" y="470" type="curve"/>
      <point x="84" y="470" type="line"/>
      <point x="133" y="540"/>
      <point x="205" y="577"/>
      <point x="303" y="577" type="curve" smooth="yes"/>
      <point x="463" y="577"/>
      <point x="575" y="443"/>
      <point x="575" y="274" type="curve" smooth="yes"/>
      <point x="575" y="114"/>
      <point x="478" y="0"/>
      <point x="295" y="0" type="curve" smooth="yes"/>
      <point x="174" y="0"/>
      <point x="64" y="46"/>
    </contour>
    <contour>
      <point x="14" y="269" type="curve"/>
      <point x="14" y="302" type="line"/>
      <point x="284" y="302" type="line"/>
      <point x="315" y="276" type="line"/>
      <point x="148" y="276" type="line" smooth="yes"/>
      <point x="77" y="275"/>
      <point x="30" y="272"/>
    </contour>
  </outline>
</glyph>
<glyph name="si_Cha" format="1">
  <advance width="598"/>
  <unicode hex="0DA1"/>
  <outline>
    <contour>
      <point x="33" y="170" type="curve" smooth="yes"/>
      <point x="33" y="249"/>
      <point x="96" y="312"/>
      <point x="208" y="312" type="curve" smooth="yes"/>
      <point x="213" y="312"/>
      <point x="222" y="312"/>
      <point x="227" y="311" type="curve"/>
      <point x="228" y="318"/>
      <point x="229" y="324"/>
      <point x="229" y="331" type="curve" smooth="yes"/>
      <point x="229" y="362"/>
      <point x="213" y="388"/>
      <point x="180" y="388" type="curve" smooth="yes"/>
      <point x="157" y="388"/>
      <point x="146" y="377"/>
      <point x="140" y="362" type="curve" smooth="yes"/>
      <point x="128" y="338"/>
      <point x="119" y="321"/>
      <point x="92" y="321" type="curve" smooth="yes"/>
      <point x="73" y="321"/>
      <point x="53" y="335"/>
      <point x="53" y="360" type="curve" smooth="yes"/>
      <point x="53" y="409"/>
      <point x="101" y="432"/>
      <point x="148" y="432" type="curve" smooth="yes"/>
      <point x="215" y="432"/>
      <point x="258" y="393"/>
      <point x="258" y="326" type="curve" smooth="yes"/>
      <point x="258" y="314"/>
      <point x="257" y="300"/>
      <point x="254" y="287" type="curve"/>
      <point x="246" y="288"/>
      <point x="238" y="289"/>
      <point x="229" y="289" type="curve" smooth="yes"/>
      <point x="110" y="289"/>
      <point x="79" y="235"/>
      <point x="79" y="199" type="curve" smooth="yes"/>
      <point x="79" y="122"/>
      <point x="189" y="98"/>
      <point x="292" y="98" type="curve" smooth="yes"/>
      <point x="398" y="98"/>
      <point x="505" y="121"/>
      <point x="505" y="196" type="curve" smooth="yes"/>
      <point x="505" y="241"/>
      <point x="470" y="288"/>
      <point x="355" y="288" type="curve" smooth="yes"/>
      <point x="333" y="288"/>
      <point x="298" y="285"/>
      <point x="284" y="284" type="curve"/>
      <point x="282" y="291"/>
      <point x="279" y="308"/>
      <point x="279" y="319" type="curve" smooth="yes"/>
      <point x="279" y="401"/>
      <point x="336" y="435"/>
      <point x="406" y="435" type="curve" smooth="yes"/>
      <point x="478" y="435"/>
      <point x="532" y="390"/>
      <point x="532" y="302" type="curve" smooth="yes"/>
      <point x="532" y="251"/>
      <point x="506" y="171"/>
      <point x="433" y="171" type="curve" smooth="yes"/>
      <point x="373" y="171"/>
      <point x="349" y="227"/>
      <point x="349" y="293" type="curve" smooth="yes"/>
      <point x="349" y="403"/>
      <point x="387" y="502"/>
      <point x="432" y="555" type="curve" smooth="yes"/>
      <point x="465" y="595"/>
      <point x="505" y="617"/>
      <point x="537" y="617" type="curve" smooth="yes"/>
      <point x="558" y="617"/>
      <point x="570" y="604"/>
      <point x="570" y="591" type="curve" smooth="yes"/>
      <point x="570" y="546"/>
      <point x="512" y="577"/>
      <point x="448" y="506" type="curve" smooth="yes"/>
      <point x="410" y="464"/>
      <point x="377" y="391"/>
      <point x="377" y="292" type="curve" smooth="yes"/>
      <point x="377" y="248"/>
      <point x="388" y="198"/>
      <point x="435" y="198" type="curve" smooth="yes"/>
      <point x="478" y="198"/>
      <point x="503" y="256"/>
      <point x="503" y="300" type="curve" smooth="yes"/>
      <point x="503" y="376"/>
      <point x="464" y="409"/>
      <point x="402" y="409" type="curve" smooth="yes"/>
      <point x="358" y="409"/>
      <point x="307" y="388"/>
      <point x="307" y="324" type="curve" smooth="yes"/>
      <point x="307" y="319"/>
      <point x="307" y="314"/>
      <point x="308" y="310" type="curve"/>
      <point x="315" y="311"/>
      <point x="334" y="312"/>
      <point x="350" y="312" type="curve" smooth="yes"/>
      <point x="388" y="312"/>
      <point x="434" y="309"/>
      <point x="473" y="291" type="curve" smooth="yes"/>
      <point x="517" y="271"/>
      <point x="549" y="228"/>
      <point x="549" y="168" type="curve" smooth="yes"/>
      <point x="549" y="45"/>
      <point x="424" y="0"/>
      <point x="298" y="0" type="curve" smooth="yes"/>
      <point x="160" y="0"/>
      <point x="33" y="44"/>
    </contour>
  </outline>
</glyph>
<glyph name="uni0DA2" format="1">
  <advance width="598"/>
  <unicode hex="0DA2"/>
  <outline>
    <contour>
      <point x="33" y="170" type="curve" smooth="yes"/>
      <point x="33" y="249"/>
      <point x="96" y="312"/>
      <point x="208" y="312" type="curve" smooth="yes"/>
      <point x="226" y="312"/>
      <point x="226" y="312"/>
      <point x="234" y="311" type="curve"/>
      <point x="235" y="318"/>
      <point x="236" y="324"/>
      <point x="236" y="331" type="curve" smooth="yes"/>
      <point x="236" y="359"/>
      <point x="222" y="389"/>
      <point x="185" y="389" type="curve" smooth="yes"/>
      <point x="163" y="389"/>
      <point x="147" y="374"/>
      <point x="140" y="359" type="curve" smooth="yes"/>
      <point x="129" y="335"/>
      <point x="119" y="321"/>
      <point x="93" y="321" type="curve" smooth="yes"/>
      <point x="72" y="321"/>
      <point x="55" y="336"/>
      <point x="55" y="361" type="curve" smooth="yes"/>
      <point x="55" y="410"/>
      <point x="107" y="432"/>
      <point x="154" y="432" type="curve" smooth="yes"/>
      <point x="221" y="432"/>
      <point x="266" y="393"/>
      <point x="266" y="326" type="curve" smooth="yes"/>
      <point x="266" y="314"/>
      <point x="265" y="300"/>
      <point x="262" y="287" type="curve"/>
      <point x="250" y="288"/>
      <point x="238" y="289"/>
      <point x="229" y="289" type="curve" smooth="yes"/>
      <point x="110" y="289"/>
      <point x="80" y="237"/>
      <point x="80" y="198" type="curve" smooth="yes"/>
      <point x="80" y="122"/>
      <point x="189" y="99"/>
      <point x="292" y="99" type="curve" smooth="yes"/>
      <point x="398" y="99"/>
      <point x="502" y="123"/>
      <point x="502" y="200" type="curve" smooth="yes"/>
      <point x="502" y="240"/>
      <point x="470" y="289"/>
      <point x="355" y="289" type="curve" smooth="yes"/>
      <point x="333" y="289"/>
      <point x="314" y="286"/>
      <point x="300" y="285" type="curve"/>
      <point x="295" y="301"/>
      <point x="293" y="316"/>
      <point x="293" y="331" type="curve" smooth="yes"/>
      <point x="293" y="409"/>
      <point x="350" y="434"/>
      <point x="419" y="434" type="curve" smooth="yes"/>
      <point x="460" y="434"/>
      <point x="520" y="412"/>
      <point x="520" y="353" type="curve" smooth="yes"/>
      <point x="520" y="324"/>
      <point x="503" y="285"/>
      <point x="438" y="285" type="curve" smooth="yes"/>
      <point x="384" y="285"/>
      <point x="363" y="332"/>
      <point x="363" y="373" type="curve" smooth="yes"/>
      <point x="363" y="461"/>
      <point x="410" y="533"/>
      <point x="454" y="573" type="curve" smooth="yes"/>
      <point x="488" y="605"/>
      <point x="520" y="617"/>
      <point x="539" y="617" type="curve" smooth="yes"/>
      <point x="561" y="617"/>
      <point x="568" y="604"/>
      <point x="568" y="592" type="curve" smooth="yes"/>
      <point x="568" y="563"/>
      <point x="508" y="555"/>
      <point x="455" y="509" type="curve" smooth="yes"/>
      <point x="428" y="487"/>
      <point x="391" y="441"/>
      <point x="391" y="372" type="curve" smooth="yes"/>
      <point x="391" y="338"/>
      <point x="408" y="311"/>
      <point x="440" y="311" type="curve" smooth="yes"/>
      <point x="469" y="311"/>
      <point x="489" y="329"/>
      <point x="489" y="355" type="curve" smooth="yes"/>
      <point x="489" y="388"/>
      <point x="459" y="407"/>
      <point x="415" y="407" type="curve" smooth="yes"/>
      <point x="344" y="407"/>
      <point x="323" y="374"/>
      <point x="323" y="334" type="curve" smooth="yes"/>
      <point x="323" y="327"/>
      <point x="324" y="318"/>
      <point x="326" y="309" type="curve"/>
      <point x="334" y="310"/>
      <point x="343" y="311"/>
      <point x="356" y="311" type="curve" smooth="yes"/>
      <point x="447" y="311"/>
      <point x="549" y="283"/>
      <point x="549" y="168" type="curve" smooth="yes"/>
      <point x="549" y="45"/>
      <point x="424" y="0"/>
      <point x="298" y="0" type="curve" smooth="yes"/>
      <point x="160" y="0"/>
      <point x="33" y="44"/>
    </contour>
  </outline>
</glyph>
<glyph name="uni0DA3" format="1">
  <advance width="1087"/>
  <unicode hex="0DA3"/>
  <outline>
    <contour>
      <point x="79" y="115" type="curve"/>
      <point x="87" y="121"/>
      <point x="96" y="125"/>
      <point x="106" y="125" type="curve" smooth="yes"/>
      <point x="136" y="125"/>
      <point x="154" y="99"/>
      <point x="204" y="99" type="curve" smooth="yes"/>
      <point x="253" y="99"/>
      <point x="281" y="125"/>
      <point x="281" y="183" type="curve" smooth="yes"/>
      <point x="281" y="185"/>
      <point x="281" y="183"/>
      <point x="281" y="185" type="curve"/>
      <point x="307" y="185" type="line"/>
      <point x="307" y="184"/>
      <point x="307" y="185"/>
      <point x="307" y="184" type="curve" smooth="yes"/>
      <point x="307" y="121"/>
      <point x="333" y="99"/>
      <point x="386" y="99" type="curve" smooth="yes"/>
      <point x="439" y="99"/>
      <point x="461" y="142"/>
      <point x="461" y="178" type="curve" smooth="yes"/>
      <point x="461" y="244"/>
      <point x="401" y="289"/>
      <point x="299" y="289" type="curve" smooth="yes"/>
      <point x="242" y="289"/>
      <point x="204" y="281"/>
      <point x="181" y="271" type="curve"/>
      <point x="164" y="256"/>
      <point x="146" y="235"/>
      <point x="130" y="212" type="curve" smooth="yes"/>
      <point x="102" y="171"/>
      <point x="89" y="145"/>
    </contour>
    <contour>
      <point x="21" y="22" type="line"/>
      <point x="29" y="91"/>
      <point x="74" y="184"/>
      <point x="109" y="232" type="curve" smooth="yes"/>
      <point x="135" y="268"/>
      <point x="149" y="281"/>
      <point x="169" y="302" type="curve"/>
      <point x="180" y="314"/>
      <point x="193" y="330"/>
      <point x="193" y="352" type="curve" smooth="yes"/>
      <point x="193" y="373"/>
      <point x="183" y="390"/>
      <point x="158" y="390" type="curve" smooth="yes"/>
      <point x="144" y="390"/>
      <point x="124" y="382"/>
      <point x="119" y="363" type="curve" smooth="yes"/>
      <point x="113" y="341"/>
      <point x="117" y="341"/>
      <point x="109" y="323" type="curve" smooth="yes"/>
      <point x="101" y="305"/>
      <point x="85" y="297"/>
      <point x="70" y="297" type="curve" smooth="yes"/>
      <point x="35" y="297"/>
      <point x="29" y="328"/>
      <point x="29" y="340" type="curve" smooth="yes"/>
      <point x="29" y="394"/>
      <point x="79" y="433"/>
      <point x="136" y="433" type="curve" smooth="yes"/>
      <point x="187" y="433"/>
      <point x="220" y="401"/>
      <point x="220" y="357" type="curve" smooth="yes"/>
      <point x="220" y="351"/>
      <point x="220" y="347"/>
      <point x="219" y="341" type="curve"/>
      <point x="279" y="397"/>
      <point x="373" y="433"/>
      <point x="470" y="433" type="curve" smooth="yes"/>
      <point x="573" y="433"/>
      <point x="645" y="410"/>
      <point x="671" y="398" type="curve"/>
      <point x="668" y="398"/>
      <point x="615" y="388"/>
      <point x="609" y="388" type="curve"/>
      <point x="568" y="399"/>
      <point x="517" y="404"/>
      <point x="473" y="404" type="curve" smooth="yes"/>
      <point x="338" y="404"/>
      <point x="261" y="344"/>
      <point x="218" y="306" type="curve"/>
      <point x="244" y="313"/>
      <point x="276" y="315"/>
      <point x="303" y="315" type="curve" smooth="yes"/>
      <point x="423" y="315"/>
      <point x="515" y="251"/>
      <point x="515" y="126" type="curve" smooth="yes"/>
      <point x="515" y="68"/>
      <point x="482" y="-1"/>
      <point x="397" y="-1" type="curve" smooth="yes"/>
      <point x="351" y="-1"/>
      <point x="317" y="20"/>
      <point x="296" y="63" type="curve"/>
      <point x="279" y="22"/>
      <point x="246" y="-1"/>
      <point x="204" y="-1" type="curve" smooth="yes"/>
      <point x="117" y="-1"/>
      <point x="120" y="73"/>
      <point x="87" y="73" type="curve" smooth="yes"/>
      <point x="65" y="73"/>
      <point x="51" y="51"/>
      <point x="48" y="11" type="curve"/>
    </contour>
    <contour>
      <point x="483" y="195" type="curve" smooth="yes"/>
      <point x="483" y="288"/>
      <point x="536" y="364"/>
      <point x="602" y="387" type="curve" smooth="yes"/>
      <point x="623" y="394"/>
      <point x="646" y="398"/>
      <point x="671" y="398" type="curve"/>
      <point x="671" y="373" type="line"/>
      <point x="668" y="373"/>
      <point x="664" y="373"/>
      <point x="661" y="373" type="curve" smooth="yes"/>
      <point x="582" y="373"/>
      <point x="526" y="303"/>
      <point x="526" y="224" type="curve" smooth="yes"/>
      <point x="526" y="157"/>
      <point x="567" y="99"/>
      <point x="640" y="99" type="curve" smooth="yes"/>
      <point x="691" y="99"/>
      <point x="739" y="120"/>
      <point x="739" y="184" type="curve" smooth="yes"/>
      <point x="739" y="218" type="line"/>
      <point x="768" y="218" type="line"/>
      <point x="768" y="184" type="line" smooth="yes"/>
      <point x="768" y="120"/>
      <point x="816" y="99"/>
      <point x="865" y="99" type="curve" smooth="yes"/>
      <point x="961" y="99"/>
      <point x="993" y="202"/>
      <point x="993" y="292" type="curve" smooth="yes"/>
      <point x="993" y="436"/>
      <point x="891" y="555"/>
      <point x="744" y="555" type="curve" smooth="yes"/>
      <point x="663" y="555"/>
      <point x="601" y="526"/>
      <point x="548" y="468" type="curve"/>
      <point x="515" y="468" type="line"/>
      <point x="572" y="543"/>
      <point x="650" y="580"/>
      <point x="749" y="580" type="curve" smooth="yes"/>
      <point x="912" y="580"/>
      <point x="1039" y="446"/>
      <point x="1039" y="261" type="curve" smooth="yes"/>
      <point x="1039" y="139"/>
      <point x="998" y="0"/>
      <point x="872" y="0" type="curve" smooth="yes"/>
      <point x="823" y="0"/>
      <point x="783" y="20"/>
      <point x="753" y="59" type="curve"/>
      <point x="722" y="20"/>
      <point x="685" y="0"/>
      <point x="640" y="0" type="curve" smooth="yes"/>
      <point x="538" y="0"/>
      <point x="483" y="96"/>
    </contour>
  </outline>
</glyph>
<glyph name="uni0DA7" format="1">
  <advance width="603"/>
  <unicode hex="0DA7"/>
  <outline>
    <contour>
      <point x="32" y="208" type="curve" smooth="yes"/>
      <point x="32" y="323"/>
      <point x="126" y="391"/>
      <point x="232" y="391" type="curve" smooth="yes"/>
      <point x="259" y="391"/>
      <point x="292" y="386"/>
      <point x="321" y="375" type="curve"/>
      <point x="321" y="345" type="line"/>
      <point x="294" y="358"/>
      <point x="266" y="364"/>
      <point x="234" y="364" type="curve" smooth="yes"/>
      <point x="150" y="364"/>
      <point x="79" y="317"/>
      <point x="79" y="236" type="curve" smooth="yes"/>
      <point x="79" y="140"/>
      <point x="181" y="99"/>
      <point x="277" y="99" type="curve" smooth="yes"/>
      <point x="411" y="99"/>
      <point x="509" y="170"/>
      <point x="509" y="308" type="curve" smooth="yes"/>
      <point x="509" y="431"/>
      <point x="417" y="552"/>
      <point x="275" y="552" type="curve" smooth="yes"/>
      <point x="195" y="552"/>
      <point x="134" y="524"/>
      <point x="91" y="470" type="curve"/>
      <point x="57" y="470" type="line"/>
      <point x="104" y="539"/>
      <point x="177" y="577"/>
      <point x="273" y="577" type="curve" smooth="yes"/>
      <point x="446" y="577"/>
      <point x="557" y="433"/>
      <point x="557" y="271" type="curve" smooth="yes"/>
      <point x="557" y="115"/>
      <point x="447" y="-1"/>
      <point x="285" y="-1" type="curve" smooth="yes"/>
      <point x="133" y="-1"/>
      <point x="32" y="81"/>
    </contour>
  </outline>
</glyph>
<glyph name="si_Dda" format="1">
  <advance width="647"/>
  <unicode hex="0DA9"/>
  <outline>
    <contour>
      <point x="15" y="287" type="line"/>
      <point x="15" y="315" type="line"/>
      <point x="260" y="315" type="line"/>
      <point x="257" y="355"/>
      <point x="229" y="390"/>
      <point x="198" y="390" type="curve" smooth="yes"/>
      <point x="183" y="390"/>
      <point x="167" y="387"/>
      <point x="152" y="362" type="curve" smooth="yes"/>
      <point x="142" y="343"/>
      <point x="128" y="337"/>
      <point x="113" y="337" type="curve" smooth="yes"/>
      <point x="91" y="337"/>
      <point x="75" y="352"/>
      <point x="75" y="374" type="curve" smooth="yes"/>
      <point x="75" y="414"/>
      <point x="122" y="432"/>
      <point x="164" y="432" type="curve" smooth="yes"/>
      <point x="246" y="432"/>
      <point x="294" y="378"/>
      <point x="295" y="287" type="curve"/>
      <point x="222" y="287" type="line" smooth="yes"/>
      <point x="129" y="287"/>
      <point x="94" y="232"/>
      <point x="94" y="189" type="curve" smooth="yes"/>
      <point x="94" y="139"/>
      <point x="134" y="99"/>
      <point x="200" y="99" type="curve" smooth="yes"/>
      <point x="255" y="99"/>
      <point x="298" y="122"/>
      <point x="298" y="167" type="curve" smooth="yes"/>
      <point x="298" y="196" type="line"/>
      <point x="327" y="196" type="line"/>
      <point x="327" y="167" type="line" smooth="yes"/>
      <point x="327" y="125"/>
      <point x="365" y="99"/>
      <point x="420" y="99" type="curve" smooth="yes"/>
      <point x="507" y="99"/>
      <point x="553" y="181"/>
      <point x="553" y="281" type="curve" smooth="yes"/>
      <point x="553" y="426"/>
      <point x="458" y="556"/>
      <point x="298" y="556" type="curve" smooth="yes"/>
      <point x="218" y="556"/>
      <point x="153" y="524"/>
      <point x="107" y="468" type="curve"/>
      <point x="73" y="468" type="line"/>
      <point x="127" y="546"/>
      <point x="210" y="582"/>
      <point x="304" y="582" type="curve" smooth="yes"/>
      <point x="479" y="582"/>
      <point x="598" y="444"/>
      <point x="598" y="258" type="curve" smooth="yes"/>
      <point x="598" y="119"/>
      <point x="547" y="0"/>
      <point x="428" y="0" type="curve" smooth="yes"/>
      <point x="363" y="0"/>
      <point x="335" y="29"/>
      <point x="313" y="59" type="curve"/>
      <point x="283" y="22"/>
      <point x="250" y="0"/>
      <point x="199" y="0" type="curve" smooth="yes"/>
      <point x="98" y="0"/>
      <point x="46" y="81"/>
      <point x="46" y="162" type="curve" smooth="yes"/>
      <point x="46" y="212"/>
      <point x="71" y="263"/>
      <point x="125" y="287" type="curve"/>
    </contour>
  </outline>
</glyph>
<glyph name="uni0DAA" format="1">
  <advance width="647"/>
  <unicode hex="0DAA"/>
  <outline>
    <contour>
      <point x="15" y="287" type="line"/>
      <point x="15" y="315" type="line"/>
      <point x="257" y="315" type="line"/>
      <point x="255" y="356"/>
      <point x="227" y="390"/>
      <point x="196" y="390" type="curve" smooth="yes"/>
      <point x="182" y="390"/>
      <point x="165" y="387"/>
      <point x="150" y="362" type="curve" smooth="yes"/>
      <point x="140" y="343"/>
      <point x="126" y="337"/>
      <point x="111" y="337" type="curve" smooth="yes"/>
      <point x="90" y="337"/>
      <point x="73" y="352"/>
      <point x="73" y="374" type="curve" smooth="yes"/>
      <point x="73" y="414"/>
      <point x="120" y="432"/>
      <point x="162" y="432" type="curve" smooth="yes"/>
      <point x="244" y="432"/>
      <point x="292" y="377"/>
      <point x="292" y="287" type="curve"/>
      <point x="222" y="287" type="line" smooth="yes"/>
      <point x="129" y="287"/>
      <point x="94" y="232"/>
      <point x="94" y="189" type="curve" smooth="yes"/>
      <point x="94" y="139"/>
      <point x="134" y="99"/>
      <point x="200" y="99" type="curve" smooth="yes"/>
      <point x="255" y="99"/>
      <point x="298" y="122"/>
      <point x="298" y="167" type="curve" smooth="yes"/>
      <point x="298" y="196" type="line"/>
      <point x="327" y="196" type="line"/>
      <point x="327" y="167" type="line" smooth="yes"/>
      <point x="327" y="125"/>
      <point x="365" y="99"/>
      <point x="420" y="99" type="curve" smooth="yes"/>
      <point x="507" y="99"/>
      <point x="551" y="176"/>
      <point x="551" y="275" type="curve" smooth="yes"/>
      <point x="551" y="328"/>
      <point x="535" y="378"/>
      <point x="512" y="420" type="curve"/>
      <point x="495" y="392"/>
      <point x="469" y="363"/>
      <point x="422" y="363" type="curve" smooth="yes"/>
      <point x="356" y="363"/>
      <point x="318" y="411"/>
      <point x="318" y="477" type="curve" smooth="yes"/>
      <point x="318" y="541"/>
      <point x="348" y="586"/>
      <point x="359" y="603" type="curve"/>
      <point x="473" y="558"/>
      <point x="598" y="405"/>
      <point x="598" y="252" type="curve" smooth="yes"/>
      <point x="598" y="118"/>
      <point x="551" y="0"/>
      <point x="427" y="0" type="curve" smooth="yes"/>
      <point x="364" y="0"/>
      <point x="335" y="29"/>
      <point x="313" y="59" type="curve"/>
      <point x="283" y="22"/>
      <point x="250" y="0"/>
      <point x="199" y="0" type="curve" smooth="yes"/>
      <point x="98" y="0"/>
      <point x="46" y="81"/>
      <point x="46" y="162" type="curve" smooth="yes"/>
      <point x="46" y="212"/>
      <point x="71" y="263"/>
      <point x="125" y="287" type="curve"/>
    </contour>
    <contour>
      <point x="348" y="481" type="curve" smooth="yes"/>
      <point x="348" y="423"/>
      <point x="377" y="394"/>
      <point x="424" y="394" type="curve" smooth="yes"/>
      <point x="458" y="394"/>
      <point x="482" y="422"/>
      <point x="495" y="449" type="curve"/>
      <point x="457" y="506"/>
      <point x="407" y="548"/>
      <point x="373" y="564" type="curve"/>
      <point x="361" y="550"/>
      <point x="348" y="513"/>
    </contour>
  </outline>
</glyph>
<glyph name="uni0DAF" format="1">
  <advance width="456"/>
  <unicode hex="0DAF"/>
  <outline>
    <contour>
      <point x="31" y="169" type="curve" smooth="yes"/>
      <point x="31" y="274"/>
      <point x="104" y="317"/>
      <point x="223" y="317" type="curve" smooth="yes"/>
      <point x="342" y="317" type="line"/>
      <point x="332" y="363"/>
      <point x="303" y="394"/>
      <point x="263" y="394" type="curve" smooth="yes"/>
      <point x="244" y="394"/>
      <point x="229" y="382"/>
      <point x="220" y="364" type="curve" smooth="yes"/>
      <point x="210" y="342"/>
      <point x="194" y="335"/>
      <point x="177" y="335" type="curve" smooth="yes"/>
      <point x="152" y="335"/>
      <point x="137" y="351"/>
      <point x="137" y="372" type="curve" smooth="yes"/>
      <point x="137" y="408"/>
      <point x="177" y="433"/>
      <point x="232" y="433" type="curve" smooth="yes"/>
      <point x="318" y="433"/>
      <point x="361" y="389"/>
      <point x="379" y="293" type="curve"/>
      <point x="273" y="293" type="line" smooth="yes"/>
      <point x="185" y="293"/>
      <point x="139" y="257"/>
      <point x="139" y="173" type="curve" smooth="yes"/>
      <point x="139" y="89"/>
      <point x="202" y="34"/>
      <point x="271" y="34" type="curve" smooth="yes"/>
      <point x="311" y="34"/>
      <point x="343" y="47"/>
      <point x="383" y="93" type="curve"/>
      <point x="407" y="75" type="line"/>
      <point x="376" y="39"/>
      <point x="318" y="-23"/>
      <point x="318" y="-99" type="curve" smooth="yes"/>
      <point x="318" y="-155"/>
      <point x="346" y="-191"/>
      <point x="409" y="-208" type="curve"/>
      <point x="409" y="-238" type="line"/>
      <point x="393" y="-242"/>
      <point x="372" y="-244"/>
      <point x="353" y="-244" type="curve" smooth="yes"/>
      <point x="278" y="-242"/>
      <point x="243" y="-197"/>
      <point x="243" y="-140" type="curve" smooth="yes"/>
      <point x="243" y="-93"/>
      <point x="270" y="-48"/>
      <point x="317" y="9" type="curve"/>
      <point x="286" y="1"/>
      <point x="261" y="-1"/>
      <point x="234" y="-1" type="curve" smooth="yes"/>
      <point x="103" y="-1"/>
      <point x="31" y="69"/>
    </contour>
  </outline>
</glyph>
<glyph name="uni0DB0" format="1">
  <advance width="638"/>
  <unicode hex="0DB0"/>
  <outline>
    <contour>
      <point x="33" y="195" type="curve" smooth="yes"/>
      <point x="33" y="288"/>
      <point x="86" y="364"/>
      <point x="152" y="387" type="curve" smooth="yes"/>
      <point x="173" y="394"/>
      <point x="196" y="398"/>
      <point x="221" y="398" type="curve"/>
      <point x="221" y="373" type="line"/>
      <point x="218" y="373"/>
      <point x="214" y="373"/>
      <point x="211" y="373" type="curve" smooth="yes"/>
      <point x="132" y="373"/>
      <point x="76" y="303"/>
      <point x="76" y="224" type="curve" smooth="yes"/>
      <point x="76" y="157"/>
      <point x="117" y="99"/>
      <point x="190" y="99" type="curve" smooth="yes"/>
      <point x="241" y="99"/>
      <point x="289" y="120"/>
      <point x="289" y="184" type="curve" smooth="yes"/>
      <point x="289" y="218" type="line"/>
      <point x="318" y="218" type="line"/>
      <point x="318" y="184" type="line" smooth="yes"/>
      <point x="318" y="120"/>
      <point x="366" y="99"/>
      <point x="415" y="99" type="curve" smooth="yes"/>
      <point x="511" y="99"/>
      <point x="543" y="202"/>
      <point x="543" y="292" type="curve" smooth="yes"/>
      <point x="543" y="436"/>
      <point x="441" y="555"/>
      <point x="294" y="555" type="curve" smooth="yes"/>
      <point x="213" y="555"/>
      <point x="151" y="526"/>
      <point x="98" y="468" type="curve"/>
      <point x="65" y="468" type="line"/>
      <point x="122" y="543"/>
      <point x="200" y="580"/>
      <point x="299" y="580" type="curve" smooth="yes"/>
      <point x="462" y="580"/>
      <point x="589" y="446"/>
      <point x="589" y="261" type="curve" smooth="yes"/>
      <point x="589" y="139"/>
      <point x="548" y="0"/>
      <point x="422" y="0" type="curve" smooth="yes"/>
      <point x="373" y="0"/>
      <point x="333" y="20"/>
      <point x="303" y="59" type="curve"/>
      <point x="272" y="20"/>
      <point x="235" y="0"/>
      <point x="190" y="0" type="curve" smooth="yes"/>
      <point x="88" y="0"/>
      <point x="33" y="96"/>
    </contour>
  </outline>
</glyph>
<glyph name="uni0DB1" format="1">
  <advance width="806"/>
  <unicode hex="0DB1"/>
  <outline>
    <contour>
      <point x="26" y="145" type="curve"/>
      <point x="37" y="138"/>
      <point x="52" y="134"/>
      <point x="65" y="134" type="curve" smooth="yes"/>
      <point x="126" y="134"/>
      <point x="130" y="203"/>
      <point x="207" y="278" type="curve"/>
      <point x="222" y="293"/>
      <point x="225" y="312"/>
      <point x="225" y="325" type="curve" smooth="yes"/>
      <point x="225" y="361"/>
      <point x="208" y="385"/>
      <point x="178" y="385" type="curve" smooth="yes"/>
      <point x="152" y="385"/>
      <point x="140" y="368"/>
      <point x="138" y="345" type="curve" smooth="yes"/>
      <point x="137" y="325"/>
      <point x="127" y="296"/>
      <point x="95" y="296" type="curve" smooth="yes"/>
      <point x="74" y="296"/>
      <point x="55" y="310"/>
      <point x="55" y="340" type="curve" smooth="yes"/>
      <point x="55" y="383"/>
      <point x="89" y="431"/>
      <point x="154" y="431" type="curve" smooth="yes"/>
      <point x="222" y="431"/>
      <point x="253" y="383"/>
      <point x="253" y="328" type="curve" smooth="yes"/>
      <point x="253" y="327"/>
      <point x="253" y="320"/>
      <point x="252" y="316" type="curve"/>
      <point x="302" y="375"/>
      <point x="401" y="433"/>
      <point x="506" y="433" type="curve" smooth="yes"/>
      <point x="646" y="433"/>
      <point x="760" y="335"/>
      <point x="760" y="183" type="curve" smooth="yes"/>
      <point x="760" y="63"/>
      <point x="683" y="-1"/>
      <point x="605" y="-1" type="curve" smooth="yes"/>
      <point x="573" y="-1"/>
      <point x="549" y="8"/>
      <point x="536" y="16" type="curve"/>
      <point x="536" y="46" type="line"/>
      <point x="554" y="32"/>
      <point x="575" y="28"/>
      <point x="592" y="28" type="curve" smooth="yes"/>
      <point x="638" y="28"/>
      <point x="676" y="73"/>
      <point x="676" y="144" type="curve" smooth="yes"/>
      <point x="676" y="285"/>
      <point x="554" y="361"/>
      <point x="436" y="361" type="curve" smooth="yes"/>
      <point x="371" y="361"/>
      <point x="308" y="338"/>
      <point x="267" y="296" type="curve"/>
      <point x="293" y="305"/>
      <point x="317" y="308"/>
      <point x="345" y="308" type="curve" smooth="yes"/>
      <point x="429" y="308"/>
      <point x="498" y="249"/>
      <point x="498" y="169" type="curve" smooth="yes"/>
      <point x="498" y="53"/>
      <point x="398" y="-1"/>
      <point x="276" y="-1" type="curve" smooth="yes"/>
      <point x="144" y="-1"/>
      <point x="49" y="51"/>
    </contour>
    <contour>
      <point x="114" y="121" type="curve"/>
      <point x="153" y="105"/>
      <point x="199" y="97"/>
      <point x="257" y="97" type="curve" smooth="yes"/>
      <point x="368" y="97"/>
      <point x="439" y="138"/>
      <point x="439" y="204" type="curve" smooth="yes"/>
      <point x="439" y="251"/>
      <point x="395" y="283"/>
      <point x="336" y="283" type="curve" smooth="yes"/>
      <point x="172" y="283"/>
      <point x="184" y="163"/>
    </contour>
  </outline>
</glyph>
<glyph name="uni0DB3" format="1">
  <advance width="531"/>
  <unicode hex="0DB3"/>
  <outline>
    <contour>
      <point x="115" y="169" type="curve" smooth="yes"/>
      <point x="115" y="274"/>
      <point x="188" y="317"/>
      <point x="307" y="317" type="curve" smooth="yes"/>
      <point x="426" y="317" type="line"/>
      <point x="416" y="362"/>
      <point x="377" y="392"/>
      <point x="339" y="392" type="curve" smooth="yes"/>
      <point x="320" y="392"/>
      <point x="305" y="381"/>
      <point x="296" y="364" type="curve" smooth="yes"/>
      <point x="286" y="342"/>
      <point x="269" y="335"/>
      <point x="252" y="335" type="curve" smooth="yes"/>
      <point x="227" y="335"/>
      <point x="212" y="351"/>
      <point x="212" y="372" type="curve" smooth="yes"/>
      <point x="212" y="409"/>
      <point x="251" y="432"/>
      <point x="304" y="432" type="curve" smooth="yes"/>
      <point x="388" y="432"/>
      <point x="445" y="388"/>
      <point x="463" y="293" type="curve"/>
      <point x="357" y="293" type="line" smooth="yes"/>
      <point x="269" y="293"/>
      <point x="223" y="257"/>
      <point x="223" y="173" type="curve" smooth="yes"/>
      <point x="223" y="89"/>
      <point x="286" y="34"/>
      <point x="355" y="34" type="curve" smooth="yes"/>
      <point x="395" y="34"/>
      <point x="427" y="47"/>
      <point x="467" y="93" type="curve"/>
      <point x="491" y="75" type="line"/>
      <point x="460" y="39"/>
      <point x="402" y="-23"/>
      <point x="402" y="-99" type="curve" smooth="yes"/>
      <point x="402" y="-155"/>
      <point x="430" y="-191"/>
      <point x="493" y="-208" type="curve"/>
      <point x="493" y="-238" type="line"/>
      <point x="477" y="-242"/>
      <point x="456" y="-244"/>
      <point x="437" y="-244" type="curve" smooth="yes"/>
      <point x="362" y="-242"/>
      <point x="327" y="-197"/>
      <point x="327" y="-140" type="curve" smooth="yes"/>
      <point x="327" y="-93"/>
      <point x="354" y="-48"/>
      <point x="401" y="9" type="curve"/>
      <point x="370" y="1"/>
      <point x="345" y="-1"/>
      <point x="318" y="-1" type="curve" smooth="yes"/>
      <point x="187" y="-1"/>
      <point x="115" y="69"/>
    </contour>
    <contour>
      <point x="27" y="221" type="curve" smooth="yes"/>
      <point x="27" y="346"/>
      <point x="98" y="435"/>
      <point x="260" y="435" type="curve" smooth="yes"/>
      <point x="273" y="435"/>
      <point x="309" y="435"/>
      <point x="339" y="429" type="curve"/>
      <point x="321" y="418"/>
      <point x="266" y="411"/>
      <point x="238" y="405" type="curve"/>
      <point x="143" y="401"/>
      <point x="57" y="354"/>
      <point x="57" y="218" type="curve" smooth="yes"/>
      <point x="57" y="137"/>
      <point x="84" y="76"/>
      <point x="135" y="32" type="curve"/>
      <point x="135" y="0" type="line"/>
      <point x="69" y="33"/>
      <point x="27" y="120"/>
    </contour>
  </outline>
</glyph>
<glyph name="uni0DB4" format="1">
  <advance width="616"/>
  <unicode hex="0DB4"/>
  <outline>
    <contour>
      <point x="31" y="184" type="curve" smooth="yes"/>
      <point x="31" y="275"/>
      <point x="99" y="327"/>
      <point x="207" y="327" type="curve" smooth="yes"/>
      <point x="220" y="327"/>
      <point x="230" y="326"/>
      <point x="243" y="325" type="curve"/>
      <point x="243" y="329"/>
      <point x="244" y="332"/>
      <point x="244" y="336" type="curve" smooth="yes"/>
      <point x="244" y="375"/>
      <point x="218" y="393"/>
      <point x="190" y="393" type="curve" smooth="yes"/>
      <point x="160" y="393"/>
      <point x="147" y="378"/>
      <point x="142" y="359" type="curve" smooth="yes"/>
      <point x="137" y="343"/>
      <point x="122" y="327"/>
      <point x="95" y="327" type="curve" smooth="yes"/>
      <point x="75" y="327"/>
      <point x="55" y="339"/>
      <point x="55" y="366" type="curve" smooth="yes"/>
      <point x="55" y="409"/>
      <point x="103" y="434"/>
      <point x="158" y="434" type="curve" smooth="yes"/>
      <point x="231" y="434"/>
      <point x="275" y="401"/>
      <point x="275" y="334" type="curve" smooth="yes"/>
      <point x="275" y="323"/>
      <point x="274" y="310"/>
      <point x="271" y="297" type="curve"/>
      <point x="253" y="299"/>
      <point x="218" y="301"/>
      <point x="217" y="301" type="curve" smooth="yes"/>
      <point x="142" y="301"/>
      <point x="80" y="275"/>
      <point x="80" y="213" type="curve" smooth="yes"/>
      <point x="80" y="128"/>
      <point x="198" y="99"/>
      <point x="307" y="99" type="curve" smooth="yes"/>
      <point x="410" y="99"/>
      <point x="526" y="133"/>
      <point x="526" y="219" type="curve" smooth="yes"/>
      <point x="526" y="277"/>
      <point x="470" y="303"/>
      <point x="394" y="303" type="curve" smooth="yes"/>
      <point x="371" y="303"/>
      <point x="347" y="300"/>
      <point x="324" y="296" type="curve"/>
      <point x="322" y="307"/>
      <point x="321" y="318"/>
      <point x="321" y="328" type="curve" smooth="yes"/>
      <point x="321" y="397"/>
      <point x="366" y="433"/>
      <point x="439" y="433" type="curve" smooth="yes"/>
      <point x="505" y="433"/>
      <point x="541" y="393"/>
      <point x="541" y="354" type="curve" smooth="yes"/>
      <point x="541" y="334"/>
      <point x="533" y="317"/>
      <point x="514" y="303" type="curve"/>
      <point x="554" y="279"/>
      <point x="574" y="241"/>
      <point x="574" y="186" type="curve" smooth="yes"/>
      <point x="574" y="56"/>
      <point x="448" y="0"/>
      <point x="307" y="0" type="curve" smooth="yes"/>
      <point x="159" y="0"/>
      <point x="31" y="46"/>
    </contour>
    <contour>
      <point x="354" y="336" type="curve" smooth="yes"/>
      <point x="354" y="332"/>
      <point x="354" y="329"/>
      <point x="355" y="325" type="curve"/>
      <point x="372" y="327"/>
      <point x="387" y="328"/>
      <point x="403" y="328" type="curve" smooth="yes"/>
      <point x="436" y="328"/>
      <point x="463" y="324"/>
      <point x="488" y="315" type="curve"/>
      <point x="499" y="326"/>
      <point x="504" y="338"/>
      <point x="504" y="351" type="curve" smooth="yes"/>
      <point x="504" y="380"/>
      <point x="479" y="404"/>
      <point x="432" y="404" type="curve" smooth="yes"/>
      <point x="389" y="404"/>
      <point x="354" y="381"/>
    </contour>
  </outline>
</glyph>
<glyph name="si_Pha" format="1">
  <advance width="581"/>
  <unicode hex="0DB5"/>
  <outline>
    <contour>
      <point x="33" y="165" type="curve" smooth="yes"/>
      <point x="33" y="273"/>
      <point x="121" y="309"/>
      <point x="232" y="309" type="curve" smooth="yes"/>
      <point x="248" y="309" type="line"/>
      <point x="248" y="311"/>
      <point x="248" y="313"/>
      <point x="248" y="315" type="curve" smooth="yes"/>
      <point x="248" y="358"/>
      <point x="218" y="393"/>
      <point x="182" y="393" type="curve" smooth="yes"/>
      <point x="149" y="393"/>
      <point x="136" y="371"/>
      <point x="130" y="355" type="curve" smooth="yes"/>
      <point x="123" y="334"/>
      <point x="112" y="322"/>
      <point x="89" y="322" type="curve" smooth="yes"/>
      <point x="72" y="322"/>
      <point x="52" y="333"/>
      <point x="52" y="359" type="curve" smooth="yes"/>
      <point x="52" y="406"/>
      <point x="102" y="432"/>
      <point x="157" y="432" type="curve" smooth="yes"/>
      <point x="245" y="432"/>
      <point x="281" y="364"/>
      <point x="281" y="297" type="curve" smooth="yes"/>
      <point x="281" y="294"/>
      <point x="281" y="286"/>
      <point x="281" y="283" type="curve"/>
      <point x="221" y="283" type="line" smooth="yes"/>
      <point x="139" y="283"/>
      <point x="83" y="253"/>
      <point x="83" y="194" type="curve" smooth="yes"/>
      <point x="83" y="120"/>
      <point x="181" y="99"/>
      <point x="267" y="99" type="curve" smooth="yes"/>
      <point x="420" y="99"/>
      <point x="494" y="174"/>
      <point x="494" y="281" type="curve" smooth="yes"/>
      <point x="494" y="335"/>
      <point x="479" y="380"/>
      <point x="459" y="411" type="curve"/>
      <point x="444" y="379"/>
      <point x="414" y="359"/>
      <point x="371" y="359" type="curve" smooth="yes"/>
      <point x="308" y="359"/>
      <point x="271" y="414"/>
      <point x="271" y="480" type="curve" smooth="yes"/>
      <point x="271" y="530"/>
      <point x="286" y="566"/>
      <point x="313" y="597" type="curve"/>
      <point x="374" y="564"/>
      <point x="445" y="492"/>
      <point x="481" y="430" type="curve" smooth="yes"/>
      <point x="520" y="363"/>
      <point x="533" y="315"/>
      <point x="533" y="245" type="curve" smooth="yes"/>
      <point x="533" y="117"/>
      <point x="447" y="0"/>
      <point x="264" y="0" type="curve" smooth="yes"/>
      <point x="143" y="0"/>
      <point x="33" y="46"/>
    </contour>
    <contour>
      <point x="303" y="486" type="curve" smooth="yes"/>
      <point x="303" y="437"/>
      <point x="328" y="400"/>
      <point x="380" y="400" type="curve" smooth="yes"/>
      <point x="402" y="400"/>
      <point x="429" y="410"/>
      <point x="439" y="440" type="curve"/>
      <point x="409" y="486"/>
      <point x="360" y="531"/>
      <point x="322" y="559" type="curve"/>
      <point x="312" y="541"/>
      <point x="303" y="519"/>
    </contour>
  </outline>
</glyph>
<glyph name="uni0DB6" format="1">
  <advance width="619"/>
  <unicode hex="0DB6"/>
  <outline>
    <contour>
      <point x="101" y="76" type="curve" smooth="yes"/>
      <point x="101" y="50"/>
      <point x="124" y="27"/>
      <point x="150" y="27" type="curve" smooth="yes"/>
      <point x="176" y="27"/>
      <point x="199" y="50"/>
      <point x="199" y="76" type="curve" smooth="yes"/>
      <point x="199" y="102"/>
      <point x="176" y="125"/>
      <point x="150" y="125" type="curve" smooth="yes"/>
      <point x="124" y="125"/>
      <point x="101" y="102"/>
    </contour>
    <contour>
      <point x="33" y="187" type="curve" smooth="yes"/>
      <point x="33" y="314"/>
      <point x="122" y="396"/>
      <point x="243" y="396" type="curve" smooth="yes"/>
      <point x="335" y="396"/>
      <point x="415" y="349"/>
      <point x="415" y="261" type="curve" smooth="yes"/>
      <point x="415" y="140"/>
      <point x="299" y="171"/>
      <point x="299" y="112" type="curve" smooth="yes"/>
      <point x="299" y="89"/>
      <point x="319" y="81"/>
      <point x="344" y="81" type="curve" smooth="yes"/>
      <point x="449" y="81"/>
      <point x="519" y="214"/>
      <point x="519" y="330" type="curve" smooth="yes"/>
      <point x="519" y="464"/>
      <point x="435" y="560"/>
      <point x="292" y="560" type="curve" smooth="yes"/>
      <point x="198" y="560"/>
      <point x="134" y="529"/>
      <point x="95" y="470" type="curve"/>
      <point x="64" y="470" type="line"/>
      <point x="99" y="542"/>
      <point x="179" y="585"/>
      <point x="292" y="585" type="curve" smooth="yes"/>
      <point x="470" y="585"/>
      <point x="575" y="465"/>
      <point x="575" y="284" type="curve" smooth="yes"/>
      <point x="575" y="141"/>
      <point x="518" y="-2"/>
      <point x="381" y="-2" type="curve" smooth="yes"/>
      <point x="313" y="-2"/>
      <point x="267" y="41"/>
      <point x="267" y="100" type="curve" smooth="yes"/>
      <point x="267" y="188"/>
      <point x="364" y="163"/>
      <point x="364" y="234" type="curve" smooth="yes"/>
      <point x="364" y="278"/>
      <point x="309" y="302"/>
      <point x="237" y="302" type="curve" smooth="yes"/>
      <point x="146" y="302"/>
      <point x="66" y="248"/>
      <point x="66" y="152" type="curve" smooth="yes"/>
      <point x="66" y="134"/>
      <point x="70" y="105"/>
      <point x="77" y="91" type="curve"/>
      <point x="81" y="126"/>
      <point x="109" y="153"/>
      <point x="150" y="153" type="curve" smooth="yes"/>
      <point x="193" y="153"/>
      <point x="229" y="119"/>
      <point x="229" y="77" type="curve" smooth="yes"/>
      <point x="229" y="29"/>
      <point x="190" y="-1"/>
      <point x="150" y="-1" type="curve" smooth="yes"/>
      <point x="68" y="-1"/>
      <point x="33" y="91"/>
    </contour>
  </outline>
</glyph>
<glyph name="si_Bha" format="1">
  <advance width="670"/>
  <unicode hex="0DB7"/>
  <outline>
    <contour>
      <point x="6" y="270" type="curve"/>
      <point x="6" y="303" type="line"/>
      <point x="213" y="303" type="line"/>
      <point x="171" y="277" type="line"/>
      <point x="140" y="277" type="line" smooth="yes"/>
      <point x="69" y="276"/>
      <point x="22" y="273"/>
    </contour>
    <contour>
      <point x="49" y="155" type="curve" smooth="yes"/>
      <point x="49" y="250"/>
      <point x="144" y="303"/>
      <point x="216" y="303" type="curve" smooth="yes"/>
      <point x="220" y="303"/>
      <point x="218" y="303"/>
      <point x="221" y="303" type="curve"/>
      <point x="221" y="344"/>
      <point x="197" y="381"/>
      <point x="163" y="381" type="curve" smooth="yes"/>
      <point x="145" y="381"/>
      <point x="133" y="372"/>
      <point x="125" y="354" type="curve" smooth="yes"/>
      <point x="118" y="337"/>
      <point x="104" y="325"/>
      <point x="85" y="325" type="curve" smooth="yes"/>
      <point x="64" y="325"/>
      <point x="49" y="339"/>
      <point x="49" y="364" type="curve" smooth="yes"/>
      <point x="49" y="394"/>
      <point x="78" y="432"/>
      <point x="134" y="432" type="curve" smooth="yes"/>
      <point x="213" y="432"/>
      <point x="254" y="360"/>
      <point x="255" y="277" type="curve"/>
      <point x="243" y="279"/>
      <point x="233" y="279"/>
      <point x="226" y="279" type="curve" smooth="yes"/>
      <point x="157" y="279"/>
      <point x="96" y="245"/>
      <point x="96" y="189" type="curve" smooth="yes"/>
      <point x="96" y="127"/>
      <point x="160" y="100"/>
      <point x="226" y="100" type="curve" smooth="yes"/>
      <point x="280" y="100"/>
      <point x="341" y="121"/>
      <point x="341" y="175" type="curve" smooth="yes"/>
      <point x="341" y="200"/>
      <point x="328" y="213"/>
      <point x="311" y="213" type="curve" smooth="yes"/>
      <point x="298" y="213"/>
      <point x="285" y="205"/>
      <point x="278" y="184" type="curve"/>
      <point x="255" y="193" type="line"/>
      <point x="264" y="318"/>
      <point x="345" y="432"/>
      <point x="446" y="432" type="curve" smooth="yes"/>
      <point x="558" y="432"/>
      <point x="621" y="329"/>
      <point x="621" y="211" type="curve" smooth="yes"/>
      <point x="621" y="92"/>
      <point x="532" y="-1"/>
      <point x="409" y="-1" type="curve" smooth="yes"/>
      <point x="396" y="-1"/>
      <point x="382" y="0"/>
      <point x="368" y="2" type="curve"/>
      <point x="368" y="30" type="line"/>
      <point x="380" y="28"/>
      <point x="392" y="27"/>
      <point x="404" y="27" type="curve" smooth="yes"/>
      <point x="499" y="27"/>
      <point x="548" y="101"/>
      <point x="548" y="182" type="curve" smooth="yes"/>
      <point x="548" y="264"/>
      <point x="504" y="342"/>
      <point x="413" y="342" type="curve" smooth="yes"/>
      <point x="340" y="342"/>
      <point x="304" y="296"/>
      <point x="288" y="231" type="curve"/>
      <point x="298" y="237"/>
      <point x="307" y="239"/>
      <point x="316" y="239" type="curve" smooth="yes"/>
      <point x="356" y="239"/>
      <point x="382" y="199"/>
      <point x="382" y="145" type="curve" smooth="yes"/>
      <point x="382" y="53"/>
      <point x="312" y="-1"/>
      <point x="217" y="-1" type="curve" smooth="yes"/>
      <point x="119" y="-1"/>
      <point x="49" y="61"/>
    </contour>
  </outline>
</glyph>
<glyph name="uni0DBB" format="1">
  <advance width="528"/>
  <unicode hex="0DBB"/>
  <outline>
    <contour>
      <point x="31" y="213" type="curve" smooth="yes"/>
      <point x="31" y="323"/>
      <point x="95" y="385"/>
      <point x="174" y="418" type="curve" smooth="yes"/>
      <point x="240" y="445"/>
      <point x="316" y="463"/>
      <point x="393" y="520" type="curve" smooth="yes"/>
      <point x="446" y="560"/>
      <point x="458" y="610"/>
      <point x="497" y="610" type="curve" smooth="yes"/>
      <point x="511" y="610"/>
      <point x="526" y="602"/>
      <point x="526" y="585" type="curve" smooth="yes"/>
      <point x="526" y="559"/>
      <point x="503" y="530"/>
      <point x="441" y="496" type="curve" smooth="yes"/>
      <point x="404" y="476"/>
      <point x="334" y="446"/>
      <point x="291" y="434" type="curve"/>
      <point x="336" y="433"/>
      <point x="390" y="411"/>
      <point x="430" y="366" type="curve" smooth="yes"/>
      <point x="465" y="326"/>
      <point x="482" y="281"/>
      <point x="482" y="225" type="curve" smooth="yes"/>
      <point x="482" y="102"/>
      <point x="384" y="0"/>
      <point x="248" y="0" type="curve" smooth="yes"/>
      <point x="124" y="0"/>
      <point x="31" y="89"/>
    </contour>
    <contour>
      <point x="71" y="245" type="curve" smooth="yes"/>
      <point x="71" y="166"/>
      <point x="127" y="100"/>
      <point x="235" y="100" type="curve" smooth="yes"/>
      <point x="340" y="100"/>
      <point x="420" y="166"/>
      <point x="420" y="269" type="curve" smooth="yes"/>
      <point x="420" y="358"/>
      <point x="354" y="411"/>
      <point x="262" y="411" type="curve" smooth="yes"/>
      <point x="173" y="411"/>
      <point x="71" y="344"/>
    </contour>
  </outline>
</glyph>
<glyph name="uni0DC0" format="1">
  <advance width="597"/>
  <unicode hex="0DC0"/>
  <outline>
    <contour>
      <point x="33" y="165" type="curve" smooth="yes"/>
      <point x="33" y="250"/>
      <point x="98" y="304"/>
      <point x="199" y="304" type="curve" smooth="yes"/>
      <point x="258" y="304" type="line"/>
      <point x="258" y="306"/>
      <point x="258" y="306"/>
      <point x="258" y="308" type="curve" smooth="yes"/>
      <point x="258" y="360"/>
      <point x="225" y="392"/>
      <point x="190" y="392" type="curve" smooth="yes"/>
      <point x="149" y="392"/>
      <point x="140" y="371"/>
      <point x="134" y="355" type="curve" smooth="yes"/>
      <point x="128" y="336"/>
      <point x="117" y="321"/>
      <point x="94" y="321" type="curve" smooth="yes"/>
      <point x="75" y="321"/>
      <point x="56" y="333"/>
      <point x="56" y="359" type="curve" smooth="yes"/>
      <point x="56" y="406"/>
      <point x="106" y="432"/>
      <point x="161" y="432" type="curve" smooth="yes"/>
      <point x="249" y="432"/>
      <point x="292" y="376"/>
      <point x="292" y="290" type="curve" smooth="yes"/>
      <point x="292" y="287"/>
      <point x="292" y="282"/>
      <point x="292" y="279" type="curve"/>
      <point x="206" y="279" type="line" smooth="yes"/>
      <point x="132" y="279"/>
      <point x="82" y="247"/>
      <point x="82" y="194" type="curve" smooth="yes"/>
      <point x="82" y="118"/>
      <point x="187" y="99"/>
      <point x="270" y="99" type="curve" smooth="yes"/>
      <point x="423" y="99"/>
      <point x="505" y="180"/>
      <point x="505" y="307" type="curve" smooth="yes"/>
      <point x="505" y="440"/>
      <point x="410" y="552"/>
      <point x="276" y="552" type="curve" smooth="yes"/>
      <point x="197" y="552"/>
      <point x="135" y="524"/>
      <point x="90" y="470" type="curve"/>
      <point x="57" y="470" type="line"/>
      <point x="106" y="540"/>
      <point x="178" y="577"/>
      <point x="276" y="577" type="curve" smooth="yes"/>
      <point x="436" y="577"/>
      <point x="548" y="443"/>
      <point x="548" y="274" type="curve" smooth="yes"/>
      <point x="548" y="114"/>
      <point x="450" y="0"/>
      <point x="267" y="0" type="curve" smooth="yes"/>
      <point x="146" y="0"/>
      <point x="33" y="46"/>
    </contour>
  </outline>
</glyph>
<glyph name="uni0DC1" format="1">
  <advance width="631"/>
  <unicode hex="0DC1"/>
  <outline>
    <contour>
      <point x="34" y="206" type="curve" smooth="yes"/>
      <point x="34" y="334"/>
      <point x="107" y="432"/>
      <point x="234" y="432" type="curve" smooth="yes"/>
      <point x="238" y="432"/>
      <point x="248" y="432"/>
      <point x="251" y="431" type="curve"/>
      <point x="251" y="407" type="line"/>
      <point x="247" y="408"/>
      <point x="242" y="408"/>
      <point x="238" y="408" type="curve" smooth="yes"/>
      <point x="140" y="408"/>
      <point x="76" y="340"/>
      <point x="76" y="245" type="curve" smooth="yes"/>
      <point x="76" y="175"/>
      <point x="114" y="99"/>
      <point x="204" y="99" type="curve" smooth="yes"/>
      <point x="253" y="99"/>
      <point x="303" y="122"/>
      <point x="303" y="171" type="curve" smooth="yes"/>
      <point x="303" y="199"/>
      <point x="289" y="218"/>
      <point x="260" y="218" type="curve" smooth="yes"/>
      <point x="254" y="218"/>
      <point x="246" y="217"/>
      <point x="238" y="211" type="curve"/>
      <point x="236" y="206"/>
      <point x="235" y="197"/>
      <point x="234" y="192" type="curve"/>
      <point x="208" y="192" type="line"/>
      <point x="222" y="328"/>
      <point x="276" y="432"/>
      <point x="399" y="432" type="curve" smooth="yes"/>
      <point x="523" y="432"/>
      <point x="582" y="312"/>
      <point x="582" y="196" type="curve" smooth="yes"/>
      <point x="582" y="128"/>
      <point x="558" y="37"/>
      <point x="529" y="1" type="curve"/>
      <point x="501" y="1" type="line"/>
      <point x="505" y="6"/>
      <point x="506" y="10"/>
      <point x="506" y="14" type="curve" smooth="yes"/>
      <point x="506" y="21"/>
      <point x="502" y="26"/>
      <point x="495" y="26" type="curve" smooth="yes"/>
      <point x="474" y="26"/>
      <point x="465" y="-3"/>
      <point x="427" y="-3" type="curve" smooth="yes"/>
      <point x="390" y="-3"/>
      <point x="367" y="36"/>
      <point x="367" y="75" type="curve" smooth="yes"/>
      <point x="367" y="138"/>
      <point x="413" y="184"/>
      <point x="482" y="184" type="curve" smooth="yes"/>
      <point x="495" y="184"/>
      <point x="514" y="182"/>
      <point x="525" y="178" type="curve"/>
      <point x="520" y="266"/>
      <point x="467" y="349"/>
      <point x="376" y="349" type="curve" smooth="yes"/>
      <point x="309" y="349"/>
      <point x="252" y="306"/>
      <point x="241" y="239" type="curve"/>
      <point x="248" y="242"/>
      <point x="255" y="243"/>
      <point x="262" y="243" type="curve" smooth="yes"/>
      <point x="310" y="243"/>
      <point x="343" y="208"/>
      <point x="343" y="138" type="curve" smooth="yes"/>
      <point x="343" y="62"/>
      <point x="289" y="-1"/>
      <point x="198" y="-1" type="curve" smooth="yes"/>
      <point x="91" y="-1"/>
      <point x="34" y="92"/>
    </contour>
    <contour>
      <point x="399" y="79" type="curve" smooth="yes"/>
      <point x="399" y="51"/>
      <point x="409" y="28"/>
      <point x="433" y="28" type="curve" smooth="yes"/>
      <point x="458" y="28"/>
      <point x="475" y="54"/>
      <point x="497" y="54" type="curve" smooth="yes"/>
      <point x="505" y="54"/>
      <point x="512" y="50"/>
      <point x="515" y="44" type="curve"/>
      <point x="522" y="67"/>
      <point x="526" y="98"/>
      <point x="526" y="125" type="curve" smooth="yes"/>
      <point x="527" y="133"/>
      <point x="527" y="142"/>
      <point x="527" y="149" type="curve"/>
      <point x="514" y="155"/>
      <point x="498" y="158"/>
      <point x="482" y="158" type="curve" smooth="yes"/>
      <point x="434" y="158"/>
      <point x="399" y="125"/>
    </contour>
  </outline>
</glyph>
<glyph name="si_Ssa" format="1">
  <advance width="608"/>
  <unicode hex="0DC2"/>
  <outline>
    <contour>
      <point x="31" y="184" type="curve" smooth="yes"/>
      <point x="31" y="275"/>
      <point x="99" y="327"/>
      <point x="207" y="327" type="curve" smooth="yes"/>
      <point x="220" y="327"/>
      <point x="231" y="326"/>
      <point x="244" y="325" type="curve"/>
      <point x="244" y="329"/>
      <point x="245" y="332"/>
      <point x="245" y="336" type="curve" smooth="yes"/>
      <point x="245" y="374"/>
      <point x="219" y="394"/>
      <point x="189" y="394" type="curve" smooth="yes"/>
      <point x="159" y="394"/>
      <point x="147" y="378"/>
      <point x="143" y="360" type="curve" smooth="yes"/>
      <point x="139" y="346"/>
      <point x="125" y="327"/>
      <point x="96" y="327" type="curve" smooth="yes"/>
      <point x="76" y="327"/>
      <point x="55" y="340"/>
      <point x="55" y="365" type="curve" smooth="yes"/>
      <point x="55" y="409"/>
      <point x="103" y="434"/>
      <point x="158" y="434" type="curve" smooth="yes"/>
      <point x="231" y="434"/>
      <point x="275" y="401"/>
      <point x="275" y="334" type="curve" smooth="yes"/>
      <point x="275" y="323"/>
      <point x="274" y="311"/>
      <point x="271" y="298" type="curve"/>
      <point x="253" y="300"/>
      <point x="218" y="302"/>
      <point x="217" y="302" type="curve" smooth="yes"/>
      <point x="145" y="302"/>
      <point x="79" y="279"/>
      <point x="79" y="213" type="curve" smooth="yes"/>
      <point x="79" y="128"/>
      <point x="197" y="96"/>
      <point x="305" y="96" type="curve" smooth="yes"/>
      <point x="414" y="96"/>
      <point x="529" y="130"/>
      <point x="529" y="214" type="curve" smooth="yes"/>
      <point x="529" y="280"/>
      <point x="466" y="304"/>
      <point x="394" y="304" type="curve" smooth="yes"/>
      <point x="371" y="304"/>
      <point x="347" y="301"/>
      <point x="324" y="297" type="curve"/>
      <point x="322" y="308"/>
      <point x="321" y="318"/>
      <point x="321" y="328" type="curve" smooth="yes"/>
      <point x="321" y="397"/>
      <point x="366" y="433"/>
      <point x="439" y="433" type="curve" smooth="yes"/>
      <point x="505" y="433"/>
      <point x="541" y="393"/>
      <point x="541" y="354" type="curve" smooth="yes"/>
      <point x="541" y="334"/>
      <point x="533" y="317"/>
      <point x="514" y="303" type="curve"/>
      <point x="554" y="279"/>
      <point x="574" y="241"/>
      <point x="574" y="186" type="curve" smooth="yes"/>
      <point x="574" y="56"/>
      <point x="448" y="0"/>
      <point x="307" y="0" type="curve" smooth="yes"/>
      <point x="159" y="0"/>
      <point x="31" y="46"/>
    </contour>
    <contour>
      <point x="354" y="337" type="curve" smooth="yes"/>
      <point x="354" y="333"/>
      <point x="354" y="330"/>
      <point x="355" y="326" type="curve"/>
      <point x="371" y="328"/>
      <point x="387" y="329"/>
      <point x="403" y="329" type="curve" smooth="yes"/>
      <point x="435" y="329"/>
      <point x="463" y="324"/>
      <point x="487" y="315" type="curve"/>
      <point x="498" y="326"/>
      <point x="503" y="338"/>
      <point x="503" y="351" type="curve" smooth="yes"/>
      <point x="503" y="380"/>
      <point x="478" y="404"/>
      <point x="432" y="404" type="curve" smooth="yes"/>
      <point x="390" y="404"/>
      <point x="354" y="381"/>
    </contour>
    <contour>
      <point x="172" y="206" type="curve" smooth="yes"/>
      <point x="172" y="234"/>
      <point x="192" y="262"/>
      <point x="288" y="262" type="curve" smooth="yes"/>
      <point x="316" y="262"/>
      <point x="358" y="264"/>
      <point x="389" y="269" type="curve" smooth="yes"/>
      <point x="428" y="275"/>
      <point x="461" y="292"/>
      <point x="470" y="300" type="curve"/>
      <point x="499" y="290" type="line"/>
      <point x="477" y="272"/>
      <point x="439" y="255"/>
      <point x="399" y="248" type="curve"/>
      <point x="418" y="239"/>
      <point x="432" y="224"/>
      <point x="432" y="205" type="curve" smooth="yes"/>
      <point x="432" y="162"/>
      <point x="375" y="146"/>
      <point x="296" y="146" type="curve" smooth="yes"/>
      <point x="240" y="146"/>
      <point x="172" y="159"/>
    </contour>
    <contour>
      <point x="203" y="208" type="curve" smooth="yes"/>
      <point x="203" y="186"/>
      <point x="235" y="172"/>
      <point x="299" y="172" type="curve" smooth="yes"/>
      <point x="367" y="172"/>
      <point x="402" y="185"/>
      <point x="402" y="206" type="curve" smooth="yes"/>
      <point x="402" y="230"/>
      <point x="368" y="240"/>
      <point x="298" y="240" type="curve" smooth="yes"/>
      <point x="233" y="240"/>
      <point x="203" y="229"/>
    </contour>
  </outline>
</glyph>
<glyph name="uni0DC3" format="1">
  <advance width="677"/>
  <unicode hex="0DC3"/>
  <outline>
    <contour>
      <point x="51" y="154" type="curve" smooth="yes"/>
      <point x="51" y="226"/>
      <point x="92" y="269"/>
      <point x="144" y="285" type="curve"/>
      <point x="178" y="297"/>
      <point x="232" y="308"/>
      <point x="269" y="308" type="curve" smooth="yes"/>
      <point x="282" y="308" type="line"/>
      <point x="282" y="310"/>
      <point x="282" y="309"/>
      <point x="282" y="311" type="curve" smooth="yes"/>
      <point x="282" y="357"/>
      <point x="249" y="393"/>
      <point x="215" y="393" type="curve" smooth="yes"/>
      <point x="175" y="393"/>
      <point x="165" y="370"/>
      <point x="160" y="354" type="curve" smooth="yes"/>
      <point x="153" y="335"/>
      <point x="142" y="322"/>
      <point x="119" y="322" type="curve" smooth="yes"/>
      <point x="101" y="322"/>
      <point x="82" y="333"/>
      <point x="82" y="359" type="curve" smooth="yes"/>
      <point x="82" y="405"/>
      <point x="132" y="432"/>
      <point x="187" y="432" type="curve" smooth="yes"/>
      <point x="275" y="432"/>
      <point x="313" y="369"/>
      <point x="313" y="296" type="curve" smooth="yes"/>
      <point x="313" y="293"/>
      <point x="313" y="285"/>
      <point x="313" y="282" type="curve"/>
      <point x="223" y="282" type="line" smooth="yes"/>
      <point x="170" y="282"/>
      <point x="102" y="255"/>
      <point x="102" y="191" type="curve" smooth="yes"/>
      <point x="102" y="141"/>
      <point x="146" y="99"/>
      <point x="217" y="99" type="curve" smooth="yes"/>
      <point x="273" y="99"/>
      <point x="321" y="125"/>
      <point x="321" y="171" type="curve" smooth="yes"/>
      <point x="321" y="195" type="line"/>
      <point x="348" y="195" type="line"/>
      <point x="348" y="171" type="line" smooth="yes"/>
      <point x="348" y="121"/>
      <point x="398" y="99"/>
      <point x="460" y="99" type="curve" smooth="yes"/>
      <point x="530" y="99"/>
      <point x="579" y="137"/>
      <point x="579" y="197" type="curve" smooth="yes"/>
      <point x="579" y="257"/>
      <point x="538" y="290"/>
      <point x="450" y="290" type="curve" smooth="yes"/>
      <point x="418" y="290"/>
      <point x="391" y="288"/>
      <point x="353" y="281" type="curve"/>
      <point x="353" y="285"/>
      <point x="353" y="287"/>
      <point x="353" y="291" type="curve" smooth="yes"/>
      <point x="353" y="375"/>
      <point x="401" y="432"/>
      <point x="476" y="432" type="curve" smooth="yes"/>
      <point x="530" y="432"/>
      <point x="579" y="408"/>
      <point x="579" y="350" type="curve" smooth="yes"/>
      <point x="579" y="329"/>
      <point x="565" y="306"/>
      <point x="550" y="297" type="curve"/>
      <point x="597" y="274"/>
      <point x="628" y="221"/>
      <point x="628" y="166" type="curve" smooth="yes"/>
      <point x="628" y="58"/>
      <point x="558" y="0"/>
      <point x="460" y="0" type="curve" smooth="yes"/>
      <point x="395" y="0"/>
      <point x="352" y="31"/>
      <point x="333" y="82" type="curve"/>
      <point x="312" y="30"/>
      <point x="271" y="-1"/>
      <point x="203" y="-1" type="curve" smooth="yes"/>
      <point x="108" y="-1"/>
      <point x="51" y="76"/>
    </contour>
    <contour>
      <point x="5" y="275" type="curve"/>
      <point x="5" y="308" type="line"/>
      <point x="280" y="308" type="line"/>
      <point x="309" y="282" type="line"/>
      <point x="147" y="282" type="line" smooth="yes"/>
      <point x="76" y="281"/>
      <point x="21" y="278"/>
    </contour>
    <contour>
      <point x="383" y="310" type="curve"/>
      <point x="394" y="313"/>
      <point x="421" y="316"/>
      <point x="445" y="316" type="curve" smooth="yes"/>
      <point x="479" y="316"/>
      <point x="502" y="313"/>
      <point x="524" y="306" type="curve"/>
      <point x="534" y="317"/>
      <point x="538" y="332"/>
      <point x="538" y="344" type="curve" smooth="yes"/>
      <point x="538" y="376"/>
      <point x="506" y="390"/>
      <point x="470" y="390" type="curve" smooth="yes"/>
      <point x="418" y="390"/>
      <point x="388" y="361"/>
    </contour>
  </outline>
</glyph>
<glyph name="si_Ha" format="1">
  <advance width="653"/>
  <unicode hex="0DC4"/>
  <outline>
    <contour>
      <point x="33" y="155" type="curve" smooth="yes"/>
      <point x="33" y="246"/>
      <point x="100" y="303"/>
      <point x="194" y="303" type="curve" smooth="yes"/>
      <point x="198" y="303"/>
      <point x="201" y="303"/>
      <point x="205" y="303" type="curve"/>
      <point x="205" y="344"/>
      <point x="181" y="381"/>
      <point x="147" y="381" type="curve" smooth="yes"/>
      <point x="129" y="381"/>
      <point x="117" y="372"/>
      <point x="109" y="354" type="curve" smooth="yes"/>
      <point x="102" y="337"/>
      <point x="88" y="325"/>
      <point x="69" y="325" type="curve" smooth="yes"/>
      <point x="48" y="325"/>
      <point x="33" y="339"/>
      <point x="33" y="364" type="curve" smooth="yes"/>
      <point x="33" y="394"/>
      <point x="62" y="432"/>
      <point x="118" y="432" type="curve" smooth="yes"/>
      <point x="197" y="432"/>
      <point x="238" y="360"/>
      <point x="239" y="277" type="curve"/>
      <point x="227" y="278"/>
      <point x="216" y="279"/>
      <point x="205" y="279" type="curve" smooth="yes"/>
      <point x="125" y="279"/>
      <point x="80" y="244"/>
      <point x="80" y="190" type="curve" smooth="yes"/>
      <point x="80" y="127"/>
      <point x="144" y="100"/>
      <point x="210" y="100" type="curve" smooth="yes"/>
      <point x="264" y="100"/>
      <point x="325" y="121"/>
      <point x="325" y="175" type="curve" smooth="yes"/>
      <point x="325" y="200"/>
      <point x="312" y="213"/>
      <point x="295" y="213" type="curve" smooth="yes"/>
      <point x="282" y="213"/>
      <point x="269" y="205"/>
      <point x="262" y="184" type="curve"/>
      <point x="239" y="193" type="line"/>
      <point x="248" y="318"/>
      <point x="329" y="432"/>
      <point x="430" y="432" type="curve" smooth="yes"/>
      <point x="542" y="432"/>
      <point x="605" y="329"/>
      <point x="605" y="211" type="curve" smooth="yes"/>
      <point x="605" y="92"/>
      <point x="516" y="-1"/>
      <point x="393" y="-1" type="curve" smooth="yes"/>
      <point x="380" y="-1"/>
      <point x="366" y="0"/>
      <point x="352" y="2" type="curve"/>
      <point x="352" y="30" type="line"/>
      <point x="364" y="28"/>
      <point x="376" y="27"/>
      <point x="388" y="27" type="curve" smooth="yes"/>
      <point x="483" y="27"/>
      <point x="532" y="101"/>
      <point x="532" y="182" type="curve" smooth="yes"/>
      <point x="532" y="264"/>
      <point x="488" y="342"/>
      <point x="397" y="342" type="curve" smooth="yes"/>
      <point x="324" y="342"/>
      <point x="288" y="296"/>
      <point x="272" y="231" type="curve"/>
      <point x="282" y="237"/>
      <point x="291" y="239"/>
      <point x="300" y="239" type="curve" smooth="yes"/>
      <point x="340" y="239"/>
      <point x="366" y="199"/>
      <point x="366" y="145" type="curve" smooth="yes"/>
      <point x="366" y="53"/>
      <point x="296" y="-1"/>
      <point x="201" y="-1" type="curve" smooth="yes"/>
      <point x="103" y="-1"/>
      <point x="33" y="61"/>
    </contour>
  </outline>
</glyph>
<glyph name="si_Lla" format="1">
  <advance width="636"/>
  <unicode hex="0DC5"/>
  <outline>
    <contour>
      <point x="31" y="114" type="curve" smooth="yes"/>
      <point x="31" y="192"/>
      <point x="80" y="297"/>
      <point x="179" y="297" type="curve" smooth="yes"/>
      <point x="541" y="297" type="line"/>
      <point x="541" y="351"/>
      <point x="510" y="403"/>
      <point x="444" y="403" type="curve" smooth="yes"/>
      <point x="398" y="403"/>
      <point x="364" y="365"/>
      <point x="364" y="330" type="curve"/>
      <point x="333" y="330" type="line"/>
      <point x="333" y="364"/>
      <point x="302" y="403"/>
      <point x="259" y="403" type="curve" smooth="yes"/>
      <point x="203" y="403"/>
      <point x="167" y="360"/>
      <point x="167" y="285" type="curve" smooth="yes"/>
      <point x="167" y="176"/>
      <point x="246" y="118"/>
      <point x="341" y="118" type="curve" smooth="yes"/>
      <point x="418" y="118"/>
      <point x="473" y="141"/>
      <point x="499" y="178" type="curve"/>
      <point x="528" y="178" type="line"/>
      <point x="505" y="90"/>
      <point x="437" y="43"/>
      <point x="334" y="43" type="curve" smooth="yes"/>
      <point x="218" y="43"/>
      <point x="126" y="138"/>
      <point x="126" y="274" type="curve" smooth="yes"/>
      <point x="126" y="373"/>
      <point x="187" y="432"/>
      <point x="260" y="432" type="curve" smooth="yes"/>
      <point x="296" y="432"/>
      <point x="333" y="415"/>
      <point x="349" y="377" type="curve"/>
      <point x="367" y="415"/>
      <point x="409" y="432"/>
      <point x="445" y="432" type="curve" smooth="yes"/>
      <point x="532" y="432"/>
      <point x="576" y="363"/>
      <point x="576" y="270" type="curve"/>
      <point x="228" y="270" type="line" smooth="yes"/>
      <point x="186" y="270"/>
      <point x="120" y="246"/>
      <point x="120" y="154" type="curve" smooth="yes"/>
      <point x="120" y="14"/>
      <point x="232" y="-91"/>
      <point x="385" y="-91" type="curve" smooth="yes"/>
      <point x="488" y="-91"/>
      <point x="587" y="-30"/>
      <point x="590" y="74" type="curve"/>
      <point x="618" y="74" type="line"/>
      <point x="618" y="-68"/>
      <point x="472" y="-153"/>
      <point x="343" y="-153" type="curve" smooth="yes"/>
      <point x="168" y="-153"/>
      <point x="31" y="-57"/>
    </contour>
  </outline>
</glyph>
<glyph name="si_Fa" format="1">
  <advance width="607"/>
  <unicode hex="0DC6"/>
  <outline>
    <contour>
      <point x="33" y="212" type="curve" smooth="yes"/>
      <point x="33" y="316"/>
      <point x="78" y="431"/>
      <point x="186" y="431" type="curve" smooth="yes"/>
      <point x="246" y="431"/>
      <point x="280" y="398"/>
      <point x="296" y="359" type="curve"/>
      <point x="312" y="398"/>
      <point x="346" y="431"/>
      <point x="406" y="431" type="curve" smooth="yes"/>
      <point x="514" y="431"/>
      <point x="559" y="316"/>
      <point x="559" y="212" type="curve" smooth="yes"/>
      <point x="559" y="110"/>
      <point x="511" y="-1"/>
      <point x="410" y="-1" type="curve" smooth="yes"/>
      <point x="398" y="-1"/>
      <point x="385" y="1"/>
      <point x="372" y="6" type="curve"/>
      <point x="372" y="33" type="line"/>
      <point x="383" y="29"/>
      <point x="394" y="27"/>
      <point x="405" y="27" type="curve" smooth="yes"/>
      <point x="476" y="27"/>
      <point x="515" y="99"/>
      <point x="515" y="185" type="curve" smooth="yes"/>
      <point x="515" y="255"/>
      <point x="492" y="334"/>
      <point x="406" y="334" type="curve" smooth="yes"/>
      <point x="354" y="334"/>
      <point x="312" y="308"/>
      <point x="312" y="237" type="curve" smooth="yes"/>
      <point x="312" y="205" type="line"/>
      <point x="280" y="205" type="line"/>
      <point x="280" y="237" type="line" smooth="yes"/>
      <point x="280" y="308"/>
      <point x="238" y="334"/>
      <point x="186" y="334" type="curve" smooth="yes"/>
      <point x="100" y="334"/>
      <point x="76" y="254"/>
      <point x="76" y="184" type="curve" smooth="yes"/>
      <point x="76" y="99"/>
      <point x="116" y="27"/>
      <point x="187" y="27" type="curve" smooth="yes"/>
      <point x="198" y="27"/>
      <point x="209" y="29"/>
      <point x="220" y="33" type="curve"/>
      <point x="220" y="6" type="line"/>
      <point x="207" y="1"/>
      <point x="194" y="-1"/>
      <point x="182" y="-1" type="curve" smooth="yes"/>
      <point x="81" y="-1"/>
      <point x="33" y="110"/>
    </contour>
  </outline>
</glyph>
<glyph name="uni0DCA" format="1">
  <advance width="2"/>
  <unicode hex="0DCA"/>
  <outline>
    <contour>
      <point x="-141" y="348" type="line"/>
      <point x="-141" y="681" type="line"/>
      <point x="-87" y="639"/>
      <point x="10" y="634"/>
      <point x="10" y="542" type="curve" smooth="yes"/>
      <point x="10" y="498"/>
      <point x="-25" y="468"/>
      <point x="-68" y="468" type="curve" smooth="yes"/>
      <point x="-83" y="468"/>
      <point x="-98" y="471"/>
      <point x="-113" y="478" type="curve"/>
      <point x="-113" y="331" type="line"/>
    </contour>
    <contour>
      <point x="-113" y="503" type="line"/>
      <point x="-104" y="499"/>
      <point x="-93" y="496"/>
      <point x="-80" y="496" type="curve" smooth="yes"/>
      <point x="-45" y="496"/>
      <point x="-30" y="521"/>
      <point x="-30" y="545" type="curve" smooth="yes"/>
      <point x="-30" y="587"/>
      <point x="-66" y="607"/>
      <point x="-113" y="638" type="curve"/>
    </contour>
  </outline>
</glyph>
<glyph name="uni0DCF" format="1">
  <advance width="312"/>
  <unicode hex="0DCF"/>
  <outline>
    <contour>
      <point x="22" y="110" type="curve" smooth="yes"/>
      <point x="22" y="118"/>
      <point x="22" y="125"/>
      <point x="23" y="132" type="curve"/>
      <point x="50" y="132" type="line"/>
      <point x="49" y="128"/>
      <point x="49" y="123"/>
      <point x="49" y="117" type="curve" smooth="yes"/>
      <point x="49" y="69"/>
      <point x="73" y="48"/>
      <point x="104" y="48" type="curve" smooth="yes"/>
      <point x="149" y="49"/>
      <point x="174" y="91"/>
      <point x="174" y="201" type="curve" smooth="yes"/>
      <point x="174" y="311"/>
      <point x="148" y="354"/>
      <point x="104" y="354" type="curve" smooth="yes"/>
      <point x="78" y="354"/>
      <point x="49" y="332"/>
      <point x="49" y="285" type="curve" smooth="yes"/>
      <point x="49" y="279"/>
      <point x="49" y="274"/>
      <point x="50" y="270" type="curve"/>
      <point x="23" y="270" type="line"/>
      <point x="22" y="277"/>
      <point x="22" y="284"/>
      <point x="22" y="292" type="curve" smooth="yes"/>
      <point x="22" y="361"/>
      <point x="74" y="403"/>
      <point x="133" y="403" type="curve" smooth="yes"/>
      <point x="224" y="403"/>
      <point x="270" y="329"/>
      <point x="270" y="201" type="curve" smooth="yes"/>
      <point x="270" y="73"/>
      <point x="224" y="-1"/>
      <point x="133" y="-1" type="curve" smooth="yes"/>
      <point x="66" y="-1"/>
      <point x="22" y="41"/>
    </contour>
  </outline>
</glyph>
<glyph name="uni0DD1" format="1">
  <advance width="336"/>
  <unicode hex="0DD1"/>
  <outline>
    <contour>
      <point x="4" y="314" type="line"/>
      <point x="4" y="339" type="line"/>
      <point x="249" y="339" type="line"/>
      <point x="249" y="317" type="line"/>
      <point x="122" y="223" type="line"/>
      <point x="272" y="223" type="line"/>
      <point x="272" y="201" type="line"/>
      <point x="226" y="167"/>
      <point x="171" y="105"/>
      <point x="171" y="22" type="curve" smooth="yes"/>
      <point x="171" y="-55"/>
      <point x="221" y="-104"/>
      <point x="306" y="-104" type="curve"/>
      <point x="306" y="-129" type="line"/>
      <point x="278" y="-142"/>
      <point x="247" y="-148"/>
      <point x="220" y="-148" type="curve" smooth="yes"/>
      <point x="129" y="-148"/>
      <point x="76" y="-95"/>
      <point x="76" y="-14" type="curve" smooth="yes"/>
      <point x="76" y="85"/>
      <point x="165" y="155"/>
      <point x="232" y="198" type="curve"/>
      <point x="72" y="198" type="line"/>
      <point x="72" y="219" type="line"/>
      <point x="202" y="314" type="line"/>
    </contour>
  </outline>
</glyph>
<glyph name="uni0DD2" format="1">
  <advance width="2"/>
  <unicode hex="0DD2"/>
  <outline>
    <contour>
      <point x="-545" y="518" type="curve" smooth="yes"/>
      <point x="-545" y="626"/>
      <point x="-432" y="671"/>
      <point x="-313" y="671" type="curve" smooth="yes"/>
      <point x="-194" y="671"/>
      <point x="-81" y="626"/>
      <point x="-81" y="518" type="curve" smooth="yes"/>
      <point x="-81" y="443"/>
      <point x="-147" y="408"/>
      <point x="-224" y="405" type="curve"/>
      <point x="-224" y="427" type="line"/>
      <point x="-170" y="430"/>
      <point x="-129" y="451"/>
      <point x="-129" y="497" type="curve" smooth="yes"/>
      <point x="-129" y="556"/>
      <point x="-225" y="572"/>
      <point x="-313" y="572" type="curve" smooth="yes"/>
      <point x="-402" y="572"/>
      <point x="-499" y="556"/>
      <point x="-499" y="497" type="curve" smooth="yes"/>
      <point x="-499" y="452"/>
      <point x="-456" y="430"/>
      <point x="-402" y="427" type="curve"/>
      <point x="-402" y="405" type="line"/>
      <point x="-479" y="408"/>
      <point x="-545" y="443"/>
    </contour>
  </outline>
</glyph>
<glyph name="si_MatraU" format="1">
  <advance width="2"/>
  <unicode hex="0DD4"/>
  <outline>
    <contour>
      <point x="-594" y="-146" type="curve" smooth="yes"/>
      <point x="-594" y="-90"/>
      <point x="-549" y="-51"/>
      <point x="-494" y="-51" type="curve" smooth="yes"/>
      <point x="-451" y="-51"/>
      <point x="-416" y="-70"/>
      <point x="-399" y="-110" type="curve"/>
      <point x="-430" y="-122" type="line"/>
      <point x="-438" y="-101"/>
      <point x="-459" y="-81"/>
      <point x="-492" y="-81" type="curve" smooth="yes"/>
      <point x="-528" y="-81"/>
      <point x="-559" y="-106"/>
      <point x="-559" y="-143" type="curve" smooth="yes"/>
      <point x="-559" y="-178"/>
      <point x="-533" y="-196"/>
      <point x="-474" y="-196" type="curve" smooth="yes"/>
      <point x="-90" y="-196" type="line"/>
      <point x="-90" y="128" type="line"/>
      <point x="-56" y="219" type="line"/>
      <point x="-56" y="-235" type="line"/>
      <point x="-485" y="-235" type="line" smooth="yes"/>
      <point x="-557" y="-235"/>
      <point x="-594" y="-196"/>
    </contour>
  </outline>
</glyph>
<glyph name="uni0DD6" format="1">
  <advance width="2"/>
  <unicode hex="0DD6"/>
  <outline>
    <contour>
      <point x="-582" y="-144" type="curve" smooth="yes"/>
      <point x="-582" y="-86"/>
      <point x="-533" y="-46"/>
      <point x="-480" y="-46" type="curve" smooth="yes"/>
      <point x="-438" y="-46"/>
      <point x="-406" y="-61"/>
      <point x="-383" y="-97" type="curve"/>
      <point x="-414" y="-108" type="line"/>
      <point x="-426" y="-90"/>
      <point x="-446" y="-75"/>
      <point x="-475" y="-75" type="curve" smooth="yes"/>
      <point x="-514" y="-75"/>
      <point x="-543" y="-99"/>
      <point x="-543" y="-131" type="curve" smooth="yes"/>
      <point x="-543" y="-166"/>
      <point x="-513" y="-187"/>
      <point x="-474" y="-187" type="curve" smooth="yes"/>
      <point x="-393" y="-187"/>
      <point x="-313" y="-122"/>
      <point x="-213" y="-122" type="curve" smooth="yes"/>
      <point x="-167" y="-122"/>
      <point x="-119" y="-141"/>
      <point x="-92" y="-173" type="curve"/>
      <point x="-92" y="146" type="line"/>
      <point x="-58" y="206" type="line"/>
      <point x="-58" y="-237" type="line"/>
      <point x="-82" y="-237" type="line"/>
      <point x="-97" y="-201"/>
      <point x="-141" y="-151"/>
      <point x="-207" y="-151" type="curve" smooth="yes"/>
      <point x="-298" y="-151"/>
      <point x="-373" y="-243"/>
      <point x="-471" y="-243" type="curve" smooth="yes"/>
      <point x="-526" y="-243"/>
      <point x="-582" y="-212"/>
    </contour>
  </outline>
</glyph>
<glyph name="uni0DD9" format="1">
  <advance width="621"/>
  <unicode hex="0DD9"/>
  <outline>
    <contour>
      <point x="230" y="258" type="curve" smooth="yes"/>
      <point x="230" y="232"/>
      <point x="254" y="211"/>
      <point x="284" y="211" type="curve" smooth="yes"/>
      <point x="314" y="211"/>
      <point x="339" y="232"/>
      <point x="339" y="258" type="curve" smooth="yes"/>
      <point x="339" y="283"/>
      <point x="314" y="304"/>
      <point x="284" y="304" type="curve" smooth="yes"/>
      <point x="254" y="304"/>
      <point x="230" y="283"/>
    </contour>
    <contour>
      <point x="33" y="212" type="curve" smooth="yes"/>
      <point x="33" y="347"/>
      <point x="161" y="432"/>
      <point x="301" y="432" type="curve" smooth="yes"/>
      <point x="449" y="432"/>
      <point x="572" y="340"/>
      <point x="584" y="206" type="curve"/>
      <point x="554" y="206" type="line"/>
      <point x="536" y="323"/>
      <point x="430" y="403"/>
      <point x="301" y="403" type="curve" smooth="yes"/>
      <point x="187" y="403"/>
      <point x="88" y="342"/>
      <point x="88" y="249" type="curve" smooth="yes"/>
      <point x="88" y="165"/>
      <point x="163" y="98"/>
      <point x="269" y="98" type="curve" smooth="yes"/>
      <point x="358" y="98"/>
      <point x="439" y="136"/>
      <point x="439" y="212" type="curve" smooth="yes"/>
      <point x="439" y="257"/>
      <point x="402" y="292"/>
      <point x="353" y="301" type="curve"/>
      <point x="366" y="289"/>
      <point x="373" y="271"/>
      <point x="373" y="255" type="curve" smooth="yes"/>
      <point x="373" y="208"/>
      <point x="329" y="180"/>
      <point x="285" y="180" type="curve" smooth="yes"/>
      <point x="239" y="180"/>
      <point x="196" y="212"/>
      <point x="196" y="256" type="curve" smooth="yes"/>
      <point x="196" y="303"/>
      <point x="241" y="335"/>
      <point x="298" y="335" type="curve" smooth="yes"/>
      <point x="404" y="335"/>
      <point x="491" y="278"/>
      <point x="491" y="172" type="curve" smooth="yes"/>
      <point x="491" y="73"/>
      <point x="412" y="0"/>
      <point x="269" y="0" type="curve" smooth="yes"/>
      <point x="134" y="0"/>
      <point x="33" y="84"/>
    </contour>
  </outline>
</glyph>
<glyph name="uni0DDF" format="1">
  <advance width="441"/>
  <unicode hex="0DDF"/>
  <outline>
    <contour>
      <point x="33" y="321" type="curve" smooth="yes"/>
      <point x="33" y="370"/>
      <point x="49" y="404"/>
      <point x="70" y="428" type="curve"/>
      <point x="105" y="428" type="line"/>
      <point x="83" y="410"/>
      <point x="63" y="375"/>
      <point x="63" y="322" type="curve" smooth="yes"/>
      <point x="63" y="276"/>
      <point x="87" y="241"/>
      <point x="127" y="241" type="curve" smooth="yes"/>
      <point x="156" y="241"/>
      <point x="174" y="261"/>
      <point x="174" y="290" type="curve" smooth="yes"/>
      <point x="174" y="307"/>
      <point x="167" y="323"/>
      <point x="154" y="337" type="curve"/>
      <point x="153" y="342"/>
      <point x="153" y="344"/>
      <point x="153" y="349" type="curve" smooth="yes"/>
      <point x="153" y="398"/>
      <point x="186" y="432"/>
      <point x="249" y="432" type="curve" smooth="yes"/>
      <point x="359" y="432"/>
      <point x="393" y="316"/>
      <point x="393" y="220" type="curve" smooth="yes"/>
      <point x="393" y="101"/>
      <point x="349" y="-2"/>
      <point x="240" y="-2" type="curve" smooth="yes"/>
      <point x="163" y="-2"/>
      <point x="127" y="54"/>
      <point x="127" y="120" type="curve" smooth="yes"/>
      <point x="127" y="132"/>
      <point x="128" y="144"/>
      <point x="131" y="157" type="curve"/>
      <point x="157" y="157" type="line"/>
      <point x="155" y="146"/>
      <point x="154" y="136"/>
      <point x="154" y="125" type="curve" smooth="yes"/>
      <point x="154" y="73"/>
      <point x="181" y="41"/>
      <point x="221" y="41" type="curve" smooth="yes"/>
      <point x="273" y="41"/>
      <point x="294" y="105"/>
      <point x="294" y="238" type="curve" smooth="yes"/>
      <point x="294" y="348"/>
      <point x="268" y="400"/>
      <point x="227" y="400" type="curve" smooth="yes"/>
      <point x="202" y="400"/>
      <point x="181" y="386"/>
      <point x="181" y="351" type="curve" smooth="yes"/>
      <point x="181" y="349"/>
      <point x="181" y="346"/>
      <point x="181" y="344" type="curve"/>
      <point x="205" y="331"/>
      <point x="217" y="312"/>
      <point x="217" y="288" type="curve" smooth="yes"/>
      <point x="217" y="238"/>
      <point x="180" y="212"/>
      <point x="130" y="212" type="curve" smooth="yes"/>
      <point x="70" y="212"/>
      <point x="33" y="261"/>
    </contour>
  </outline>
</glyph>
<glyph name="si_kundaliya" format="1">
  <advance width="1742"/>
  <unicode hex="0DF4"/>
  <outline>
    <contour>
      <point x="1289" y="43" type="curve"/>
      <point x="1315" y="134" type="line"/>
      <point x="1166" y="42" type="line"/>
      <point x="1195" y="176" type="line"/>
      <point x="1041" y="75" type="line"/>
      <point x="1058" y="239" type="line"/>
      <point x="900" y="90" type="line"/>
      <point x="887" y="265" type="line"/>
      <point x="753" y="118" type="line"/>
      <point x="722" y="262" type="line"/>
      <point x="592" y="115" type="line"/>
      <point x="564" y="227" type="line"/>
      <point x="452" y="77" type="line"/>
      <point x="422" y="163" type="line"/>
      <point x="361" y="56" type="line"/>
      <point x="350" y="76"/>
      <point x="337" y="89"/>
      <point x="321" y="89" type="curve" smooth="yes"/>
      <point x="257" y="89"/>
      <point x="213" y="-2"/>
      <point x="126" y="-2" type="curve" smooth="yes"/>
      <point x="86" y="-2"/>
      <point x="51" y="23"/>
      <point x="51" y="68" type="curve" smooth="yes"/>
      <point x="51" y="104"/>
      <point x="74" y="130"/>
      <point x="108" y="130" type="curve" smooth="yes"/>
      <point x="142" y="130"/>
      <point x="161" y="103"/>
      <point x="161" y="76" type="curve" smooth="yes"/>
      <point x="161" y="61"/>
      <point x="155" y="44"/>
      <point x="145" y="35" type="curve"/>
      <point x="147" y="33"/>
      <point x="152" y="31"/>
      <point x="158" y="31" type="curve" smooth="yes"/>
      <point x="214" y="31"/>
      <point x="283" y="135"/>
      <point x="336" y="135" type="curve" smooth="yes"/>
      <point x="346" y="135"/>
      <point x="362" y="132"/>
      <point x="371" y="117" type="curve"/>
      <point x="452" y="258" type="line"/>
      <point x="488" y="159" type="line"/>
      <point x="614" y="328" type="line"/>
      <point x="644" y="206" type="line"/>
      <point x="781" y="364" type="line"/>
      <point x="812" y="215" type="line"/>
      <point x="960" y="385" type="line"/>
      <point x="974" y="191" type="line"/>
      <point x="1149" y="353" type="line"/>
      <point x="1125" y="159" type="line"/>
      <point x="1291" y="265" type="line"/>
      <point x="1257" y="124" type="line"/>
      <point x="1401" y="215" type="line"/>
      <point x="1370" y="127" type="line"/>
      <point x="1379" y="132"/>
      <point x="1389" y="135"/>
      <point x="1401" y="135" type="curve" smooth="yes"/>
      <point x="1455" y="135"/>
      <point x="1522" y="31"/>
      <point x="1578" y="31" type="curve" smooth="yes"/>
      <point x="1584" y="31"/>
      <point x="1590" y="32"/>
      <point x="1593" y="35" type="curve"/>
      <point x="1583" y="44"/>
      <point x="1576" y="60"/>
      <point x="1576" y="76" type="curve" smooth="yes"/>
      <point x="1576" y="102"/>
      <point x="1596" y="130"/>
      <point x="1630" y="130" type="curve" smooth="yes"/>
      <point x="1664" y="130"/>
      <point x="1687" y="104"/>
      <point x="1687" y="68" type="curve" smooth="yes"/>
      <point x="1687" y="23"/>
      <point x="1651" y="-2"/>
      <point x="1611" y="-2" type="curve" smooth="yes"/>
      <point x="1524" y="-2"/>
      <point x="1476" y="92"/>
      <point x="1405" y="92" type="curve" smooth="yes"/>
      <point x="1370" y="92"/>
      <point x="1329" y="73"/>
    </contour>
  </outline>
</glyph>
<glyph name="zwnj" format="1">
  <advance width="0"/>
  <unicode hex="200C"/>
  <outline>
    <contour>
      <point x="-28" y="1" type="line"/>
      <point x="-28" y="769" type="line"/>
      <point x="28" y="769" type="line"/>
      <point x="28" y="1" type="line"/>
    </contour>
  </outline>
</glyph>
<glyph name="zwj" format="1">
  <advance width="0"/>
  <unicode hex="200D"/>
  <outline>
    <contour>
      <point x="39" y="655" type="line"/>
      <point x="163" y="532" type="line"/>
      <point x="124" y="493" type="line"/>
      <point x="28" y="590" type="line"/>
      <point x="28" y="2" type="line"/>
      <point x="-28" y="2" type="line"/>
      <point x="-28" y="590" type="line"/>
      <point x="-124" y="493" type="line"/>
      <point x="-163" y="532" type="line"/>
      <point x="-39" y="655" type="line"/>
      <point x="-163" y="777" type="line"/>
      <point x="-124" y="815" type="line"/>
      <point x="0" y="691" type="line"/>
      <point x="124" y="815" type="line"/>
      <point x="163" y="777" type="line"/>
    </contour>
  </outline>
</glyph>
<glyph name="uni25CC" format="1">
  <advance width="558"/>
  <unicode hex="25CC"/>
  <outline>
    <contour>
      <point x="102" y="96" type="curve" smooth="yes"/>
      <point x="103" y="113"/>
      <point x="113" y="122"/>
      <point x="129" y="122" type="curve" smooth="yes"/>
      <point x="147" y="122"/>
      <point x="156" y="113"/>
      <point x="155" y="96" type="curve" smooth="yes"/>
      <point x="155" y="79"/>
      <point x="145" y="70"/>
      <point x="129" y="70" type="curve" smooth="yes"/>
      <point x="111" y="70"/>
      <point x="101" y="79"/>
    </contour>
    <contour>
      <point x="60" y="164" type="curve" smooth="yes"/>
      <point x="61" y="180"/>
      <point x="70" y="190"/>
      <point x="86" y="190" type="curve" smooth="yes"/>
      <point x="103" y="190"/>
      <point x="112" y="180"/>
      <point x="111" y="164" type="curve" smooth="yes"/>
      <point x="110" y="146"/>
      <point x="101" y="137"/>
      <point x="85" y="137" type="curve" smooth="yes"/>
      <point x="69" y="137"/>
      <point x="59" y="146"/>
    </contour>
    <contour>
      <point x="168" y="53" type="curve" smooth="yes"/>
      <point x="168" y="70"/>
      <point x="178" y="79"/>
      <point x="194" y="79" type="curve" smooth="yes"/>
      <point x="211" y="79"/>
      <point x="221" y="70"/>
      <point x="220" y="53" type="curve" smooth="yes"/>
      <point x="219" y="36"/>
      <point x="209" y="27"/>
      <point x="193" y="27" type="curve" smooth="yes"/>
      <point x="176" y="27"/>
      <point x="166" y="36"/>
    </contour>
    <contour>
      <point x="244" y="37" type="curve" smooth="yes"/>
      <point x="245" y="54"/>
      <point x="254" y="63"/>
      <point x="270" y="63" type="curve" smooth="yes"/>
      <point x="287" y="63"/>
      <point x="296" y="54"/>
      <point x="295" y="37" type="curve" smooth="yes"/>
      <point x="294" y="20"/>
      <point x="285" y="11"/>
      <point x="269" y="11" type="curve" smooth="yes"/>
      <point x="252" y="11"/>
      <point x="243" y="20"/>
    </contour>
    <contour>
      <point x="46" y="240" type="curve" smooth="yes"/>
      <point x="46" y="257"/>
      <point x="55" y="266"/>
      <point x="72" y="266" type="curve" smooth="yes"/>
      <point x="89" y="266"/>
      <point x="99" y="257"/>
      <point x="98" y="240" type="curve" smooth="yes"/>
      <point x="97" y="223"/>
      <point x="88" y="214"/>
      <point x="72" y="214" type="curve" smooth="yes"/>
      <point x="54" y="214"/>
      <point x="45" y="223"/>
    </contour>
    <contour>
      <point x="63" y="316" type="curve" smooth="yes"/>
      <point x="64" y="334"/>
      <point x="74" y="343"/>
      <point x="90" y="343" type="curve" smooth="yes"/>
      <point x="106" y="343"/>
      <point x="116" y="334"/>
      <point x="114" y="316" type="curve" smooth="yes"/>
      <point x="113" y="300"/>
      <point x="104" y="290"/>
      <point x="90" y="290" type="curve" smooth="yes"/>
      <point x="72" y="290"/>
      <point x="62" y="300"/>
    </contour>
    <contour>
      <point x="323" y="53" type="curve" smooth="yes"/>
      <point x="323" y="70"/>
      <point x="333" y="79"/>
      <point x="349" y="79" type="curve" smooth="yes"/>
      <point x="366" y="79"/>
      <point x="376" y="70"/>
      <point x="375" y="53" type="curve" smooth="yes"/>
      <point x="374" y="36"/>
      <point x="364" y="27"/>
      <point x="348" y="27" type="curve" smooth="yes"/>
      <point x="331" y="27"/>
      <point x="321" y="36"/>
    </contour>
    <contour>
      <point x="108" y="384" type="curve" smooth="yes"/>
      <point x="109" y="400"/>
      <point x="119" y="409"/>
      <point x="135" y="409" type="curve" smooth="yes"/>
      <point x="152" y="409"/>
      <point x="162" y="400"/>
      <point x="160" y="384" type="curve" smooth="yes"/>
      <point x="159" y="367"/>
      <point x="149" y="358"/>
      <point x="133" y="358" type="curve" smooth="yes"/>
      <point x="116" y="358"/>
      <point x="107" y="367"/>
    </contour>
    <contour>
      <point x="390" y="96" type="curve" smooth="yes"/>
      <point x="391" y="113"/>
      <point x="400" y="122"/>
      <point x="416" y="122" type="curve" smooth="yes"/>
      <point x="433" y="122"/>
      <point x="442" y="113"/>
      <point x="441" y="96" type="curve" smooth="yes"/>
      <point x="440" y="79"/>
      <point x="430" y="70"/>
      <point x="415" y="70" type="curve" smooth="yes"/>
      <point x="398" y="70"/>
      <point x="388" y="79"/>
    </contour>
    <contour>
      <point x="174" y="428" type="curve" smooth="yes"/>
      <point x="175" y="444"/>
      <point x="184" y="454"/>
      <point x="201" y="454" type="curve" smooth="yes"/>
      <point x="218" y="454"/>
      <point x="227" y="444"/>
      <point x="226" y="428" type="curve" smooth="yes"/>
      <point x="226" y="410"/>
      <point x="216" y="401"/>
      <point x="200" y="401" type="curve" smooth="yes"/>
      <point x="183" y="401"/>
      <point x="173" y="410"/>
    </contour>
    <contour>
      <point x="434" y="164" type="curve" smooth="yes"/>
      <point x="435" y="180"/>
      <point x="444" y="190"/>
      <point x="461" y="190" type="curve" smooth="yes"/>
      <point x="478" y="190"/>
      <point x="488" y="180"/>
      <point x="487" y="164" type="curve" smooth="yes"/>
      <point x="486" y="146"/>
      <point x="476" y="137"/>
      <point x="459" y="137" type="curve" smooth="yes"/>
      <point x="442" y="137"/>
      <point x="432" y="146"/>
    </contour>
    <contour>
      <point x="252" y="442" type="curve" smooth="yes"/>
      <point x="253" y="460"/>
      <point x="262" y="469"/>
      <point x="278" y="469" type="curve" smooth="yes"/>
      <point x="295" y="469"/>
      <point x="304" y="460"/>
      <point x="303" y="442" type="curve" smooth="yes"/>
      <point x="303" y="426"/>
      <point x="293" y="416"/>
      <point x="277" y="416" type="curve" smooth="yes"/>
      <point x="261" y="416"/>
      <point x="251" y="426"/>
    </contour>
    <contour>
      <point x="450" y="240" type="curve" smooth="yes"/>
      <point x="451" y="257"/>
      <point x="460" y="266"/>
      <point x="477" y="266" type="curve" smooth="yes"/>
      <point x="494" y="266"/>
      <point x="504" y="257"/>
      <point x="503" y="240" type="curve" smooth="yes"/>
      <point x="502" y="223"/>
      <point x="493" y="214"/>
      <point x="477" y="214" type="curve" smooth="yes"/>
      <point x="459" y="214"/>
      <point x="450" y="223"/>
    </contour>
    <contour>
      <point x="329" y="428" type="curve" smooth="yes"/>
      <point x="330" y="444"/>
      <point x="339" y="454"/>
      <point x="356" y="454" type="curve" smooth="yes"/>
      <point x="373" y="454"/>
      <point x="382" y="444"/>
      <point x="381" y="428" type="curve" smooth="yes"/>
      <point x="381" y="410"/>
      <point x="371" y="401"/>
      <point x="355" y="401" type="curve" smooth="yes"/>
      <point x="338" y="401"/>
      <point x="328" y="410"/>
    </contour>
    <contour>
      <point x="437" y="316" type="curve" smooth="yes"/>
      <point x="438" y="334"/>
      <point x="447" y="343"/>
      <point x="464" y="343" type="curve" smooth="yes"/>
      <point x="481" y="343"/>
      <point x="491" y="334"/>
      <point x="490" y="316" type="curve" smooth="yes"/>
      <point x="489" y="300"/>
      <point x="480" y="290"/>
      <point x="463" y="290" type="curve" smooth="yes"/>
      <point x="446" y="290"/>
      <point x="436" y="300"/>
    </contour>
    <contour>
      <point x="394" y="384" type="curve" smooth="yes"/>
      <point x="394" y="400"/>
      <point x="404" y="409"/>
      <point x="421" y="409" type="curve" smooth="yes"/>
      <point x="438" y="409"/>
      <point x="448" y="400"/>
      <point x="447" y="384" type="curve" smooth="yes"/>
      <point x="446" y="367"/>
      <point x="436" y="358"/>
      <point x="420" y="358" type="curve" smooth="yes"/>
      <point x="402" y="358"/>
      <point x="393" y="367"/>
    </contour>
  </outline>
</glyph>
<glyph name="si_BI" format="1">
  <advance width="619"/>
  <outline>
    <contour>
      <point x="67" y="562" type="curve" smooth="yes"/>
      <point x="67" y="476"/>
      <point x="188" y="482"/>
      <point x="277" y="477" type="curve" smooth="yes"/>
      <point x="378" y="471"/>
      <point x="437" y="470"/>
      <point x="485" y="419" type="curve" smooth="yes"/>
      <point x="513" y="390"/>
      <point x="521" y="345"/>
      <point x="521" y="309" type="curve"/>
      <point x="575" y="277" type="line"/>
      <point x="575" y="356"/>
      <point x="539" y="423"/>
      <point x="490" y="459" type="curve" smooth="yes"/>
      <point x="435" y="499"/>
      <point x="341" y="501"/>
      <point x="276" y="504" type="curve" smooth="yes"/>
      <point x="174" y="508"/>
      <point x="116" y="509"/>
      <point x="116" y="547" type="curve" smooth="yes"/>
      <point x="116" y="592"/>
      <point x="222" y="599"/>
      <point x="298" y="599" type="curve" smooth="yes"/>
      <point x="406" y="599"/>
      <point x="485" y="585"/>
      <point x="485" y="537" type="curve" smooth="yes"/>
      <point x="485" y="506"/>
      <point x="442" y="491"/>
      <point x="406" y="490" type="curve"/>
      <point x="456" y="474" type="line"/>
      <point x="490" y="480"/>
      <point x="544" y="502"/>
      <point x="544" y="554" type="curve" smooth="yes"/>
      <point x="544" y="639"/>
      <point x="434" y="670"/>
      <point x="298" y="670" type="curve" smooth="yes"/>
      <point x="198" y="670"/>
      <point x="67" y="652"/>
    </contour>
    <contour>
      <point x="101" y="76" type="curve" smooth="yes"/>
      <point x="101" y="50"/>
      <point x="124" y="27"/>
      <point x="150" y="27" type="curve" smooth="yes"/>
      <point x="176" y="27"/>
      <point x="199" y="50"/>
      <point x="199" y="76" type="curve" smooth="yes"/>
      <point x="199" y="102"/>
      <point x="176" y="125"/>
      <point x="150" y="125" type="curve" smooth="yes"/>
      <point x="124" y="125"/>
      <point x="101" y="102"/>
    </contour>
    <contour>
      <point x="33" y="187" type="curve" smooth="yes"/>
      <point x="33" y="314"/>
      <point x="122" y="396"/>
      <point x="243" y="396" type="curve" smooth="yes"/>
      <point x="335" y="396"/>
      <point x="415" y="349"/>
      <point x="415" y="261" type="curve" smooth="yes"/>
      <point x="415" y="140"/>
      <point x="299" y="171"/>
      <point x="299" y="112" type="curve" smooth="yes"/>
      <point x="299" y="89"/>
      <point x="319" y="81"/>
      <point x="344" y="81" type="curve" smooth="yes"/>
      <point x="449" y="81"/>
      <point x="521" y="205"/>
      <point x="521" y="313" type="curve"/>
      <point x="539" y="302"/>
      <point x="555" y="299"/>
      <point x="575" y="280" type="curve"/>
      <point x="575" y="140"/>
      <point x="518" y="-2"/>
      <point x="381" y="-2" type="curve" smooth="yes"/>
      <point x="313" y="-2"/>
      <point x="267" y="41"/>
      <point x="267" y="100" type="curve" smooth="yes"/>
      <point x="267" y="188"/>
      <point x="364" y="163"/>
      <point x="364" y="234" type="curve" smooth="yes"/>
      <point x="364" y="278"/>
      <point x="309" y="302"/>
      <point x="237" y="302" type="curve" smooth="yes"/>
      <point x="146" y="302"/>
      <point x="66" y="248"/>
      <point x="66" y="152" type="curve" smooth="yes"/>
      <point x="66" y="134"/>
      <point x="70" y="105"/>
      <point x="77" y="91" type="curve"/>
      <point x="81" y="126"/>
      <point x="109" y="153"/>
      <point x="150" y="153" type="curve" smooth="yes"/>
      <point x="193" y="153"/>
      <point x="229" y="119"/>
      <point x="229" y="77" type="curve" smooth="yes"/>
      <point x="229" y="29"/>
      <point x="190" y="-1"/>
      <point x="150" y="-1" type="curve" smooth="yes"/>
      <point x="68" y="-1"/>
      <point x="33" y="91"/>
    </contour>
  </outline>
</glyph>
<glyph name="si_BIi" format="1">
  <advance width="619"/>
  <outline>
    <contour>
      <point x="392" y="548" type="curve" smooth="yes"/>
      <point x="392" y="518"/>
      <point x="419" y="494"/>
      <point x="452" y="494" type="curve" smooth="yes"/>
      <point x="485" y="494"/>
      <point x="512" y="518"/>
      <point x="512" y="548" type="curve" smooth="yes"/>
      <point x="512" y="578"/>
      <point x="485" y="602"/>
      <point x="452" y="602" type="curve" smooth="yes"/>
      <point x="419" y="602"/>
      <point x="392" y="578"/>
    </contour>
    <contour>
      <point x="67" y="562" type="curve" smooth="yes"/>
      <point x="67" y="652"/>
      <point x="198" y="670"/>
      <point x="298" y="670" type="curve" smooth="yes"/>
      <point x="434" y="670"/>
      <point x="544" y="639"/>
      <point x="544" y="551" type="curve" smooth="yes"/>
      <point x="544" y="498"/>
      <point x="496" y="467"/>
      <point x="452" y="467" type="curve" smooth="yes"/>
      <point x="408" y="467"/>
      <point x="360" y="498"/>
      <point x="360" y="551" type="curve" smooth="yes"/>
      <point x="360" y="576"/>
      <point x="372" y="591"/>
      <point x="377" y="598" type="curve"/>
      <point x="369" y="600"/>
      <point x="337" y="602"/>
      <point x="297" y="602" type="curve" smooth="yes"/>
      <point x="221" y="602"/>
      <point x="114" y="595"/>
      <point x="114" y="548" type="curve" smooth="yes"/>
      <point x="114" y="509"/>
      <point x="174" y="508"/>
      <point x="276" y="504" type="curve" smooth="yes"/>
      <point x="341" y="501"/>
      <point x="435" y="499"/>
      <point x="490" y="459" type="curve" smooth="yes"/>
      <point x="539" y="423"/>
      <point x="575" y="357"/>
      <point x="575" y="274" type="curve"/>
      <point x="575" y="274"/>
      <point x="526" y="299"/>
      <point x="521" y="308" type="curve"/>
      <point x="521" y="344"/>
      <point x="514" y="386"/>
      <point x="486" y="416" type="curve" smooth="yes"/>
      <point x="437" y="472"/>
      <point x="378" y="471"/>
      <point x="277" y="477" type="curve" smooth="yes"/>
      <point x="188" y="482"/>
      <point x="67" y="476"/>
    </contour>
    <contour>
      <point x="101" y="76" type="curve" smooth="yes"/>
      <point x="101" y="50"/>
      <point x="124" y="27"/>
      <point x="150" y="27" type="curve" smooth="yes"/>
      <point x="176" y="27"/>
      <point x="199" y="50"/>
      <point x="199" y="76" type="curve" smooth="yes"/>
      <point x="199" y="102"/>
      <point x="176" y="125"/>
      <point x="150" y="125" type="curve" smooth="yes"/>
      <point x="124" y="125"/>
      <point x="101" y="102"/>
    </contour>
    <contour>
      <point x="33" y="187" type="curve" smooth="yes"/>
      <point x="33" y="314"/>
      <point x="122" y="396"/>
      <point x="243" y="396" type="curve" smooth="yes"/>
      <point x="335" y="396"/>
      <point x="415" y="349"/>
      <point x="415" y="261" type="curve" smooth="yes"/>
      <point x="415" y="140"/>
      <point x="299" y="171"/>
      <point x="299" y="112" type="curve" smooth="yes"/>
      <point x="299" y="89"/>
      <point x="319" y="81"/>
      <point x="344" y="81" type="curve" smooth="yes"/>
      <point x="449" y="81"/>
      <point x="521" y="205"/>
      <point x="521" y="313" type="curve"/>
      <point x="539" y="302"/>
      <point x="555" y="296"/>
      <point x="575" y="278" type="curve"/>
      <point x="575" y="140"/>
      <point x="518" y="-2"/>
      <point x="381" y="-2" type="curve" smooth="yes"/>
      <point x="313" y="-2"/>
      <point x="267" y="41"/>
      <point x="267" y="100" type="curve" smooth="yes"/>
      <point x="267" y="188"/>
      <point x="364" y="163"/>
      <point x="364" y="234" type="curve" smooth="yes"/>
      <point x="364" y="278"/>
      <point x="309" y="302"/>
      <point x="237" y="302" type="curve" smooth="yes"/>
      <point x="146" y="302"/>
      <point x="66" y="248"/>
      <point x="66" y="152" type="curve" smooth="yes"/>
      <point x="66" y="134"/>
      <point x="70" y="105"/>
      <point x="77" y="91" type="curve"/>
      <point x="81" y="126"/>
      <point x="109" y="153"/>
      <point x="150" y="153" type="curve" smooth="yes"/>
      <point x="193" y="153"/>
      <point x="229" y="119"/>
      <point x="229" y="77" type="curve" smooth="yes"/>
      <point x="229" y="29"/>
      <point x="190" y="-1"/>
      <point x="150" y="-1" type="curve" smooth="yes"/>
      <point x="68" y="-1"/>
      <point x="33" y="91"/>
    </contour>
  </outline>
</glyph>
<glyph name="si_BRa" format="1">
  <advance width="619"/>
  <outline>
    <contour>
      <point x="58" y="-44" type="curve"/>
      <point x="87" y="-44" type="line"/>
      <point x="123" y="-106"/>
      <point x="184" y="-139"/>
      <point x="287" y="-139" type="curve" smooth="yes"/>
      <point x="427" y="-139"/>
      <point x="537" y="-64"/>
      <point x="537" y="55" type="curve" smooth="yes"/>
      <point x="537" y="74"/>
      <point x="533" y="92"/>
      <point x="527" y="102" type="curve"/>
      <point x="542" y="133" type="line"/>
      <point x="560" y="106"/>
      <point x="568" y="75"/>
      <point x="568" y="38" type="curve" smooth="yes"/>
      <point x="568" y="-124"/>
      <point x="443" y="-219"/>
      <point x="302" y="-219" type="curve" smooth="yes"/>
      <point x="175" y="-219"/>
      <point x="95" y="-153"/>
    </contour>
    <component base="uni0DB6"/>
  </outline>
</glyph>
<glyph name="si_BU" format="1">
  <advance width="619"/>
  <outline>
    <contour>
      <point x="49" y="-142" type="curve" smooth="yes"/>
      <point x="49" y="-90"/>
      <point x="96" y="-50"/>
      <point x="151" y="-50" type="curve" smooth="yes"/>
      <point x="193" y="-50"/>
      <point x="230" y="-74"/>
      <point x="245" y="-110" type="curve"/>
      <point x="214" y="-122" type="line"/>
      <point x="207" y="-103"/>
      <point x="184" y="-81"/>
      <point x="151" y="-81" type="curve" smooth="yes"/>
      <point x="114" y="-81"/>
      <point x="84" y="-108"/>
      <point x="84" y="-142" type="curve" smooth="yes"/>
      <point x="84" y="-172"/>
      <point x="106" y="-196"/>
      <point x="174" y="-196" type="curve" smooth="yes"/>
      <point x="531" y="-196" type="line"/>
      <point x="531" y="128" type="line"/>
      <point x="566" y="219" type="line"/>
      <point x="566" y="-235" type="line"/>
      <point x="155" y="-235" type="line" smooth="yes"/>
      <point x="81" y="-235"/>
      <point x="49" y="-186"/>
    </contour>
    <component base="uni0DB6"/>
  </outline>
</glyph>
<glyph name="si_BUu" format="1">
  <advance width="619"/>
  <outline>
    <contour>
      <point x="49" y="-138" type="curve" smooth="yes"/>
      <point x="49" y="-80"/>
      <point x="98" y="-40"/>
      <point x="151" y="-40" type="curve" smooth="yes"/>
      <point x="193" y="-40"/>
      <point x="226" y="-55"/>
      <point x="248" y="-91" type="curve"/>
      <point x="217" y="-102" type="line"/>
      <point x="205" y="-84"/>
      <point x="185" y="-69"/>
      <point x="156" y="-69" type="curve" smooth="yes"/>
      <point x="117" y="-69"/>
      <point x="88" y="-93"/>
      <point x="88" y="-125" type="curve" smooth="yes"/>
      <point x="88" y="-160"/>
      <point x="118" y="-181"/>
      <point x="157" y="-181" type="curve" smooth="yes"/>
      <point x="238" y="-181"/>
      <point x="310" y="-116"/>
      <point x="410" y="-116" type="curve" smooth="yes"/>
      <point x="456" y="-116"/>
      <point x="504" y="-135"/>
      <point x="531" y="-167" type="curve"/>
      <point x="531" y="152" type="line"/>
      <point x="565" y="212" type="line"/>
      <point x="565" y="-231" type="line"/>
      <point x="541" y="-231" type="line"/>
      <point x="526" y="-195"/>
      <point x="482" y="-145"/>
      <point x="416" y="-145" type="curve" smooth="yes"/>
      <point x="325" y="-145"/>
      <point x="258" y="-237"/>
      <point x="160" y="-237" type="curve" smooth="yes"/>
      <point x="105" y="-237"/>
      <point x="49" y="-206"/>
    </contour>
    <contour>
      <point x="101" y="76" type="curve" smooth="yes"/>
      <point x="101" y="50"/>
      <point x="124" y="27"/>
      <point x="150" y="27" type="curve" smooth="yes"/>
      <point x="176" y="27"/>
      <point x="199" y="50"/>
      <point x="199" y="76" type="curve" smooth="yes"/>
      <point x="199" y="102"/>
      <point x="176" y="125"/>
      <point x="150" y="125" type="curve" smooth="yes"/>
      <point x="124" y="125"/>
      <point x="101" y="102"/>
    </contour>
    <contour>
      <point x="33" y="187" type="curve" smooth="yes"/>
      <point x="33" y="314"/>
      <point x="122" y="396"/>
      <point x="243" y="396" type="curve" smooth="yes"/>
      <point x="335" y="396"/>
      <point x="415" y="349"/>
      <point x="415" y="261" type="curve" smooth="yes"/>
      <point x="415" y="140"/>
      <point x="299" y="171"/>
      <point x="299" y="112" type="curve" smooth="yes"/>
      <point x="299" y="89"/>
      <point x="319" y="81"/>
      <point x="344" y="81" type="curve" smooth="yes"/>
      <point x="449" y="81"/>
      <point x="519" y="214"/>
      <point x="519" y="330" type="curve" smooth="yes"/>
      <point x="519" y="464"/>
      <point x="435" y="560"/>
      <point x="292" y="560" type="curve" smooth="yes"/>
      <point x="198" y="560"/>
      <point x="134" y="529"/>
      <point x="95" y="470" type="curve"/>
      <point x="64" y="470" type="line"/>
      <point x="99" y="542"/>
      <point x="179" y="585"/>
      <point x="292" y="585" type="curve" smooth="yes"/>
      <point x="470" y="585"/>
      <point x="575" y="465"/>
      <point x="575" y="284" type="curve" smooth="yes"/>
      <point x="575" y="141"/>
      <point x="518" y="-2"/>
      <point x="381" y="-2" type="curve" smooth="yes"/>
      <point x="313" y="-2"/>
      <point x="267" y="41"/>
      <point x="267" y="100" type="curve" smooth="yes"/>
      <point x="267" y="188"/>
      <point x="364" y="163"/>
      <point x="364" y="234" type="curve" smooth="yes"/>
      <point x="364" y="278"/>
      <point x="309" y="302"/>
      <point x="237" y="302" type="curve" smooth="yes"/>
      <point x="146" y="302"/>
      <point x="66" y="248"/>
      <point x="66" y="152" type="curve" smooth="yes"/>
      <point x="66" y="134"/>
      <point x="70" y="105"/>
      <point x="77" y="91" type="curve"/>
      <point x="81" y="126"/>
      <point x="109" y="153"/>
      <point x="150" y="153" type="curve" smooth="yes"/>
      <point x="193" y="153"/>
      <point x="229" y="119"/>
      <point x="229" y="77" type="curve" smooth="yes"/>
      <point x="229" y="29"/>
      <point x="190" y="-1"/>
      <point x="150" y="-1" type="curve" smooth="yes"/>
      <point x="68" y="-1"/>
      <point x="33" y="91"/>
    </contour>
  </outline>
</glyph>
<glyph name="si_B.halant" format="1">
  <advance width="619"/>
  <outline>
    <contour>
      <point x="101" y="76" type="curve" smooth="yes"/>
      <point x="101" y="50"/>
      <point x="124" y="27"/>
      <point x="150" y="27" type="curve" smooth="yes"/>
      <point x="176" y="27"/>
      <point x="199" y="50"/>
      <point x="199" y="76" type="curve" smooth="yes"/>
      <point x="199" y="102"/>
      <point x="176" y="125"/>
      <point x="150" y="125" type="curve" smooth="yes"/>
      <point x="124" y="125"/>
      <point x="101" y="102"/>
    </contour>
    <contour>
      <point x="139" y="541" type="curve" smooth="yes"/>
      <point x="139" y="530"/>
      <point x="161" y="525"/>
      <point x="161" y="515" type="curve" smooth="yes"/>
      <point x="161" y="513"/>
      <point x="160" y="510"/>
      <point x="158" y="508" type="curve"/>
      <point x="191" y="514"/>
      <point x="231" y="519"/>
      <point x="277" y="519" type="curve" smooth="yes"/>
      <point x="385" y="519"/>
      <point x="477" y="485"/>
      <point x="525" y="422" type="curve"/>
      <point x="493" y="532"/>
      <point x="400" y="583"/>
      <point x="287" y="583" type="curve" smooth="yes"/>
      <point x="214" y="583"/>
      <point x="139" y="564"/>
    </contour>
    <contour>
      <point x="33" y="187" type="curve" smooth="yes"/>
      <point x="33" y="314"/>
      <point x="120" y="396"/>
      <point x="247" y="396" type="curve" smooth="yes"/>
      <point x="335" y="396"/>
      <point x="415" y="347"/>
      <point x="415" y="263" type="curve" smooth="yes"/>
      <point x="415" y="135"/>
      <point x="299" y="173"/>
      <point x="299" y="111" type="curve" smooth="yes"/>
      <point x="299" y="90"/>
      <point x="315" y="81"/>
      <point x="344" y="81" type="curve" smooth="yes"/>
      <point x="453" y="81"/>
      <point x="519" y="206"/>
      <point x="519" y="306" type="curve" smooth="yes"/>
      <point x="519" y="433"/>
      <point x="419" y="493"/>
      <point x="269" y="493" type="curve" smooth="yes"/>
      <point x="233" y="493"/>
      <point x="198" y="490"/>
      <point x="162" y="482" type="curve" smooth="yes"/>
      <point x="123" y="474"/>
      <point x="83" y="461"/>
      <point x="40" y="441" type="curve"/>
      <point x="40" y="473" type="line"/>
      <point x="72" y="485"/>
      <point x="123" y="499"/>
      <point x="123" y="508" type="curve" smooth="yes"/>
      <point x="123" y="520"/>
      <point x="95" y="524"/>
      <point x="95" y="546" type="curve" smooth="yes"/>
      <point x="95" y="583"/>
      <point x="160" y="629"/>
      <point x="276" y="629" type="curve" smooth="yes"/>
      <point x="484" y="629"/>
      <point x="555" y="490"/>
      <point x="567" y="356" type="curve" smooth="yes"/>
      <point x="570" y="343"/>
      <point x="575" y="300"/>
      <point x="575" y="267" type="curve" smooth="yes"/>
      <point x="574" y="138"/>
      <point x="517" y="-2"/>
      <point x="381" y="-2" type="curve" smooth="yes"/>
      <point x="318" y="-2"/>
      <point x="267" y="36"/>
      <point x="267" y="102" type="curve" smooth="yes"/>
      <point x="267" y="186"/>
      <point x="364" y="162"/>
      <point x="364" y="235" type="curve" smooth="yes"/>
      <point x="364" y="282"/>
      <point x="297" y="302"/>
      <point x="237" y="302" type="curve" smooth="yes"/>
      <point x="147" y="302"/>
      <point x="66" y="250"/>
      <point x="66" y="149" type="curve" smooth="yes"/>
      <point x="66" y="128"/>
      <point x="71" y="103"/>
      <point x="77" y="91" type="curve"/>
      <point x="81" y="126"/>
      <point x="109" y="153"/>
      <point x="150" y="153" type="curve" smooth="yes"/>
      <point x="193" y="153"/>
      <point x="229" y="119"/>
      <point x="229" y="77" type="curve" smooth="yes"/>
      <point x="229" y="29"/>
      <point x="190" y="-1"/>
      <point x="150" y="-1" type="curve" smooth="yes"/>
      <point x="68" y="-1"/>
      <point x="33" y="91"/>
    </contour>
  </outline>
</glyph>
<glyph name="si_Ba.reph" format="1">
  <advance width="619"/>
  <outline>
    <contour>
      <point x="260" y="628" type="curve" smooth="yes"/>
      <point x="260" y="649"/>
      <point x="279" y="665"/>
      <point x="301" y="665" type="curve" smooth="yes"/>
      <point x="323" y="665"/>
      <point x="342" y="649"/>
      <point x="342" y="628" type="curve" smooth="yes"/>
      <point x="342" y="607"/>
      <point x="323" y="591"/>
      <point x="301" y="591" type="curve" smooth="yes"/>
      <point x="279" y="591"/>
      <point x="260" y="607"/>
    </contour>
    <contour>
      <point x="158" y="647" type="curve" smooth="yes"/>
      <point x="158" y="591"/>
      <point x="217" y="562"/>
      <point x="276" y="562" type="curve" smooth="yes"/>
      <point x="334" y="562"/>
      <point x="369" y="588"/>
      <point x="369" y="627" type="curve" smooth="yes"/>
      <point x="369" y="662"/>
      <point x="341" y="689"/>
      <point x="300" y="689" type="curve" smooth="yes"/>
      <point x="264" y="689"/>
      <point x="233" y="664"/>
      <point x="233" y="629" type="curve" smooth="yes"/>
      <point x="233" y="608"/>
      <point x="245" y="593"/>
      <point x="253" y="587" type="curve"/>
      <point x="232" y="590"/>
      <point x="190" y="608"/>
      <point x="190" y="647" type="curve" smooth="yes"/>
      <point x="190" y="699"/>
      <point x="244" y="721"/>
      <point x="297" y="721" type="curve" smooth="yes"/>
      <point x="358" y="721"/>
      <point x="408" y="689"/>
      <point x="408" y="633" type="curve" smooth="yes"/>
      <point x="408" y="606"/>
      <point x="392" y="581"/>
      <point x="379" y="569" type="curve"/>
      <point x="414" y="569" type="line"/>
      <point x="431" y="588"/>
      <point x="439" y="610"/>
      <point x="439" y="634" type="curve" smooth="yes"/>
      <point x="439" y="705"/>
      <point x="375" y="748"/>
      <point x="298" y="748" type="curve" smooth="yes"/>
      <point x="216" y="748"/>
      <point x="158" y="711"/>
    </contour>
    <contour>
      <point x="101" y="76" type="curve" smooth="yes"/>
      <point x="101" y="50"/>
      <point x="124" y="27"/>
      <point x="150" y="27" type="curve" smooth="yes"/>
      <point x="176" y="27"/>
      <point x="199" y="50"/>
      <point x="199" y="76" type="curve" smooth="yes"/>
      <point x="199" y="102"/>
      <point x="176" y="125"/>
      <point x="150" y="125" type="curve" smooth="yes"/>
      <point x="124" y="125"/>
      <point x="101" y="102"/>
    </contour>
    <contour>
      <point x="33" y="187" type="curve" smooth="yes"/>
      <point x="33" y="314"/>
      <point x="122" y="396"/>
      <point x="243" y="396" type="curve" smooth="yes"/>
      <point x="335" y="396"/>
      <point x="415" y="349"/>
      <point x="415" y="261" type="curve" smooth="yes"/>
      <point x="415" y="140"/>
      <point x="299" y="171"/>
      <point x="299" y="112" type="curve" smooth="yes"/>
      <point x="299" y="89"/>
      <point x="319" y="81"/>
      <point x="344" y="81" type="curve" smooth="yes"/>
      <point x="449" y="81"/>
      <point x="519" y="214"/>
      <point x="519" y="330" type="curve" smooth="yes"/>
      <point x="519" y="464"/>
      <point x="435" y="560"/>
      <point x="292" y="560" type="curve" smooth="yes"/>
      <point x="198" y="560"/>
      <point x="134" y="529"/>
      <point x="95" y="470" type="curve"/>
      <point x="64" y="470" type="line"/>
      <point x="99" y="542"/>
      <point x="179" y="585"/>
      <point x="292" y="585" type="curve" smooth="yes"/>
      <point x="470" y="585"/>
      <point x="575" y="465"/>
      <point x="575" y="284" type="curve" smooth="yes"/>
      <point x="575" y="141"/>
      <point x="518" y="-2"/>
      <point x="381" y="-2" type="curve" smooth="yes"/>
      <point x="313" y="-2"/>
      <point x="267" y="41"/>
      <point x="267" y="100" type="curve" smooth="yes"/>
      <point x="267" y="188"/>
      <point x="364" y="163"/>
      <point x="364" y="234" type="curve" smooth="yes"/>
      <point x="364" y="278"/>
      <point x="309" y="302"/>
      <point x="237" y="302" type="curve" smooth="yes"/>
      <point x="146" y="302"/>
      <point x="66" y="248"/>
      <point x="66" y="152" type="curve" smooth="yes"/>
      <point x="66" y="134"/>
      <point x="70" y="105"/>
      <point x="77" y="91" type="curve"/>
      <point x="81" y="126"/>
      <point x="109" y="153"/>
      <point x="150" y="153" type="curve" smooth="yes"/>
      <point x="193" y="153"/>
      <point x="229" y="119"/>
      <point x="229" y="77" type="curve" smooth="yes"/>
      <point x="229" y="29"/>
      <point x="190" y="-1"/>
      <point x="150" y="-1" type="curve" smooth="yes"/>
      <point x="68" y="-1"/>
      <point x="33" y="91"/>
    </contour>
  </outline>
</glyph>
<glyph name="si_BhI" format="1">
  <advance width="670"/>
  <outline>
    <contour>
      <point x="178" y="537" type="curve" smooth="yes"/>
      <point x="178" y="462"/>
      <point x="265" y="413"/>
      <point x="425" y="409" type="curve"/>
      <point x="441" y="432" type="line"/>
      <point x="440" y="431"/>
      <point x="440" y="431"/>
      <point x="439" y="431" type="curve" smooth="yes"/>
      <point x="353" y="432"/>
      <point x="231" y="455"/>
      <point x="231" y="511" type="curve" smooth="yes"/>
      <point x="231" y="556"/>
      <point x="301" y="585"/>
      <point x="382" y="585" type="curve" smooth="yes"/>
      <point x="462" y="585"/>
      <point x="553" y="567"/>
      <point x="553" y="506" type="curve" smooth="yes"/>
      <point x="553" y="464"/>
      <point x="515" y="431"/>
      <point x="457" y="431" type="curve" smooth="yes"/>
      <point x="455" y="431"/>
      <point x="452" y="431"/>
      <point x="449" y="431" type="curve"/>
      <point x="467" y="408" type="line"/>
      <point x="548" y="414"/>
      <point x="587" y="461"/>
      <point x="587" y="523" type="curve" smooth="yes"/>
      <point x="587" y="618"/>
      <point x="485" y="667"/>
      <point x="379" y="667" type="curve" smooth="yes"/>
      <point x="277" y="667"/>
      <point x="178" y="628"/>
    </contour>
  </outline>
</glyph>
<glyph name="si_BhIi" format="1">
  <advance width="670"/>
  <outline>
    <contour>
      <point x="420" y="520" type="curve" smooth="yes"/>
      <point x="420" y="554"/>
      <point x="450" y="581"/>
      <point x="488" y="581" type="curve" smooth="yes"/>
      <point x="526" y="581"/>
      <point x="557" y="554"/>
      <point x="557" y="520" type="curve" smooth="yes"/>
      <point x="557" y="486"/>
      <point x="526" y="459"/>
      <point x="488" y="459" type="curve" smooth="yes"/>
      <point x="450" y="459"/>
      <point x="420" y="486"/>
    </contour>
    <contour>
      <point x="178" y="537" type="curve" smooth="yes"/>
      <point x="178" y="462"/>
      <point x="265" y="411"/>
      <point x="425" y="408" type="curve"/>
      <point x="441" y="432" type="line"/>
      <point x="440" y="431"/>
      <point x="440" y="431"/>
      <point x="439" y="431" type="curve" smooth="yes"/>
      <point x="353" y="432"/>
      <point x="231" y="455"/>
      <point x="231" y="511" type="curve" smooth="yes"/>
      <point x="231" y="556"/>
      <point x="301" y="585"/>
      <point x="382" y="585" type="curve" smooth="yes"/>
      <point x="398" y="585"/>
      <point x="409" y="584"/>
      <point x="424" y="582" type="curve"/>
      <point x="412" y="576"/>
      <point x="389" y="554"/>
      <point x="389" y="519" type="curve" smooth="yes"/>
      <point x="389" y="464"/>
      <point x="442" y="431"/>
      <point x="487" y="431" type="curve" smooth="yes"/>
      <point x="529" y="431"/>
      <point x="587" y="456"/>
      <point x="587" y="525" type="curve" smooth="yes"/>
      <point x="587" y="618"/>
      <point x="485" y="667"/>
      <point x="379" y="667" type="curve" smooth="yes"/>
      <point x="277" y="667"/>
      <point x="178" y="628"/>
    </contour>
  </outline>
</glyph>
<glyph name="si_BhRI" format="1">
  <advance width="670"/>
  <outline>
    <contour>
      <point x="76" y="-44" type="curve"/>
      <point x="104" y="-44" type="line"/>
      <point x="138" y="-108"/>
      <point x="202" y="-139"/>
      <point x="311" y="-139" type="curve" smooth="yes"/>
      <point x="458" y="-139"/>
      <point x="573" y="-66"/>
      <point x="573" y="55" type="curve" smooth="yes"/>
      <point x="573" y="74"/>
      <point x="569" y="92"/>
      <point x="562" y="102" type="curve"/>
      <point x="575" y="133" type="line"/>
      <point x="593" y="106"/>
      <point x="602" y="75"/>
      <point x="602" y="38" type="curve" smooth="yes"/>
      <point x="602" y="-124"/>
      <point x="477" y="-219"/>
      <point x="330" y="-219" type="curve" smooth="yes"/>
      <point x="194" y="-219"/>
      <point x="113" y="-153"/>
    </contour>
    <component base="si_BhI"/>
  </outline>
</glyph>
<glyph name="si_BhRIi" format="1">
  <advance width="670"/>
  <outline>
    <contour>
      <point x="420" y="520" type="curve" smooth="yes"/>
      <point x="420" y="486"/>
      <point x="450" y="458"/>
      <point x="488" y="458" type="curve" smooth="yes"/>
      <point x="527" y="458"/>
      <point x="557" y="486"/>
      <point x="557" y="520" type="curve" smooth="yes"/>
      <point x="557" y="554"/>
      <point x="527" y="582"/>
      <point x="488" y="582" type="curve" smooth="yes"/>
      <point x="450" y="582"/>
      <point x="420" y="554"/>
    </contour>
    <contour>
      <point x="178" y="537" type="curve" smooth="yes"/>
      <point x="178" y="628"/>
      <point x="277" y="667"/>
      <point x="379" y="667" type="curve" smooth="yes"/>
      <point x="485" y="667"/>
      <point x="587" y="618"/>
      <point x="587" y="525" type="curve" smooth="yes"/>
      <point x="587" y="456"/>
      <point x="529" y="431"/>
      <point x="487" y="431" type="curve" smooth="yes"/>
      <point x="442" y="431"/>
      <point x="389" y="464"/>
      <point x="389" y="519" type="curve" smooth="yes"/>
      <point x="389" y="554"/>
      <point x="412" y="576"/>
      <point x="424" y="582" type="curve"/>
      <point x="409" y="584"/>
      <point x="398" y="585"/>
      <point x="382" y="585" type="curve" smooth="yes"/>
      <point x="301" y="585"/>
      <point x="231" y="556"/>
      <point x="231" y="511" type="curve" smooth="yes"/>
      <point x="231" y="455"/>
      <point x="353" y="432"/>
      <point x="439" y="431" type="curve" smooth="yes"/>
      <point x="440" y="431"/>
      <point x="440" y="431"/>
      <point x="441" y="432" type="curve"/>
      <point x="425" y="407" type="line"/>
      <point x="265" y="410"/>
      <point x="178" y="462"/>
    </contour>
    <contour>
      <point x="76" y="-44" type="curve"/>
      <point x="104" y="-44" type="line"/>
      <point x="138" y="-108"/>
      <point x="202" y="-139"/>
      <point x="311" y="-139" type="curve" smooth="yes"/>
      <point x="458" y="-139"/>
      <point x="573" y="-66"/>
      <point x="573" y="55" type="curve" smooth="yes"/>
      <point x="573" y="74"/>
      <point x="569" y="92"/>
      <point x="562" y="102" type="curve"/>
      <point x="575" y="133" type="line"/>
      <point x="593" y="106"/>
      <point x="602" y="75"/>
      <point x="602" y="38" type="curve" smooth="yes"/>
      <point x="602" y="-124"/>
      <point x="477" y="-219"/>
      <point x="330" y="-219" type="curve" smooth="yes"/>
      <point x="194" y="-219"/>
      <point x="113" y="-153"/>
    </contour>
    <component base="si_Bha"/>
  </outline>
</glyph>
<glyph name="si_BhU" format="1">
  <advance width="670"/>
  <outline>
    <contour>
      <point x="6" y="271" type="curve"/>
      <point x="6" y="303" type="line"/>
      <point x="212" y="303" type="line"/>
      <point x="171" y="278" type="line"/>
      <point x="140" y="278" type="line" smooth="yes"/>
      <point x="69" y="277"/>
      <point x="22" y="274"/>
    </contour>
    <contour>
      <point x="49" y="364" type="curve" smooth="yes"/>
      <point x="49" y="394"/>
      <point x="78" y="432"/>
      <point x="134" y="432" type="curve" smooth="yes"/>
      <point x="213" y="432"/>
      <point x="254" y="360"/>
      <point x="255" y="277" type="curve"/>
      <point x="243" y="279"/>
      <point x="233" y="279"/>
      <point x="226" y="279" type="curve" smooth="yes"/>
      <point x="157" y="279"/>
      <point x="96" y="245"/>
      <point x="96" y="189" type="curve" smooth="yes"/>
      <point x="96" y="127"/>
      <point x="160" y="100"/>
      <point x="226" y="100" type="curve" smooth="yes"/>
      <point x="280" y="100"/>
      <point x="341" y="121"/>
      <point x="341" y="175" type="curve" smooth="yes"/>
      <point x="341" y="200"/>
      <point x="328" y="213"/>
      <point x="311" y="213" type="curve" smooth="yes"/>
      <point x="298" y="213"/>
      <point x="285" y="205"/>
      <point x="278" y="184" type="curve"/>
      <point x="255" y="193" type="line"/>
      <point x="264" y="318"/>
      <point x="345" y="432"/>
      <point x="446" y="432" type="curve" smooth="yes"/>
      <point x="558" y="432"/>
      <point x="621" y="329"/>
      <point x="621" y="211" type="curve" smooth="yes"/>
      <point x="621" y="95"/>
      <point x="540" y="0"/>
      <point x="457" y="0" type="curve" smooth="yes"/>
      <point x="443" y="0"/>
      <point x="425" y="-3"/>
      <point x="414" y="-8" type="curve"/>
      <point x="403" y="20" type="line"/>
      <point x="420" y="27"/>
      <point x="436" y="28"/>
      <point x="445" y="29" type="curve" smooth="yes"/>
      <point x="506" y="34"/>
      <point x="548" y="104"/>
      <point x="548" y="182" type="curve" smooth="yes"/>
      <point x="548" y="264"/>
      <point x="504" y="342"/>
      <point x="413" y="342" type="curve" smooth="yes"/>
      <point x="340" y="342"/>
      <point x="304" y="296"/>
      <point x="288" y="231" type="curve"/>
      <point x="298" y="237"/>
      <point x="307" y="239"/>
      <point x="316" y="239" type="curve" smooth="yes"/>
      <point x="356" y="239"/>
      <point x="382" y="199"/>
      <point x="382" y="145" type="curve" smooth="yes"/>
      <point x="382" y="53"/>
      <point x="312" y="-1"/>
      <point x="217" y="-1" type="curve" smooth="yes"/>
      <point x="119" y="-1"/>
      <point x="49" y="61"/>
      <point x="49" y="155" type="curve" smooth="yes"/>
      <point x="49" y="250"/>
      <point x="144" y="303"/>
      <point x="216" y="303" type="curve" smooth="yes"/>
      <point x="220" y="303"/>
      <point x="218" y="303"/>
      <point x="221" y="303" type="curve"/>
      <point x="221" y="344"/>
      <point x="197" y="381"/>
      <point x="163" y="381" type="curve" smooth="yes"/>
      <point x="145" y="381"/>
      <point x="133" y="372"/>
      <point x="125" y="354" type="curve" smooth="yes"/>
      <point x="118" y="337"/>
      <point x="104" y="325"/>
      <point x="85" y="325" type="curve" smooth="yes"/>
      <point x="64" y="325"/>
      <point x="49" y="339"/>
    </contour>
    <contour>
      <point x="340" y="-77" type="curve" smooth="yes"/>
      <point x="340" y="-27"/>
      <point x="368" y="9"/>
      <point x="410" y="22" type="curve"/>
      <point x="418" y="-6" type="line"/>
      <point x="399" y="-13"/>
      <point x="382" y="-31"/>
      <point x="382" y="-57" type="curve" smooth="yes"/>
      <point x="382" y="-99"/>
      <point x="429" y="-121"/>
      <point x="480" y="-121" type="curve" smooth="yes"/>
      <point x="541" y="-121"/>
      <point x="588" y="-89"/>
      <point x="588" y="-45" type="curve" smooth="yes"/>
      <point x="588" y="-42"/>
      <point x="588" y="-39"/>
      <point x="588" y="-36" type="curve"/>
      <point x="618" y="-36" type="line"/>
      <point x="620" y="-45"/>
      <point x="620" y="-60"/>
      <point x="620" y="-70" type="curve" smooth="yes"/>
      <point x="620" y="-122"/>
      <point x="576" y="-192"/>
      <point x="476" y="-192" type="curve" smooth="yes"/>
      <point x="409" y="-192"/>
      <point x="340" y="-153"/>
    </contour>
  </outline>
</glyph>
<glyph name="si_BhUu" format="1">
  <advance width="670"/>
  <outline>
    <contour>
      <point x="373" y="-129" type="curve" smooth="yes"/>
      <point x="373" y="-93"/>
      <point x="404" y="-72"/>
      <point x="437" y="-67" type="curve"/>
      <point x="382" y="-39" type="line"/>
      <point x="468" y="-14" type="line"/>
      <point x="374" y="1" type="line"/>
      <point x="426" y="14" type="line"/>
      <point x="548" y="-7" type="line"/>
      <point x="441" y="-44" type="line"/>
      <point x="501" y="-76" type="line"/>
      <point x="473" y="-83"/>
      <point x="417" y="-85"/>
      <point x="417" y="-110" type="curve" smooth="yes"/>
      <point x="417" y="-136"/>
      <point x="455" y="-144"/>
      <point x="497" y="-144" type="curve" smooth="yes"/>
      <point x="551" y="-144"/>
      <point x="596" y="-124"/>
      <point x="596" y="-82" type="curve" smooth="yes"/>
      <point x="596" y="-77"/>
      <point x="595" y="-68"/>
      <point x="590" y="-59" type="curve"/>
      <point x="624" y="-59" type="line"/>
      <point x="628" y="-71"/>
      <point x="628" y="-83"/>
      <point x="628" y="-94" type="curve" smooth="yes"/>
      <point x="628" y="-161"/>
      <point x="577" y="-205"/>
      <point x="495" y="-205" type="curve" smooth="yes"/>
      <point x="437" y="-205"/>
      <point x="373" y="-187"/>
    </contour>
    <component base="si_Bha"/>
  </outline>
</glyph>
<glyph name="si_Bh.halant" format="1">
  <advance width="670"/>
  <outline>
    <contour>
      <point x="467" y="391" type="line"/>
      <point x="483" y="498" type="line"/>
      <point x="505" y="481"/>
      <point x="546" y="542"/>
      <point x="546" y="504" type="curve"/>
      <point x="555" y="482"/>
      <point x="549" y="468"/>
      <point x="540" y="468" type="curve" smooth="yes"/>
      <point x="559" y="468"/>
      <point x="573" y="487"/>
      <point x="567" y="516" type="curve" smooth="yes"/>
      <point x="567" y="570"/>
      <point x="511" y="534"/>
      <point x="479" y="558" type="curve"/>
    </contour>
    <contour>
      <point x="495" y="503" type="curve"/>
      <point x="499" y="502"/>
      <point x="503" y="580"/>
      <point x="508" y="580" type="curve"/>
      <point x="549" y="562"/>
      <point x="578" y="560"/>
      <point x="578" y="545" type="curve" smooth="yes"/>
      <point x="578" y="548"/>
      <point x="556" y="541"/>
      <point x="514" y="554" type="curve" smooth="yes"/>
      <point x="507" y="554"/>
      <point x="500" y="500"/>
    </contour>
    <component base="si_Bha"/>
  </outline>
</glyph>
<glyph name="si_Bha.reph" format="1">
  <advance width="670"/>
  <outline>
    <contour>
      <point x="296" y="511" type="curve" smooth="yes"/>
      <point x="296" y="490"/>
      <point x="315" y="474"/>
      <point x="337" y="474" type="curve" smooth="yes"/>
      <point x="359" y="474"/>
      <point x="378" y="490"/>
      <point x="378" y="511" type="curve" smooth="yes"/>
      <point x="378" y="532"/>
      <point x="359" y="548"/>
      <point x="337" y="548" type="curve" smooth="yes"/>
      <point x="315" y="548"/>
      <point x="296" y="532"/>
    </contour>
    <contour>
      <point x="194" y="530" type="curve" smooth="yes"/>
      <point x="194" y="594"/>
      <point x="252" y="631"/>
      <point x="334" y="631" type="curve" smooth="yes"/>
      <point x="411" y="631"/>
      <point x="475" y="588"/>
      <point x="475" y="517" type="curve" smooth="yes"/>
      <point x="475" y="493"/>
      <point x="467" y="471"/>
      <point x="450" y="452" type="curve"/>
      <point x="415" y="452" type="line"/>
      <point x="428" y="464"/>
      <point x="444" y="489"/>
      <point x="444" y="516" type="curve" smooth="yes"/>
      <point x="444" y="572"/>
      <point x="394" y="603"/>
      <point x="333" y="603" type="curve" smooth="yes"/>
      <point x="280" y="603"/>
      <point x="226" y="582"/>
      <point x="226" y="530" type="curve" smooth="yes"/>
      <point x="226" y="491"/>
      <point x="268" y="473"/>
      <point x="289" y="470" type="curve"/>
      <point x="281" y="476"/>
      <point x="269" y="491"/>
      <point x="269" y="512" type="curve" smooth="yes"/>
      <point x="269" y="547"/>
      <point x="300" y="572"/>
      <point x="336" y="572" type="curve" smooth="yes"/>
      <point x="377" y="572"/>
      <point x="405" y="545"/>
      <point x="405" y="510" type="curve" smooth="yes"/>
      <point x="405" y="471"/>
      <point x="370" y="445"/>
      <point x="312" y="445" type="curve" smooth="yes"/>
      <point x="253" y="445"/>
      <point x="194" y="474"/>
    </contour>
  </outline>
</glyph>
